<svg width="32" height="32" viewBox="0 0 32 32" fill="none" xmlns="http://www.w3.org/2000/svg">
<path d="M0 6C0 2.68629 2.68629 0 6 0H26C29.3137 0 32 2.68629 32 6V26C32 29.3137 29.3137 32 26 32H6C2.68629 32 0 29.3137 0 26V6Z" fill="#0083CA"/>
<path fill-rule="evenodd" clip-rule="evenodd" d="M16.0003 20.2824C18.3672 20.2824 20.286 18.3636 20.286 15.9967C20.286 13.6297 18.3672 11.7109 16.0003 11.7109C13.6333 11.7109 11.7145 13.6297 11.7145 15.9967C11.7145 18.3636 13.6333 20.2824 16.0003 20.2824ZM18.8574 15.9967C18.8574 17.5746 17.5782 18.8538 16.0003 18.8538C14.4223 18.8538 13.1431 17.5746 13.1431 15.9967C13.1431 14.4187 14.4223 13.1395 16.0003 13.1395C17.5782 13.1395 18.8574 14.4187 18.8574 15.9967Z" fill="white"/>
<path fill-rule="evenodd" clip-rule="evenodd" d="M6 15.2854V16.714C6 17.8199 6.83758 18.73 7.91292 18.8447C8.0042 19.1042 8.10759 19.3579 8.22238 19.6052C7.51774 20.4471 7.56097 21.7029 8.35208 22.494L9.36223 23.5041C10.1353 24.2772 11.3522 24.3361 12.1929 23.6808C12.5031 23.8349 12.8242 23.9707 13.1545 24.087C13.2692 25.1624 14.1794 26 15.2852 26H16.7138C17.8194 26 18.7294 25.1628 18.8444 24.0877C19.1446 23.9821 19.4371 23.8604 19.7208 23.7235C20.5588 24.3331 21.7389 24.26 22.4947 23.5041L23.5049 22.494C24.2607 21.7381 24.3339 20.5581 23.7243 19.7201C23.861 19.4366 23.9826 19.1445 24.0881 18.8446C25.163 18.7294 26 17.8194 26 16.714V15.2854C26 14.18 25.163 13.2701 24.0881 13.1549C23.9718 12.8241 23.8358 12.5027 23.6815 12.192C24.3363 11.3514 24.2773 10.1349 23.5044 9.36201L22.4942 8.35185C21.7033 7.56094 20.4479 7.51754 19.6061 8.22164C19.3584 8.10668 19.1042 8.00315 18.8443 7.91176C18.7291 6.83698 17.8191 6 16.7138 6H15.2852C14.1796 6 13.2695 6.83736 13.1546 7.9125C12.8627 8.01521 12.5781 8.13324 12.3018 8.26558C11.4603 7.51608 10.1697 7.54483 9.36273 8.35185L8.35257 9.362C7.54555 10.169 7.5168 11.4596 8.26632 12.3011C8.13384 12.5777 8.01571 12.8626 7.91292 13.1548C6.83758 13.2695 6 14.1796 6 15.2854ZM17.4281 8.14286C17.4281 7.74837 17.1083 7.42857 16.7138 7.42857H15.2852C14.8907 7.42857 14.5709 7.74837 14.5709 8.14286V8.41621C14.5709 8.75588 14.3304 9.04483 14.0042 9.13959C13.4976 9.28677 13.0141 9.48858 12.5607 9.7382C12.2631 9.90201 11.8888 9.86772 11.6486 9.62754L11.383 9.36201C11.1041 9.08306 10.6518 9.08306 10.3729 9.362L9.36273 10.3722C9.08378 10.6511 9.08378 11.1034 9.36273 11.3823L9.62827 11.6479C9.86846 11.888 9.90275 12.2624 9.73894 12.56C9.48918 13.0136 9.28729 13.4974 9.14008 14.0044C9.04536 14.3306 8.75639 14.5711 8.41667 14.5711H8.14286C7.74837 14.5711 7.42857 14.891 7.42857 15.2854V16.714C7.42857 17.1085 7.74837 17.4283 8.14286 17.4283H8.41667C8.75639 17.4283 9.04535 17.6689 9.14008 17.9951C9.27824 18.471 9.46459 18.9264 9.69346 19.3556C9.85144 19.6519 9.81496 20.0209 9.57754 20.2584L9.36223 20.4737C9.08329 20.7526 9.08329 21.2049 9.36223 21.4839L10.3724 22.494C10.6513 22.7729 11.1036 22.7729 11.3825 22.494L11.5563 22.3202C11.7993 22.0772 12.179 22.0452 12.4777 22.2149C12.955 22.486 13.4665 22.7037 14.0042 22.8599C14.3304 22.9546 14.5709 23.2436 14.5709 23.5833V23.8571C14.5709 24.2516 14.8907 24.5714 15.2852 24.5714H16.7138C17.1083 24.5714 17.4281 24.2516 17.4281 23.8571V23.5839C17.4281 23.2441 17.6686 22.9551 17.9949 22.8604C18.5023 22.7132 18.9864 22.5112 19.4403 22.2613C19.7379 22.0975 20.1122 22.1318 20.3524 22.372L20.4744 22.494C20.7534 22.7729 21.2056 22.7729 21.4846 22.494L22.4947 21.4839C22.7736 21.2049 22.7736 20.7526 22.4947 20.4737L22.3727 20.3517C22.1325 20.1115 22.0982 19.7371 22.2621 19.4396C22.5119 18.9859 22.7137 18.5021 22.8609 17.9951C22.9556 17.6689 23.2446 17.4283 23.5844 17.4283H23.8571C24.2516 17.4283 24.5714 17.1085 24.5714 16.714V15.2854C24.5714 14.891 24.2516 14.5711 23.8571 14.5711H23.5844C23.2446 14.5711 22.9556 14.3306 22.8609 14.0044C22.7047 13.4664 22.4869 12.9545 22.2156 12.477C22.0459 12.1782 22.078 11.7985 22.3209 11.5556L22.4942 11.3823C22.7731 11.1034 22.7731 10.6511 22.4942 10.3722L21.4841 9.362C21.2051 9.08306 20.7529 9.08306 20.4739 9.362L20.2591 9.57677C20.0217 9.8142 19.6526 9.85069 19.3564 9.69271C18.9269 9.46368 18.4711 9.27725 17.9949 9.13905C17.6686 9.04436 17.4281 8.75537 17.4281 8.41562V8.14286Z" fill="white"/>
</svg>
