<svg width="28" height="28" viewBox="0 0 28 28" fill="none" xmlns="http://www.w3.org/2000/svg">
<path d="M0 6C0 2.68629 2.68629 0 6 0H22C25.3137 0 28 2.68629 28 6V22C28 25.3137 25.3137 28 22 28H6C2.68629 28 0 25.3137 0 22V6Z" fill="#0083CA"/>
<path fill-rule="evenodd" clip-rule="evenodd" d="M11.2343 7.22781C11.5467 6.92406 12.0533 6.92406 12.3657 7.22781L18.7657 13.45C19.0781 13.7538 19.0781 14.2462 18.7657 14.55L12.3657 20.7722C12.0533 21.0759 11.5467 21.0759 11.2343 20.7722C10.9219 20.4685 10.9219 19.976 11.2343 19.6723L17.0686 14L11.2343 8.32775C10.9219 8.02401 10.9219 7.53155 11.2343 7.22781Z" fill="white"/>
</svg>
