<svg width="32" height="32" viewBox="0 0 32 32" fill="none" xmlns="http://www.w3.org/2000/svg">
<path d="M0 6C0 2.68629 2.68629 0 6 0H26C29.3137 0 32 2.68629 32 6V26C32 29.3137 29.3137 32 26 32H6C2.68629 32 0 29.3137 0 26V6Z" fill="#0083CA"/>
<path fill-rule="evenodd" clip-rule="evenodd" d="M13.4627 20.5938C11.8457 19.6983 10.75 17.9748 10.75 15.9978C10.75 13.0998 13.1028 10.7478 16 10.7478C18.8973 10.7478 21.25 13.0998 21.25 15.9978C21.25 17.9748 20.1542 19.6983 18.5372 20.5938C18.175 20.7948 18.0438 21.2516 18.244 21.6131C18.445 21.9753 18.9017 22.1066 19.264 21.9063C21.3422 20.7551 22.75 18.5396 22.75 15.9978C22.75 12.2718 19.7253 9.2478 16 9.2478C12.2747 9.2478 9.25 12.2718 9.25 15.9978C9.25 18.5396 10.6577 20.7551 12.736 21.9063C13.0982 22.1066 13.555 21.9753 13.756 21.6131C13.9563 21.2516 13.825 20.7948 13.4627 20.5938Z" fill="white"/>
<path fill-rule="evenodd" clip-rule="evenodd" d="M17.6847 17.4999C17.2722 17.9589 16.6752 18.2477 16.0107 18.2477C15.341 18.2477 14.7395 17.9537 14.327 17.4887C14.0525 17.1789 13.5777 17.1504 13.268 17.4249C12.9582 17.7002 12.9297 18.1742 13.2042 18.4839C13.892 19.2587 14.8947 19.7477 16.0107 19.7477C17.1177 19.7477 18.1137 19.2669 18.8 18.5027C19.0767 18.1952 19.0512 17.7204 18.7437 17.4437C18.4355 17.1669 17.9615 17.1924 17.6847 17.4999Z" fill="white"/>
<path fill-rule="evenodd" clip-rule="evenodd" d="M16.7497 24.1982V22.0037C16.7497 21.5897 16.4137 21.2537 15.9997 21.2537C15.5857 21.2537 15.2497 21.5897 15.2497 22.0037V24.9864C15.2497 25.4004 15.5857 25.7319 15.9997 25.7319C16.0297 25.7319 16.0582 25.7319 16.0874 25.7312C20.5867 25.6914 24.3607 22.6029 25.4399 18.4382C25.4609 18.3579 25.4804 18.2769 25.4992 18.1959C26.4922 17.9642 27.2332 17.0724 27.2332 16.0089C27.2332 14.9477 26.4952 14.0574 25.5052 13.8242C24.5152 9.4967 20.6332 6.2627 15.9997 6.2627C11.3684 6.2627 7.48794 9.4937 6.49569 13.8182C5.49294 14.0424 4.74219 14.9387 4.74219 16.0089C4.74219 17.2487 5.74869 18.2544 6.98769 18.2544C8.22744 18.2544 9.23319 17.2487 9.23319 16.0089C9.23319 15.1314 8.72844 14.3709 7.99419 14.0019C8.88819 10.4192 12.1357 7.7627 15.9997 7.7627C19.8599 7.7627 23.1044 10.4147 24.0029 13.9914C23.2567 14.3567 22.7422 15.1232 22.7422 16.0089C22.7422 16.8932 23.2544 17.6582 23.9977 18.0249L23.9879 18.0617C23.1299 21.3752 20.2544 23.8817 16.7497 24.1982ZM6.98769 15.2642C7.39944 15.2642 7.73319 15.5979 7.73319 16.0089C7.73319 16.4207 7.39944 16.7544 6.98769 16.7544C6.57669 16.7544 6.24219 16.4207 6.24219 16.0089C6.24219 15.5979 6.57669 15.2642 6.98769 15.2642ZM24.9877 15.2642C25.3994 15.2642 25.7332 15.5979 25.7332 16.0089C25.7332 16.4207 25.3994 16.7544 24.9877 16.7544C24.5767 16.7544 24.2422 16.4207 24.2422 16.0089C24.2422 15.5979 24.5767 15.2642 24.9877 15.2642Z" fill="white"/>
</svg>
