<svg width="60" height="60" viewBox="0 0 60 60" fill="none" xmlns="http://www.w3.org/2000/svg">
<g clip-path="url(#clip0_3128_71624)">
<g clip-path="url(#clip1_3128_71624)">
<path d="M35.6251 49.75H28.1251C27.6278 49.75 27.1509 49.9475 26.7993 50.2992C26.4476 50.6508 26.2501 51.1277 26.2501 51.625V55.375C26.2501 55.8723 26.4476 56.3492 26.7993 56.7008C27.1509 57.0525 27.6278 57.25 28.1251 57.25H35.6251C36.1224 57.25 36.5993 57.0525 36.9509 56.7008C37.3025 56.3492 37.5001 55.8723 37.5001 55.375V51.625C37.5001 51.1277 37.3025 50.6508 36.9509 50.2992C36.5993 49.9475 36.1224 49.75 35.6251 49.75ZM20.6251 42.25H15.0001V6.625C15.0001 6.12772 14.8025 5.65081 14.4509 5.29917C14.0993 4.94754 13.6224 4.75 13.1251 4.75H9.37509C8.87781 4.75 8.4009 4.94754 8.04927 5.29917C7.69764 5.65081 7.50009 6.12772 7.50009 6.625V42.25H1.87509C0.2122 42.25 -0.629206 44.2703 0.552044 45.4504L9.92704 56.7004C10.2786 57.0518 10.7554 57.2491 11.2524 57.2491C11.7495 57.2491 12.2262 57.0518 12.5778 56.7004L21.9528 45.4504C23.127 44.2727 22.2915 42.25 20.6251 42.25ZM50.6251 19.75H28.1251C27.6278 19.75 27.1509 19.9475 26.7993 20.2992C26.4476 20.6508 26.2501 21.1277 26.2501 21.625V25.375C26.2501 25.8723 26.4476 26.3492 26.7993 26.7008C27.1509 27.0525 27.6278 27.25 28.1251 27.25H50.6251C51.1224 27.25 51.5993 27.0525 51.9509 26.7008C52.3025 26.3492 52.5001 25.8723 52.5001 25.375V21.625C52.5001 21.1277 52.3025 20.6508 51.9509 20.2992C51.5993 19.9475 51.1224 19.75 50.6251 19.75ZM43.1251 34.75H28.1251C27.6278 34.75 27.1509 34.9475 26.7993 35.2992C26.4476 35.6508 26.2501 36.1277 26.2501 36.625V40.375C26.2501 40.8723 26.4476 41.3492 26.7993 41.7008C27.1509 42.0525 27.6278 42.25 28.1251 42.25H43.1251C43.6224 42.25 44.0993 42.0525 44.4509 41.7008C44.8025 41.3492 45.0001 40.8723 45.0001 40.375V36.625C45.0001 36.1277 44.8025 35.6508 44.4509 35.2992C44.0993 34.9475 43.6224 34.75 43.1251 34.75Z" fill="#191C1E"/>
<path d="M58.125 4.75H28.125C27.6277 4.75 27.1508 4.94754 26.7992 5.29917C26.4475 5.65081 26.25 6.12772 26.25 6.625V10.375C26.25 10.8723 26.4475 11.3492 26.7992 11.7008C27.1508 12.0525 27.6277 12.25 28.125 12.25H58.125C58.6223 12.25 59.0992 12.0525 59.4508 11.7008C59.8025 11.3492 60 10.8723 60 10.375V6.625C60 6.12772 59.8025 5.65081 59.4508 5.29917C59.0992 4.94754 58.6223 4.75 58.125 4.75Z" fill="#005AA3"/>
</g>
</g>
<defs>
<clipPath id="clip0_3128_71624">
<rect width="60" height="60" fill="white"/>
</clipPath>
<clipPath id="clip1_3128_71624">
<rect width="60" height="60" fill="white" transform="translate(0 1)"/>
</clipPath>
</defs>
</svg>
