<svg width="60" height="60" viewBox="0 0 60 60" fill="none" xmlns="http://www.w3.org/2000/svg">
<g clip-path="url(#clip0_3128_71723)">
<path d="M29.5 5C29 5 28.5 5.25 28.25 5.5L24.75 8.75L20.75 8C19.5 7.75 18.75 8.5 18.5 9.5L17.75 14L13.5 16C12.5 16.5 12.25 17.5 12.75 18.5L14.75 22.5L12.75 26.5C12.25 27.5 12.75 28.5 13.5 29L17.75 31L18.5 35.5C18.75 36.5 19.75 37.25 20.75 37L25.5 36.25L29 39.5C29.75 40.25 31 40.25 31.75 39.5L35.25 36.25L40 37C41 37.25 42 36.5 42.25 35.5L43 31L47.25 29C48.25 28.5 48.5 27.5 48 26.5L45.25 22.5L47.25 18.5C47.75 17.5 47.5 16.5 46.5 16L42.25 14L41.5 9.5C41.25 8.5 40.25 7.75 39.25 8L34.5 8.75L31 5.5C30.75 5 30 5 29.5 5ZM15.25 32.75L7.5 48.25L16.5 47L21 55L27.5 41.75L27 41.25L24.5 39L21 39.5C18.75 39.75 16.5 38.25 16 36L15.25 32.75Z" fill="#191C1E"/>
<path d="M44.75 32.75L44 36C43.5 38 41.75 39.5 39.75 39.5H39.25L35.75 39L33.25 41.25L32.75 41.75L39.25 55L43.75 47.25L52.75 48.5L44.75 32.75Z" fill="#005AA3"/>
</g>
<defs>
<clipPath id="clip0_3128_71723">
<rect width="60" height="60" fill="white"/>
</clipPath>
</defs>
</svg>
