<svg width="60" height="60" viewBox="0 0 60 60" fill="none" xmlns="http://www.w3.org/2000/svg">
<g clip-path="url(#clip0_3128_69151)">
<path d="M28.333 15.8018V13.1852C28.333 8.98516 22.0497 6.78516 15.833 6.78516C9.61634 6.78516 3.33301 9.00182 3.33301 13.1852V30.4018C3.33301 34.0018 7.94967 36.1185 13.1663 36.6685L13.333 36.5518V25.3852C13.333 20.1352 19.4997 16.2352 28.333 15.8018Z" fill="#191C1E"/>
<path d="M29.9997 18.082C21.783 18.082 15.583 21.2154 15.583 25.382V45.8987C15.583 50.0654 21.783 53.1987 29.9997 53.1987C38.2163 53.1987 44.4163 50.0654 44.4163 45.8987V42.2987C40.2503 45.3576 35.1628 46.8986 29.9997 46.6654C26.5926 46.724 23.2035 46.1592 19.9997 44.9987V42.1154C23.1566 43.4686 26.5656 44.1334 29.9997 44.0654C37.0163 44.0654 42.7497 42.0154 44.383 38.682V34.1154C41.333 36.6654 36.1997 38.332 29.9997 38.332C26.5926 38.3907 23.2035 37.8259 19.9997 36.6654V33.7154C23.1566 35.0686 26.5656 35.7334 29.9997 35.6654C37.0163 35.6654 42.7497 33.8154 44.383 30.482V25.382C44.4163 21.2154 38.2163 18.082 29.9997 18.082Z" fill="#191C1E"/>
<path d="M37.5003 10.0013C37.505 9.21794 37.5831 8.43675 37.7337 7.66797C34.2503 8.6513 31.667 10.5013 31.667 13.1846V15.8013C34.5183 15.8878 37.3351 16.4511 40.0003 17.468C38.3801 15.3157 37.5027 12.6953 37.5003 10.0013Z" fill="#191C1E"/>
<path d="M49.9997 22.4841C48.4901 22.4819 46.9935 22.2052 45.583 21.6674C46.3333 22.7626 46.7395 24.0567 46.7497 25.3841V36.5508L46.833 36.6508C52.0497 36.1174 56.6663 33.9841 56.6663 30.4008V20.5508C54.6727 21.8151 52.3604 22.4856 49.9997 22.4841Z" fill="#191C1E"/>
<path d="M50.0003 18.3151C54.6027 18.3151 58.3337 14.5841 58.3337 9.98177C58.3337 5.3794 54.6027 1.64844 50.0003 1.64844C45.398 1.64844 41.667 5.3794 41.667 9.98177C41.667 14.5841 45.398 18.3151 50.0003 18.3151Z" fill="#005AA3"/>
</g>
<defs>
<clipPath id="clip0_3128_69151">
<rect width="60" height="60" fill="white"/>
</clipPath>
</defs>
</svg>
