<svg width="60" height="60" viewBox="0 0 60 60" fill="none" xmlns="http://www.w3.org/2000/svg">
<g clip-path="url(#clip0_3122_68966)">
<path d="M40.1488 12.0148H47.1318C49.6323 12.0148 51.8482 12.5584 53.7794 13.6458C55.7209 14.7331 57.2405 16.2648 58.3382 18.2408C59.4462 20.2063 60.0001 22.5169 60.0001 25.1725C60.0001 27.7445 59.4462 29.9871 58.3382 31.9004C57.2405 33.8137 55.7209 35.3035 53.7794 36.3699C51.8482 37.4259 49.6323 37.9539 47.1318 37.9539H40.1488C37.6382 37.9539 35.4121 37.4311 33.4707 36.3856C31.5293 35.3296 30.0046 33.845 28.8967 31.9317C27.7989 30.0185 27.25 27.7601 27.25 25.1568C27.25 22.5012 27.804 20.1907 28.9119 18.2251C30.03 16.2491 31.5598 14.7226 33.5012 13.6458C35.4426 12.5584 37.6585 12.0148 40.1488 12.0148ZM40.1488 17.6919C38.8071 17.6919 37.6229 17.9689 36.5963 18.5231C35.5798 19.0667 34.787 19.8927 34.2178 21.0009C33.6486 22.1092 33.364 23.4945 33.364 25.1568C33.364 26.746 33.6537 28.0686 34.233 29.1245C34.8226 30.1805 35.6256 30.9699 36.642 31.4926C37.6585 32.0154 38.8274 32.2768 40.1488 32.2768H47.1776C48.5091 32.2768 49.673 32.0101 50.6691 31.4769C51.6754 30.9437 52.453 30.1491 53.0019 29.0932C53.5609 28.0372 53.8404 26.7303 53.8404 25.1725C53.8404 23.5101 53.5609 22.1248 53.0019 21.0166C52.453 19.9084 51.6754 19.0772 50.6691 18.5231C49.673 17.9689 48.5091 17.6919 47.1776 17.6919H40.1488ZM46.7659 8V42H40.4995V8H46.7659Z" fill="#191C1E"/>
<path d="M0 40.6845V8.56641H12.3194C14.6878 8.56641 16.7054 9.03166 18.3724 9.96216C20.0394 10.8822 21.31 12.163 22.1841 13.8044C23.0684 15.4354 23.5106 17.3173 23.5106 19.4502C23.5106 21.583 23.0633 23.4649 22.1689 25.0959C21.2744 26.7269 19.9784 27.9972 18.2809 28.9068C16.5936 29.8164 14.5505 30.2712 12.1517 30.2712H4.2996V24.8293H11.0844C12.355 24.8293 13.4019 24.6045 14.2253 24.155C15.0588 23.6949 15.6788 23.0624 16.0854 22.2574C16.5021 21.4419 16.7105 20.5061 16.7105 19.4502C16.7105 18.3838 16.5021 17.4532 16.0854 16.6587C15.6788 15.8536 15.0588 15.2315 14.2253 14.7924C13.3918 14.3429 12.3347 14.1181 11.0539 14.1181H6.60187V40.6845H0Z" fill="#191C1E"/>
<rect y="48.2852" width="60" height="4" rx="2" fill="#005AA3"/>
</g>
<defs>
<clipPath id="clip0_3122_68966">
<rect width="60" height="60" fill="white"/>
</clipPath>
</defs>
</svg>
