<svg width="60" height="60" viewBox="0 0 60 60" fill="none" xmlns="http://www.w3.org/2000/svg">
<path fill-rule="evenodd" clip-rule="evenodd" d="M4.28571 9C1.91878 9 0 10.9252 0 13.3V24.417C2.49684 25.3025 4.28571 27.6916 4.28571 30.5C4.28571 33.3084 2.49684 35.6975 0 36.583V47.7C0 50.0748 1.91878 52 4.28572 52H55.7143C58.0812 52 60 50.0748 60 47.7V36.583C57.5032 35.6975 55.7143 33.3084 55.7143 30.5C55.7143 27.6916 57.5032 25.3025 60 24.417V13.3C60 10.9252 58.0812 9 55.7143 9H4.28571ZM10.7143 17.6C9.53082 17.6 8.57143 18.5626 8.57143 19.75V41.25C8.57143 42.4374 9.53082 43.4 10.7143 43.4H49.2857C50.4692 43.4 51.4286 42.4374 51.4286 41.25V19.75C51.4286 18.5626 50.4692 17.6 49.2857 17.6H10.7143Z" fill="#191C1E"/>
<path fill-rule="evenodd" clip-rule="evenodd" d="M4.28571 13.3V19.75C4.28571 16.1878 7.16388 13.3 10.7143 13.3L4.28571 13.3ZM4.28571 41.25V47.7H10.7143C7.16388 47.7 4.28571 44.8122 4.28571 41.25ZM49.2857 47.7H55.7143V41.25C55.7143 44.8122 52.8361 47.7 49.2857 47.7ZM55.7143 19.75V13.3H49.2857C52.8361 13.3 55.7143 16.1878 55.7143 19.75ZM0 13.3C0 10.9252 1.91878 9 4.28571 9H55.7143C58.0812 9 60 10.9252 60 13.3V24.417C57.5032 25.3025 55.7143 27.6916 55.7143 30.5C55.7143 33.3084 57.5032 35.6975 60 36.583V47.7C60 50.0748 58.0812 52 55.7143 52H4.28572C1.91878 52 0 50.0748 0 47.7V36.583C2.49684 35.6975 4.28571 33.3084 4.28571 30.5C4.28571 27.6916 2.49684 25.3025 0 24.417V13.3ZM8.57143 19.75C8.57143 18.5626 9.53082 17.6 10.7143 17.6H49.2857C50.4692 17.6 51.4286 18.5626 51.4286 19.75V41.25C51.4286 42.4374 50.4692 43.4 49.2857 43.4H10.7143C9.53082 43.4 8.57143 42.4374 8.57143 41.25V19.75Z" fill="#191C1E"/>
<path d="M15 28.25C15 27.0074 15.9594 26 17.1429 26H42.8571C44.0406 26 45 27.0074 45 28.25V32.75C45 33.9926 44.0406 35 42.8571 35H17.1429C15.9594 35 15 33.9926 15 32.75V28.25Z" fill="#005AA3"/>
</svg>
