<svg width="60" height="60" viewBox="0 0 60 60" fill="none" xmlns="http://www.w3.org/2000/svg">
<path d="M17.9084 18.4762C16.855 18.4762 16.0305 17.5714 16.0305 16.5238V9.38097C16.0305 8.28573 16.9008 7.42859 17.9084 7.42859C18.9618 7.42859 19.7863 8.33335 19.7863 9.38097V16.4762C19.7863 17.5714 18.9618 18.4762 17.9084 18.4762ZM40.8092 18.4762C39.7557 18.4762 38.8855 17.5714 38.8855 16.5238V9.38097C38.8855 8.28573 39.7557 7.42859 40.8092 7.42859C41.8626 7.42859 42.687 8.33335 42.687 9.38097V16.4762C42.687 17.5714 41.8626 18.4762 40.8092 18.4762ZM47.4046 49.0953V22.7143H10.9466V49.0953H47.4046ZM4.71756 15.8095C4.71756 13.1905 6.73283 11.0953 9.25192 11.0953H15.3435V13.1905C14.5649 13.9048 14.0611 15 14.0611 16.1429C14.0611 18.3334 15.7557 20.0953 17.8626 20.0953C19.9695 20.0953 21.6641 18.3334 21.6641 16.1429C21.6641 14.9524 21.1603 13.9048 20.3817 13.1905V11.0953H38.1985V13.1905C37.4199 13.9048 36.916 15 36.916 16.1429C36.916 18.3334 38.6107 20.0953 40.7176 20.0953C42.8244 20.0953 44.5191 18.3334 44.5191 16.1429C44.5191 14.9524 44.0153 13.9048 43.2366 13.1905V11.0953H49.0076C51.5267 11.0953 53.542 13.1905 53.542 15.8095V48.6191C53.542 51.2381 51.5267 53.3334 49.0076 53.3334H9.16031C6.64123 53.3334 4.62596 51.2381 4.62596 48.6191V15.8095H4.71756ZM15.4351 33.1429H20.7023V38.6191H15.4351V33.1429ZM22.855 33.1429H28.1221V38.6191H22.855V33.1429ZM30.2748 33.1429H35.542V38.6191H30.2748V33.1429ZM37.6947 33.1429H42.9618V38.6191H37.6947V33.1429ZM37.6947 25.4286H42.9618V30.9048H37.6947V25.4286ZM30.2748 25.4286H35.542V30.9048H30.2748V25.4286ZM22.855 25.4286H28.1221V30.9048H22.855V25.4286ZM22.855 40.8572H28.1221V46.3334H22.855V40.8572Z" fill="#191C1E"/>
<path d="M15.4351 40.8573H20.7023V46.3335H15.4351V40.8573Z" fill="#005AA3"/>
</svg>
