<svg width="60" height="60" viewBox="0 0 60 60" fill="none" xmlns="http://www.w3.org/2000/svg">
<g clip-path="url(#clip0_2625_75251)">
<path d="M57.5453 11.52L47.3948 2.23554C46.9156 1.79277 46.2871 1.54687 45.6347 1.54688C44.9822 1.54687 44.3538 1.79277 43.8746 2.23554L33.7242 11.52C33.3987 11.8176 33.1708 12.2066 33.0703 12.636C32.9698 13.0654 33.0014 13.5151 33.1609 13.9263C33.3205 14.3374 33.6006 14.6907 33.9644 14.9399C34.3283 15.189 34.759 15.3224 35.2 15.3226H39.2293C39.3499 15.3227 39.4655 15.3707 39.5508 15.4561C39.6361 15.5414 39.6841 15.657 39.6842 15.7776V42.8859C39.6848 43.4541 39.9109 43.9989 40.3127 44.4007C40.7145 44.8025 41.2593 45.0284 41.8275 45.0289H49.2177C49.7858 45.0284 50.3306 44.8025 50.7324 44.4007C51.1341 43.999 51.3602 43.4544 51.3609 42.8862V15.7776C51.361 15.657 51.409 15.5413 51.4943 15.456C51.5796 15.3707 51.6953 15.3227 51.816 15.3226H56.0695C56.5105 15.3224 56.9412 15.189 57.305 14.9399C57.6689 14.6907 57.949 14.3374 58.1085 13.9263C58.2681 13.5151 58.2997 13.0654 58.1992 12.636C58.0987 12.2066 57.8707 11.8176 57.5453 11.52Z" fill="#191C1E"/>
<path d="M50.4235 53.4961H40.6221C40.1869 53.4961 39.7696 53.6689 39.462 53.9766C39.1543 54.2843 38.9814 54.7016 38.9814 55.1367C38.9814 55.5718 39.1543 55.9891 39.462 56.2968C39.7696 56.6045 40.1869 56.7773 40.6221 56.7773H50.4235C50.8587 56.7773 51.276 56.6045 51.5836 56.2968C51.8913 55.9891 52.0642 55.5718 52.0642 55.1367C52.0642 54.7016 51.8913 54.2843 51.5836 53.9766C51.276 53.6689 50.8587 53.4961 50.4235 53.4961Z" fill="#005AA3"/>
<path d="M50.4235 48.3164H40.6221C40.1869 48.3164 39.7696 48.4893 39.462 48.7969C39.1543 49.1046 38.9814 49.5219 38.9814 49.957C38.9814 50.3922 39.1543 50.8095 39.462 51.1171C39.7696 51.4248 40.1869 51.5977 40.6221 51.5977H50.4235C50.8587 51.5977 51.276 51.4248 51.5836 51.1171C51.8913 50.8095 52.0642 50.3922 52.0642 49.957C52.0642 49.5219 51.8913 49.1046 51.5836 48.7969C51.276 48.4893 50.8587 48.3164 50.4235 48.3164Z" fill="#005AA3"/>
<path d="M13.5915 34.8125H6.53634C5.26014 34.8125 4.22559 35.8471 4.22559 37.1232V54.7032C4.22559 55.9794 5.26014 57.014 6.53634 57.014H13.5915C14.8677 57.014 15.9022 55.9794 15.9022 54.7032V37.1232C15.9022 35.8471 14.8677 34.8125 13.5915 34.8125Z" fill="#191C1E"/>
<path d="M23.4094 24.4141H30.4649C31.0778 24.4141 31.6655 24.6575 32.0989 25.0909C32.5322 25.5242 32.7757 26.112 32.7757 26.7248V54.7011C32.7757 55.314 32.5322 55.9017 32.0989 56.3351C31.6655 56.7684 31.0778 57.0119 30.4649 57.0119H23.4094C22.7965 57.0119 22.2088 56.7684 21.7754 56.3351C21.3421 55.9017 21.0986 55.314 21.0986 54.7011V26.7244C21.0986 26.421 21.1584 26.1205 21.2745 25.8402C21.3907 25.5599 21.5609 25.3052 21.7755 25.0906C21.99 24.8761 22.2448 24.7059 22.5251 24.5898C22.8055 24.4737 23.1059 24.414 23.4094 24.4141Z" fill="#191C1E"/>
</g>
<defs>
<clipPath id="clip0_2625_75251">
<rect width="60" height="60" fill="white"/>
</clipPath>
</defs>
</svg>
