<svg width="60" height="60" viewBox="0 0 60 60" fill="none" xmlns="http://www.w3.org/2000/svg">
<path d="M5 8.57143C5 6.59898 6.59898 5 8.57143 5H51.4286C53.401 5 55 6.59898 55 8.57143V51.4286C55 53.401 53.401 55 51.4286 55H8.57143C6.59898 55 5 53.401 5 51.4286V8.57143Z" fill="#191C1E"/>
<path fill-rule="evenodd" clip-rule="evenodd" d="M51.4286 8.57143H8.57143V51.4286H51.4286V8.57143ZM8.57143 5C6.59898 5 5 6.59898 5 8.57143V51.4286C5 53.401 6.59898 55 8.57143 55H51.4286C53.401 55 55 53.401 55 51.4286V8.57143C55 6.59898 53.401 5 51.4286 5H8.57143Z" fill="#191C1E"/>
<path d="M12.1426 13.9302C12.1426 12.944 12.9421 12.1445 13.9283 12.1445H46.0712C47.0574 12.1445 47.8569 12.944 47.8569 13.9302V46.0731C47.8569 47.0593 47.0574 47.8588 46.0712 47.8588H13.9283C12.9421 47.8588 12.1426 47.0593 12.1426 46.0731V13.9302Z" fill="#D9E4EC"/>
<path fill-rule="evenodd" clip-rule="evenodd" d="M19.2852 21.0703H22.8566V24.6417H19.2852V21.0703ZM26.428 28.2132H22.8566V24.6417H26.428V28.2132ZM26.428 31.7846V28.2132H29.9994V31.7846H26.428ZM22.8566 35.356H26.428V31.7846H22.8566V35.356ZM22.8566 35.356V38.9275H19.2852V35.356H22.8566Z" fill="#191C1E"/>
<path d="M31.7852 35.3555H42.4994V38.9269H31.7852V35.3555Z" fill="#005AA3"/>
</svg>
