<svg width="60" height="60" viewBox="0 0 60 60" fill="none" xmlns="http://www.w3.org/2000/svg">
<path fill-rule="evenodd" clip-rule="evenodd" d="M50 5.67705C50 4.7503 49.2542 4 48.3333 4H11.6667C10.7458 4 10 4.7503 10 5.67705V54.323C10 55.2497 10.7458 56 11.6667 56H48.3333C49.2542 56 50 55.2497 50 54.323V5.67705ZM46.6667 7.35409V52.6459H13.3333V7.35409H46.6667Z" fill="#191C1E"/>
<path fill-rule="evenodd" clip-rule="evenodd" d="M45 10.2904C45 9.36356 44.2533 8.61328 43.3329 8.61328H16.6663C15.7459 8.61328 14.9992 9.36356 15 10.2904V20.3551C15 21.282 15.7459 22.0322 16.6663 22.0322H43.3329C44.2533 22.0322 44.9992 21.282 45 20.3551V10.2904Z" fill="#005AA3"/>
<path fill-rule="evenodd" clip-rule="evenodd" d="M23.3333 24.9706C23.3333 24.0442 22.5871 23.293 21.6667 23.293H16.6667C15.7462 23.293 15 24.0442 15 24.9706V30.0029C15 30.9293 15.7462 31.6805 16.6667 31.6805H21.6667C22.5871 31.6805 23.3333 30.9293 23.3333 30.0029V24.9706Z" fill="#191C1E"/>
<path fill-rule="evenodd" clip-rule="evenodd" d="M23.3333 35.0331C23.3333 34.1067 22.5871 33.3555 21.6667 33.3555H16.6667C15.7462 33.3555 15 34.1067 15 35.0331V40.0654C15 40.9918 15.7462 41.743 16.6667 41.743H21.6667C22.5871 41.743 23.3333 40.9918 23.3333 40.0654V35.0331Z" fill="#191C1E"/>
<path fill-rule="evenodd" clip-rule="evenodd" d="M23.3333 45.0956C23.3333 44.1692 22.5871 43.418 21.6667 43.418H16.6667C15.7462 43.418 15 44.1692 15 45.0956V50.1279C15 51.0543 15.7462 51.8055 16.6667 51.8055H21.6667C22.5871 51.8055 23.3333 51.0543 23.3333 50.1279V45.0956Z" fill="#191C1E"/>
<path fill-rule="evenodd" clip-rule="evenodd" d="M34.1673 24.9706C34.1673 24.0442 33.4211 23.293 32.5006 23.293H27.5006C26.5802 23.293 25.834 24.0442 25.834 24.9706V30.0029C25.834 30.9293 26.5802 31.6805 27.5006 31.6805H32.5006C33.4211 31.6805 34.1673 30.9293 34.1673 30.0029V24.9706Z" fill="#191C1E"/>
<path fill-rule="evenodd" clip-rule="evenodd" d="M34.1673 35.0331C34.1673 34.1067 33.4211 33.3555 32.5006 33.3555H27.5006C26.5802 33.3555 25.834 34.1067 25.834 35.0331V40.0654C25.834 40.9918 26.5802 41.743 27.5006 41.743H32.5006C33.4211 41.743 34.1673 40.9918 34.1673 40.0654V35.0331Z" fill="#191C1E"/>
<path fill-rule="evenodd" clip-rule="evenodd" d="M34.1673 45.0956C34.1673 44.1692 33.4211 43.418 32.5006 43.418H27.5006C26.5802 43.418 25.834 44.1692 25.834 45.0956V50.1279C25.834 51.0543 26.5802 51.8055 27.5006 51.8055H32.5006C33.4211 51.8055 34.1673 51.0543 34.1673 50.1279V45.0956Z" fill="#191C1E"/>
<path fill-rule="evenodd" clip-rule="evenodd" d="M44.9993 24.9706C44.9993 24.0442 44.2531 23.293 43.3327 23.293H38.3327C37.4122 23.293 36.666 24.0442 36.666 24.9706V30.0029C36.666 30.9293 37.4122 31.6805 38.3327 31.6805H43.3327C44.2531 31.6805 44.9993 30.9293 44.9993 30.0029V24.9706Z" fill="#191C1E"/>
<path fill-rule="evenodd" clip-rule="evenodd" d="M44.9993 35.0331C44.9993 34.1067 44.2531 33.3555 43.3327 33.3555H38.3327C37.4122 33.3555 36.666 34.1067 36.666 35.0331V50.1301C36.666 51.0565 37.4122 51.8077 38.3327 51.8077H43.3327C44.2531 51.8077 44.9993 51.0565 44.9993 50.1301V35.0331Z" fill="#191C1E"/>
</svg>
