<svg width="60" height="60" viewBox="0 0 60 60" fill="none" xmlns="http://www.w3.org/2000/svg">
<path d="M50.999 33.1003C50.999 33.8093 50.2757 34.2977 49.5806 34.1578C48.5421 33.9487 47.4673 33.9471 46.4189 34.1584C44.8679 34.4712 43.444 35.2369 42.3281 36.3586C41.2124 37.4804 40.454 38.9077 40.1494 40.4602C39.8448 42.0129 40.0078 43.6211 40.6172 45.0813C40.8442 45.6252 41.1295 46.1394 41.4662 46.6158C41.9039 47.235 41.6992 48.1741 40.9812 48.418L31.8187 51.5307C31.1702 51.7511 30.4971 51.2689 30.4971 50.5839V25.91C30.4971 25.4727 30.7811 25.0862 31.1984 24.9556L49.7004 19.1663C50.3444 18.9648 50.999 19.4459 50.999 20.1207V33.1003ZM11.7774 19.8295C12.1946 19.9601 12.4785 20.3466 12.4785 20.7838V31.9592C12.4787 32.1421 12.5353 32.3204 12.6406 32.47C12.7459 32.6194 12.8944 32.7334 13.0664 32.7952L13.2021 32.842C13.3168 32.8812 13.4371 32.8955 13.5557 32.887C13.7539 32.8775 13.9434 32.8001 14.0908 32.6653L17.2679 29.8548C17.7282 29.4477 18.4433 29.5481 18.7737 30.0663L22.2949 35.5901C22.3749 35.7158 22.4848 35.8199 22.6152 35.8918C22.7458 35.9638 22.8929 36.0017 23.042 36.0022C23.1994 36 23.3534 35.9555 23.4883 35.8743C23.6231 35.793 23.7341 35.6775 23.8096 35.5393C23.8124 35.5342 23.8137 35.5279 23.8164 35.5227C23.886 35.3946 23.9238 35.2502 23.9238 35.1018V24.9859C23.9238 24.3114 24.5779 23.8304 25.2218 24.0313L28.0059 24.9003C28.4236 25.0306 28.708 25.4173 28.708 25.8549V50.6052C28.708 51.2797 28.0538 51.7608 27.4099 51.5597L8.89624 45.778C8.47867 45.6476 8.19434 45.261 8.19434 44.8235V20.0684C8.19434 19.3935 8.84916 18.9124 9.49322 19.1141L11.7774 19.8295ZM27.5608 17.7097C28.3595 18.069 28.3433 19.2086 27.5348 19.545L22.6758 21.5667C22.5666 21.6115 22.4669 21.6781 22.3838 21.762C22.3009 21.8457 22.2352 21.9455 22.1914 22.0549C22.1476 22.1645 22.1266 22.2826 22.1289 22.4006C22.1294 22.4272 22.1314 22.4536 22.1346 22.4799C22.1446 22.5631 22.1582 22.6462 22.1582 22.73V28.6647C22.1582 29.6647 20.8527 30.0455 20.315 29.2024L19.127 27.3391C19.0922 27.2689 19.049 27.2024 18.9961 27.1428C18.84 26.9673 18.6202 26.8607 18.3857 26.8469C18.1513 26.8332 17.9206 26.9126 17.7451 27.0686L15.9061 28.6969C15.2607 29.2682 14.2432 28.8101 14.2432 27.9482V20.4476C14.2432 20.3501 14.3129 20.2694 14.4023 20.2307L23.7669 16.3483C24.0216 16.2427 24.3086 16.247 24.5601 16.3601L27.5608 17.7097ZM35.8985 11.7688C35.9569 11.7935 36.0121 11.8251 36.068 11.8549C36.0991 11.8715 36.1311 11.8862 36.1641 11.8987L46.7963 16.3723C47.6558 16.7339 47.5963 17.9711 46.7062 18.2487L29.9683 23.4678C29.774 23.5283 29.5659 23.5282 29.3717 23.4674L28.2144 23.1049C27.3249 22.8262 27.2667 21.5894 28.1262 21.2286L31.9261 19.6331C32.005 19.6 32.0886 19.58 32.1708 19.5563C32.2872 19.5227 32.3964 19.4661 32.4902 19.387C32.6432 19.2579 32.7481 19.0803 32.7871 18.884C32.8078 18.7799 32.8069 18.6738 32.79 18.5706C32.7802 18.4917 32.7607 18.4137 32.7295 18.3391C32.639 18.123 32.4668 17.9514 32.25 17.8625C32.2301 17.8544 32.2098 17.8469 32.1894 17.8403C32.1106 17.8144 32.0301 17.7926 31.9544 17.7585L24.5469 14.4221C24.4353 14.38 24.3173 14.3618 24.2002 14.3665C24.0674 14.3553 23.9321 14.3729 23.8057 14.4221L13.8702 18.5539C13.7926 18.5862 13.7059 18.58 13.626 18.554L12.5296 18.2123C11.6376 17.9342 11.5802 16.6935 12.4428 16.3344L29.313 9.31087C29.5607 9.20775 29.8394 9.20849 30.0866 9.31292L35.8985 11.7688Z" fill="#191C1E"/>
<path d="M46.6158 35.1384C47.9729 34.8647 49.3812 34.9997 50.6617 35.5261C51.942 36.0526 53.0379 36.9465 53.8101 38.0955C54.5822 39.2445 54.9958 40.5969 54.9995 41.9812C55.002 43.837 54.2683 45.6186 52.9595 46.9343C51.6507 48.2499 49.8738 48.9924 48.0181 48.9998C46.6336 49.0034 45.2787 48.597 44.1255 47.8308C42.9725 47.0647 42.0727 45.9736 41.5396 44.696C41.0065 43.4185 40.864 42.0115 41.1304 40.6531C41.3969 39.2945 42.0603 38.0448 43.0367 37.0632C44.013 36.0817 45.2587 35.4121 46.6158 35.1384Z" fill="#005AA3"/>
<path d="M51.3936 39.458C51.5729 39.4612 51.7442 39.5333 51.8711 39.6602C51.9979 39.787 52.071 39.9584 52.0742 40.1377C52.0774 40.3171 52.01 40.4908 51.8877 40.6221L47.7822 44.7402C47.7793 44.7434 47.7775 44.7479 47.7744 44.751C47.6425 44.8761 47.467 44.9451 47.2852 44.9443L47.2842 44.9434C47.25 44.943 47.2161 44.9408 47.1826 44.9355C47.0367 44.9158 46.8992 44.8534 46.791 44.751L44.3525 42.3037C44.2303 42.1725 44.164 41.9986 44.167 41.8193C44.1702 41.6399 44.2432 41.4687 44.3701 41.3418C44.497 41.2149 44.6682 41.1418 44.8477 41.1387C45.0269 41.1356 45.2009 41.202 45.332 41.3242L47.2783 43.2734L50.9092 39.6436C51.0405 39.5212 51.2141 39.4548 51.3936 39.458Z" fill="white"/>
</svg>
