<svg width="60" height="60" viewBox="0 0 60 60" fill="none" xmlns="http://www.w3.org/2000/svg">
<g clip-path="url(#clip0_3127_69127)">
<path fill-rule="evenodd" clip-rule="evenodd" d="M30 18C31.6569 18 33 19.4327 33 21.2V30.8C33 32.5673 31.6569 34 30 34C28.3431 34 27 32.5673 27 30.8V21.2C27 19.4327 28.3431 18 30 18Z" fill="#005AA3"/>
<path fill-rule="evenodd" clip-rule="evenodd" d="M27 39C27 37.3431 28.3365 36 29.9851 36H30.0149C31.6635 36 33 37.3431 33 39C33 40.6569 31.6635 42 30.0149 42H29.9851C28.3365 42 27 40.6569 27 39Z" fill="#005AA3"/>
<path d="M42.0271 17.1342C38.7496 14.0654 34.4963 12.3831 29.9841 12.3871C21.8635 12.3942 14.8529 17.9622 12.9173 25.6859C12.7764 26.2481 12.2754 26.6452 11.6958 26.6452H5.68822C4.90214 26.6452 4.30498 25.9315 4.45039 25.159C6.71878 13.113 17.2949 4 30 4C36.9663 4 43.2926 6.74006 47.9604 11.2008L51.7048 7.45653C53.2898 5.87148 56 6.99409 56 9.23575V23.2903C56 24.68 54.8735 25.8065 53.4839 25.8065H39.4293C37.1876 25.8065 36.065 23.0963 37.6501 21.5111L42.0271 17.1342ZM6.51613 34.1935H20.5707C22.8124 34.1935 23.935 36.9037 22.3499 38.4889L17.9729 42.8659C21.2504 45.9349 25.504 47.6171 30.0164 47.613C38.1328 47.6057 45.1462 42.0415 47.0827 34.3143C47.2236 33.7521 47.7246 33.355 48.3042 33.355H54.3119C55.098 33.355 55.6951 34.0687 55.5497 34.8412C53.2812 46.887 42.7051 56 30 56C23.0337 56 16.7074 53.2599 12.0396 48.7992L8.29524 52.5435C6.71019 54.1285 4 53.0059 4 50.7642V36.7097C4 35.32 5.12649 34.1935 6.51613 34.1935Z" fill="#191C1E"/>
</g>
<defs>
<clipPath id="clip0_3127_69127">
<rect width="60" height="60" fill="white"/>
</clipPath>
</defs>
</svg>
