<svg width="60" height="60" viewBox="0 0 60 60" fill="none" xmlns="http://www.w3.org/2000/svg">
<path d="M11.5625 26.95C11.3078 27.1674 11.0121 27.3315 10.6928 27.4324C10.3735 27.5334 10.0372 27.5692 9.70378 27.5377C9.3704 27.5062 9.04674 27.408 8.75202 27.249C8.4573 27.09 8.19754 26.8734 7.98814 26.612C7.77874 26.3507 7.62397 26.05 7.53303 25.7277C7.4421 25.4054 7.41683 25.0681 7.45875 24.7359C7.50066 24.4036 7.6089 24.0832 7.77703 23.7936C7.94516 23.504 8.16976 23.2511 8.43751 23.05L20.9375 13.05C21.2827 12.7736 21.6951 12.5937 22.1325 12.5287C22.57 12.4637 23.0168 12.5159 23.4275 12.68L34.7075 17.19L48.6125 7.91995C49.1642 7.55197 49.8394 7.41819 50.4897 7.54806C51.14 7.67793 51.712 8.0608 52.08 8.61245C52.448 9.16411 52.5818 9.83934 52.4519 10.4896C52.322 11.1399 51.9392 11.712 51.3875 12.08L36.3875 22.08C36.05 22.3047 35.6629 22.444 35.2596 22.4858C34.8563 22.5276 34.4489 22.4707 34.0725 22.32L22.9225 17.8625L11.5625 26.9525V26.95Z" fill="#005AA3"/>
<path d="M12.5004 50.0004C12.5004 50.6634 12.237 51.2993 11.7681 51.7681C11.2993 52.237 10.6634 52.5004 10.0004 52.5004C9.33732 52.5004 8.70144 52.237 8.2326 51.7681C7.76376 51.2993 7.50037 50.6634 7.50037 50.0004V35.0004C7.50037 34.3373 7.76376 33.7014 8.2326 33.2326C8.70144 32.7638 9.33732 32.5004 10.0004 32.5004C10.6634 32.5004 11.2993 32.7638 11.7681 33.2326C12.237 33.7014 12.5004 34.3373 12.5004 35.0004V50.0004ZM25.0004 50.0004C25.0004 50.6634 24.737 51.2993 24.2681 51.7681C23.7993 52.237 23.1634 52.5004 22.5004 52.5004C21.8373 52.5004 21.2014 52.237 20.7326 51.7681C20.2638 51.2993 20.0004 50.6634 20.0004 50.0004V27.5004C20.0004 26.8373 20.2638 26.2014 20.7326 25.7326C21.2014 25.2638 21.8373 25.0004 22.5004 25.0004C23.1634 25.0004 23.7993 25.2638 24.2681 25.7326C24.737 26.2014 25.0004 26.8373 25.0004 27.5004V50.0004ZM37.5004 50.0004C37.5004 50.6634 37.237 51.2993 36.7681 51.7681C36.2993 52.237 35.6634 52.5004 35.0004 52.5004C34.3373 52.5004 33.7014 52.237 33.2326 51.7681C32.7638 51.2993 32.5004 50.6634 32.5004 50.0004V30.0004C32.5004 29.3373 32.7638 28.7014 33.2326 28.2326C33.7014 27.7638 34.3373 27.5004 35.0004 27.5004C35.6634 27.5004 36.2993 27.7638 36.7681 28.2326C37.237 28.7014 37.5004 29.3373 37.5004 30.0004V50.0004ZM50.0004 50.0004C50.0004 50.6634 49.737 51.2993 49.2681 51.7681C48.7993 52.237 48.1634 52.5004 47.5004 52.5004C46.8373 52.5004 46.2014 52.237 45.7326 51.7681C45.2638 51.2993 45.0004 50.6634 45.0004 50.0004V22.5004C45.0004 21.8373 45.2638 21.2014 45.7326 20.7326C46.2014 20.2638 46.8373 20.0004 47.5004 20.0004C48.1634 20.0004 48.7993 20.2638 49.2681 20.7326C49.737 21.2014 50.0004 21.8373 50.0004 22.5004V50.0004Z" fill="#191C1E"/>
</svg>
