<svg width="60" height="60" viewBox="0 0 60 60" fill="none" xmlns="http://www.w3.org/2000/svg">
<path d="M35.3571 17.2115V2.14453H20.0893C17.2785 2.14453 15 4.39309 15 7.16685V26.2752C16.6178 25.8237 18.325 25.582 20.0893 25.582C24.0841 25.582 27.7857 26.8208 30.8212 28.9302H47.2321C48.1689 28.9302 48.9286 29.6799 48.9286 30.6044C48.9286 31.5288 48.1689 32.2785 47.2321 32.2785H34.4846C35.3452 33.3067 36.0948 34.4287 36.7153 35.6267H47.2321C48.1689 35.6267 48.9286 36.3763 48.9286 37.3008C48.9286 38.2252 48.1689 38.9749 47.2321 38.9749H38.0477C38.3568 40.054 38.5688 41.1733 38.674 42.3231H47.2321C48.1689 42.3231 48.9286 43.0728 48.9286 43.9972C48.9286 44.9217 48.1689 45.6713 47.2321 45.6713H38.674C38.3269 49.4699 36.8113 52.9356 34.4846 55.716H50.625C53.4356 55.716 55.7143 53.4673 55.7143 50.6936V22.2338H40.4464C37.6358 22.2338 35.3571 19.9853 35.3571 17.2115ZM38.75 17.2115V2.98158L54.8661 18.8856H40.4464C39.5097 18.8856 38.75 18.1361 38.75 17.2115Z" fill="#191C1E"/>
<path d="M19.2852 30C27.5694 30 34.2852 36.7157 34.2852 45C34.2852 53.2842 27.5694 60 19.2852 60C11.0009 60 4.28516 53.2842 4.28516 45C4.28516 36.7157 11.0009 30 19.2852 30ZM24.1147 40.4545L17.4102 47.1589L14.4557 44.2045C14.0163 43.7652 13.304 43.7652 12.8647 44.2045C12.4253 44.6439 12.4253 45.3561 12.8647 45.7954L16.6147 49.5455C17.0541 49.9848 17.7663 49.9848 18.2056 49.5455L25.7056 42.0455C26.145 41.6062 26.145 40.8938 25.7056 40.4545C25.2663 40.0152 24.5541 40.0152 24.1147 40.4545Z" fill="#005AA3"/>
</svg>
