<svg width="60" height="60" viewBox="0 0 60 60" fill="none" xmlns="http://www.w3.org/2000/svg">
<path fill-rule="evenodd" clip-rule="evenodd" d="M30 28C24.4769 28 20 23.5231 20 18C20 12.4769 24.4769 8 30 8C35.5231 8 40 12.4769 40 18C40 23.5231 35.5231 28 30 28ZM26.5625 17.5238V18.6537H27.665V20.2837H26.5625V21.3494H27.665V23.625H28.9075V21.3494H31.4075V20.2837H28.9075V18.6537H30.4756C30.9533 18.6578 31.4291 18.5925 31.8881 18.46C32.3231 18.3306 32.7006 18.135 33.0219 17.8706C33.3431 17.6075 33.5969 17.2769 33.7831 16.8781C33.9694 16.48 34.0625 16.0119 34.0625 15.4738C34.0625 14.9363 33.975 14.4738 33.7987 14.0862C33.6225 13.6988 33.3794 13.3781 33.0688 13.1256C32.7581 12.8731 32.3856 12.6844 31.9506 12.5606C31.4803 12.4322 30.9944 12.3697 30.5069 12.375H27.665V17.5238H26.5625ZM30.5062 17.5238H28.9075V13.505H30.5069C31.2206 13.505 31.7825 13.6613 32.1912 13.9731C32.6 14.285 32.805 14.7856 32.805 15.4738C32.805 16.1625 32.6 16.6763 32.1912 17.0156C31.7825 17.3544 31.2206 17.5238 30.5069 17.5238H30.5062Z" fill="#005AA3"/>
<path d="M54 24C55.1046 24 56 24.8954 56 26V51C56 52.1046 55.1046 53 54 53H6C4.89543 53 4 52.1046 4 51V26C4 24.8954 4.89543 24 6 24H19.6094C21.6845 27.5859 25.559 30 30 30C34.441 30 38.3155 27.5859 40.3906 24H54ZM7 48H17V46H7V48ZM19 48H29V46H19V48ZM31 48H41V46H31V48ZM43 48H53V46H43V48Z" fill="#191C1E"/>
</svg>
