<svg xmlns="http://www.w3.org/2000/svg" fill="none" viewBox="0 0 33 32">
  <path fill="#CD0E10" d="M25.692 6.808A12.915 12.915 0 0 0 16.5 3a12.915 12.915 0 0 0-9.192 3.808A12.915 12.915 0 0 0 3.5 16c0 3.472 1.352 6.737 3.808 9.192A12.915 12.915 0 0 0 16.5 29c3.472 0 6.737-1.352 9.192-3.808A12.915 12.915 0 0 0 29.5 16c0-3.472-1.352-6.737-3.808-9.192ZM16.5 26.899C10.49 26.9 5.6 22.01 5.6 16c0-6.01 4.89-10.9 10.9-10.9 6.01 0 10.9 4.89 10.9 10.9 0 6.01-4.89 10.9-10.9 10.9Z"/>
  <path fill="#CD0E10" d="M21.282 14.95h-9.56a1.05 1.05 0 0 0 0 2.1h9.56a1.05 1.05 0 1 0 0-2.1Z"/>
</svg>
