<svg width="64" height="64" viewBox="0 0 64 64" fill="none" xmlns="http://www.w3.org/2000/svg">
<path d="M31.1055 37.8475C30.6326 37.1554 30.4163 36.3199 30.4939 35.4853C30.5715 34.6506 30.9381 33.8693 31.5305 33.2762L33.419 31.3881C34.0119 30.7954 34.7933 30.4286 35.6281 30.3511C36.4628 30.2735 37.2984 30.4902 37.9903 30.9635L39.9253 32.2871C39.9472 32.1891 39.9776 32.0931 40.0161 32.0002C40.274 31.4602 41.4893 28.7517 41.7017 28.4052C42.0222 27.8817 42.4717 27.4492 43.0071 27.149C43.5425 26.8488 44.146 26.6909 44.7598 26.6905H47.4298C47.6225 26.692 47.8148 26.7091 48.0048 26.7415C48.0297 26.616 48.0425 26.4883 48.0431 26.3603V22.6592C48.0429 22.1888 47.8784 21.7332 47.5779 21.3713C47.2774 21.0093 46.86 20.7637 46.3976 20.6768L42.1085 19.8721C41.7932 19.8158 41.4982 19.6777 41.2529 19.4717C41.0076 19.2657 40.8206 18.999 40.7105 18.6981C40.508 18.127 40.2763 17.5666 40.0161 17.0193C39.8824 16.7286 39.8269 16.408 39.8551 16.0893C39.8834 15.7705 39.9945 15.4647 40.1773 15.202L42.6392 11.602C42.9044 11.2136 43.0257 10.7447 42.9822 10.2764C42.9387 9.8081 42.7331 9.36963 42.4009 9.03664L39.7837 6.41994C39.4509 6.08745 39.0125 5.88163 38.5441 5.83803C38.0757 5.79442 37.6067 5.91579 37.2183 6.18114L33.6183 8.64404C33.3557 8.82708 33.0498 8.93816 32.7309 8.96623C32.4121 8.9943 32.0914 8.93839 31.8009 8.80404C31.2533 8.54389 30.6926 8.31244 30.1209 8.11064C29.8202 8.00001 29.5537 7.81259 29.3479 7.56704C29.1421 7.32148 29.0042 7.02634 28.9478 6.71094L28.1431 2.42284C28.0568 1.96045 27.8114 1.54281 27.4496 1.24229C27.0877 0.941769 26.6321 0.777289 26.1617 0.777344H22.4605C21.9902 0.777561 21.5346 0.942067 21.1727 1.24244C20.8107 1.54281 20.565 1.96019 20.4781 2.42244L19.6734 6.71094C19.6169 7.02634 19.4789 7.32145 19.273 7.56696C19.0671 7.81246 18.8005 7.9998 18.4998 8.11034C17.9285 8.31189 17.3681 8.54334 16.8211 8.80374C16.5304 8.93785 16.2096 8.99363 15.8907 8.96557C15.5717 8.9375 15.2657 8.82656 15.0028 8.64374L11.4028 6.18084C11.0143 5.91572 10.5454 5.79451 10.077 5.8381C9.6087 5.88169 9.17024 6.08737 8.83731 6.41964L6.22121 9.03664C5.8889 9.36952 5.68317 9.80793 5.6395 10.2763C5.59583 10.7446 5.71697 11.2135 5.98201 11.602L8.44491 15.202C8.62781 15.4648 8.7388 15.7708 8.76686 16.0896C8.79493 16.4085 8.7391 16.7292 8.60491 17.0198C8.34435 17.5671 8.1126 18.1276 7.91061 18.699C7.80034 18.9997 7.6132 19.2662 7.36785 19.4721C7.12249 19.6779 6.82748 19.8158 6.51221 19.8721L2.22421 20.6768C1.76182 20.7636 1.34428 21.0092 1.04379 21.3712C0.743298 21.7332 0.578755 22.1888 0.578613 22.6592V26.3603C0.578751 26.8308 0.743291 27.2864 1.04378 27.6485C1.34427 28.0105 1.76181 28.2561 2.22421 28.3428L6.51131 29.147C6.82693 29.2034 7.12225 29.3415 7.36781 29.5477C7.61336 29.7538 7.80056 30.0208 7.91071 30.3218C8.11286 30.8929 8.34461 31.4531 8.60501 32C8.73919 32.2907 8.79502 32.6114 8.76695 32.9303C8.73888 33.2492 8.6279 33.5552 8.44501 33.8179L5.98211 37.4179C5.7168 37.8063 5.59551 38.2752 5.63918 38.7435C5.68286 39.2119 5.88876 39.6502 6.22131 39.9828L8.83751 42.6C9.17033 42.9326 9.60885 43.1384 10.0773 43.1819C10.5457 43.2254 11.0147 43.1039 11.403 42.8383L15.003 40.3759C15.266 40.1935 15.5721 40.0828 15.8909 40.0547C16.2098 40.0266 16.5305 40.0822 16.8213 40.2159C17.3682 40.4767 17.9286 40.7083 18.5 40.9098C18.8008 41.0203 19.0674 41.2077 19.2734 41.4532C19.4793 41.6987 19.6174 41.9938 19.6739 42.3092L20.4786 46.5978C20.5656 47.0601 20.8113 47.4774 21.1732 47.7778C21.5352 48.0781 21.9907 48.2426 22.461 48.2428H26.1622C26.4273 48.2414 26.6894 48.1874 26.9334 48.0838C26.8703 47.8232 26.8367 47.5564 26.8334 47.2882V44.6182C26.8336 44.0167 26.9847 43.4248 27.2728 42.8967C27.5609 42.3687 27.9769 41.9213 28.4826 41.5955C29.8239 40.9885 31.2055 40.4748 32.6175 40.0581L31.1055 37.8475ZM24.3108 32.1175C22.8061 32.1176 21.3352 31.6714 20.0841 30.8354C18.833 29.9995 17.8579 28.8113 17.282 27.4211C16.7062 26.031 16.5555 24.5013 16.8491 23.0255C17.1427 21.5497 17.8672 20.1942 18.9312 19.1302C19.9952 18.0662 21.3508 17.3416 22.8266 17.0481C24.3024 16.7546 25.8321 16.9053 27.2222 17.4811C28.6124 18.0569 29.8005 19.0321 30.6365 20.2832C31.4724 21.5343 31.9186 23.0053 31.9185 24.5099C31.9184 26.5276 31.1169 28.4626 29.6902 29.8892C28.2635 31.3159 26.3285 32.1175 24.3108 32.1175Z" fill="#191C1E"/>
<path d="M61.9639 43.5422L58.8697 42.9622C58.5799 42.91 58.3088 42.7826 58.0837 42.5929C57.8585 42.4031 57.687 42.1575 57.5865 41.8807C57.4454 41.4803 57.2833 41.0876 57.1007 40.7043C56.9766 40.4377 56.9245 40.1432 56.9496 39.8502C56.9748 39.5572 57.0763 39.2759 57.244 39.0343L59.0208 36.437C59.1649 36.2263 59.2309 35.9719 59.2073 35.7177C59.1836 35.4635 59.0719 35.2256 58.8914 35.0451L57.0032 33.157C56.8227 32.9765 56.5848 32.8648 56.3307 32.8411C56.0765 32.8175 55.8221 32.8835 55.6114 33.0276L53.014 34.8042C52.7725 34.972 52.4912 35.0736 52.1981 35.0987C51.9051 35.1239 51.6106 35.0717 51.344 34.9475C50.9607 34.7652 50.568 34.6031 50.1677 34.4618C49.8909 34.3613 49.6453 34.1899 49.4555 33.9647C49.2657 33.7395 49.1384 33.4684 49.0862 33.1785L48.5056 30.0842C48.4585 29.8333 48.3252 29.6068 48.1288 29.4438C47.9324 29.2807 47.6852 29.1915 47.4299 29.1914H44.7596C44.5044 29.1915 44.2571 29.2807 44.0607 29.4438C43.8643 29.6068 43.731 29.8333 43.6839 30.0842L43.1033 33.1785C43.0512 33.4683 42.9239 33.7394 42.7341 33.9646C42.5444 34.1898 42.2988 34.3612 42.022 34.4617C41.6217 34.6031 41.229 34.7652 40.8455 34.9475C40.5789 35.0717 40.2844 35.1238 39.9914 35.0987C39.6984 35.0735 39.4171 34.972 39.1755 34.8042L36.5783 33.0276C36.3676 32.8835 36.1132 32.8175 35.859 32.8411C35.6048 32.8648 35.3668 32.9765 35.1863 33.157L33.2982 35.0448C33.1177 35.2253 33.006 35.4632 32.9824 35.7174C32.9588 35.9716 33.0247 36.226 33.1688 36.4367L34.9456 39.0339C35.1134 39.2755 35.2149 39.5568 35.24 39.8498C35.2652 40.1428 35.2131 40.4373 35.0889 40.7039C34.9064 41.0872 34.7442 41.4799 34.6031 41.8803C34.5026 42.1571 34.3311 42.4027 34.1059 42.5925C33.8806 42.7823 33.6095 42.9097 33.3196 42.9618L30.2254 43.5418C29.9745 43.5889 29.7479 43.7222 29.5849 43.9187C29.4218 44.1151 29.3326 44.3624 29.3325 44.6177V47.2877C29.3325 47.543 29.4218 47.7903 29.5848 47.9867C29.7479 48.1832 29.9745 48.3165 30.2254 48.3635L33.3196 48.9435C33.6095 48.9957 33.8805 49.1231 34.1057 49.3129C34.3309 49.5027 34.5023 49.7483 34.6028 50.0251C34.7439 50.4255 34.9061 50.8181 35.0886 51.2014C35.2128 51.468 35.2649 51.7625 35.2398 52.0555C35.2146 52.3486 35.1131 52.6299 34.9453 52.8714L33.1685 55.4687C33.0244 55.6794 32.9585 55.9338 32.9821 56.188C33.0057 56.4422 33.1174 56.6801 33.2979 56.8606L35.1861 58.7488C35.3666 58.9293 35.6046 59.0411 35.8588 59.0647C36.113 59.0883 36.3674 59.0224 36.5781 58.8782L39.1753 57.1016C39.4168 56.9338 39.6982 56.8322 39.9912 56.8071C40.2842 56.7819 40.5787 56.834 40.8453 56.9582C41.2287 57.1406 41.6214 57.3027 42.0218 57.444C42.2986 57.5445 42.5442 57.716 42.7339 57.9412C42.9237 58.1664 43.051 58.4375 43.1031 58.7273L43.6837 61.8215C43.7308 62.0724 43.8641 62.2989 44.0605 62.462C44.2569 62.625 44.5042 62.7142 44.7594 62.7142H47.4294C47.6847 62.7142 47.9319 62.625 48.1283 62.462C48.3248 62.299 48.458 62.0725 48.5051 61.8216L49.0857 58.7272C49.1379 58.4374 49.2652 58.1663 49.4549 57.9412C49.6447 57.716 49.8902 57.5445 50.167 57.444C50.5674 57.3028 50.9601 57.1406 51.3435 56.9582C51.6101 56.834 51.9046 56.7819 52.1977 56.8071C52.4907 56.8322 52.772 56.9338 53.0135 57.1016L55.6112 58.8788C55.8219 59.0229 56.0764 59.0889 56.3306 59.0652C56.5848 59.0416 56.8227 58.9299 57.0032 58.7494L58.8914 56.8612C59.0719 56.6807 59.1836 56.4428 59.2073 56.1887C59.2309 55.9345 59.1649 55.6801 59.0208 55.4694L57.244 52.872C57.0763 52.6304 56.9748 52.3491 56.9497 52.0561C56.9245 51.7631 56.9767 51.4686 57.1009 51.202C57.2833 50.8187 57.4454 50.4261 57.5865 50.0257C57.6871 49.749 57.8585 49.5035 58.0837 49.3137C58.3088 49.124 58.5798 48.9967 58.8696 48.9445L61.9638 48.3645C62.2148 48.3175 62.4414 48.1842 62.6044 47.9878C62.7675 47.7913 62.8567 47.544 62.8567 47.2887V44.6187C62.8569 44.3633 62.7677 44.1159 62.6047 43.9193C62.4416 43.7227 62.215 43.5893 61.9639 43.5422ZM46.0948 52.1657C44.8661 52.1657 43.665 51.8013 42.6434 51.1187C41.6218 50.436 40.8255 49.4658 40.3553 48.3306C39.8851 47.1954 39.7621 45.9463 40.0018 44.7412C40.2415 43.5361 40.8332 42.4291 41.702 41.5603C42.5708 40.6915 43.6778 40.0998 44.8829 39.8601C46.088 39.6204 47.3371 39.7434 48.4723 40.2136C49.6075 40.6838 50.5777 41.48 51.2604 42.5017C51.943 43.5233 52.3074 44.7244 52.3074 45.9531C52.3074 46.769 52.1467 47.5768 51.8345 48.3306C51.5223 49.0843 51.0647 49.7692 50.4878 50.3461C49.9109 50.923 49.226 51.3806 48.4723 51.6928C47.7185 52.005 46.9107 52.1657 46.0948 52.1657Z" fill="#005AA3"/>
</svg>
