<svg width="60" height="60" viewBox="0 0 60 60" fill="none" xmlns="http://www.w3.org/2000/svg">
<path d="M5 26.25C5 15.8947 13.3947 7.5 23.75 7.5C34.1052 7.5 42.5 15.8947 42.5 26.25C42.5 36.6053 34.1052 45 23.75 45C21.0007 45 18.3853 44.407 16.0286 43.3408C12.8829 44.0668 9.49563 44.6912 7.93735 44.9688C6.21835 45.2748 4.7211 43.7658 5.05435 42.0433C5.34885 40.5213 6.0031 37.25 6.7584 34.1873C5.62983 31.775 5 29.0838 5 26.25ZM20.36 15.7681C19.2561 16.3578 18.3856 17.2753 17.7264 18.4911C17.2329 19.4015 17.5707 20.5396 18.4811 21.0331C19.3914 21.5267 20.5295 21.1888 21.0231 20.2784C21.3889 19.6037 21.7684 19.2673 22.127 19.0757C22.5044 18.8741 23.0117 18.7519 23.7498 18.7518C24.3088 18.7518 24.9679 18.9496 25.452 19.3463C25.8783 19.6956 26.2498 20.2574 26.2498 21.25C26.2498 21.7371 26.062 21.9617 24.7787 22.9702C23.6529 23.8549 21.8748 25.29 21.8748 28.125C21.8748 29.1605 22.7142 30 23.7498 30C24.7853 30 25.6248 29.1605 25.6248 28.125C25.6248 27.1988 26.0343 26.753 27.0957 25.9188C27.161 25.8675 27.232 25.813 27.3073 25.755C28.278 25.0093 29.9998 23.6865 29.9998 21.25C29.9998 19.1297 29.1213 17.5048 27.8288 16.4457C26.5942 15.4341 25.0658 15.0018 23.7496 15.0018C22.6128 15.0019 21.4451 15.1884 20.36 15.7681ZM26.2502 35.0003C26.2502 33.6193 25.131 32.5 23.7502 32.5C22.3694 32.5 21.25 33.6193 21.25 35.0003C21.25 36.381 22.3694 37.5003 23.7502 37.5003C25.131 37.5003 26.2502 36.381 26.2502 35.0003Z" fill="#191C1E"/>
<path d="M23.501 47.4998C26.8465 50.6035 31.3268 52.501 36.2503 52.501C38.9995 52.501 41.615 51.9083 43.9718 50.842C47.1215 51.568 50.5255 52.19 52.0913 52.466C53.8145 52.77 55.3105 51.2515 54.9678 49.5273C54.6655 48.006 53.9975 44.7438 53.242 41.688C54.3705 39.2758 55.0002 36.5848 55.0002 33.751C55.0002 25.5438 49.727 18.5682 42.3838 16.0273C44.0515 19.0606 45.0002 22.5451 45.0002 26.2513C45.0002 37.9873 35.4863 47.501 23.7503 47.501C23.6671 47.501 23.584 47.5008 23.501 47.4998Z" fill="#005AA3"/>
</svg>
