<svg width="60" height="60" viewBox="0 0 60 60" fill="none" xmlns="http://www.w3.org/2000/svg">
<path d="M6 27.6008C6 24.9608 8.16 22.8008 10.8 22.8008H49.2C50.473 22.8008 51.6939 23.3065 52.5941 24.2067C53.4943 25.1068 54 26.3277 54 27.6008V32.4008C54 33.6738 53.4943 34.8947 52.5941 35.7949C51.6939 36.6951 50.473 37.2008 49.2 37.2008H10.8C9.52696 37.2008 8.30606 36.6951 7.40589 35.7949C6.50571 34.8947 6 33.6738 6 32.4008V27.6008ZM6 44.4008C6 41.7608 8.16 39.6008 10.8 39.6008H49.2C50.473 39.6008 51.6939 40.1065 52.5941 41.0067C53.4943 41.9068 54 43.1277 54 44.4008V49.2008C54 50.4738 53.4943 51.6947 52.5941 52.5949C51.6939 53.4951 50.473 54.0008 49.2 54.0008H10.8C9.52696 54.0008 8.30606 53.4951 7.40589 52.5949C6.50571 51.6947 6 50.4738 6 49.2008V44.4008ZM34.8 27.6008V32.4008H39.6V27.6008H34.8ZM44.4 27.6008V32.4008H49.2V27.6008H44.4ZM34.8 44.4008V49.2008H39.6V44.4008H34.8ZM44.4 44.4008V49.2008H49.2V44.4008H44.4Z" fill="#191C1E"/>
<path d="M6 10.8C6 8.16 8.16 6 10.8 6H49.2C50.473 6 51.6939 6.50571 52.5941 7.40589C53.4943 8.30606 54 9.52696 54 10.8V15.6C54 16.873 53.4943 18.0939 52.5941 18.9941C51.6939 19.8943 50.473 20.4 49.2 20.4H10.8C9.52696 20.4 8.30606 19.8943 7.40589 18.9941C6.50571 18.0939 6 16.873 6 15.6V10.8ZM34.8 10.8V15.6H39.6V10.8H34.8ZM44.4 10.8V15.6H49.2V10.8H44.4Z" fill="#005AA3"/>
</svg>
