<svg width="60" height="60" viewBox="0 0 60 60" fill="none" xmlns="http://www.w3.org/2000/svg">
<path d="M32.8582 53.9727H17.8242C17.3891 53.9727 16.9718 54.1455 16.6641 54.4532C16.3564 54.7609 16.1836 55.1782 16.1836 55.6133C16.1836 56.0484 16.3564 56.4657 16.6641 56.7734C16.9718 57.0811 17.3891 57.2539 17.8242 57.2539H32.8582C33.2933 57.2539 33.7106 57.0811 34.0183 56.7734C34.3259 56.4657 34.4988 56.0484 34.4988 55.6133C34.4988 55.1782 34.3259 54.7609 34.0183 54.4532C33.7106 54.1455 33.2933 53.9727 32.8582 53.9727Z" fill="#191C1E"/>
<path d="M45.1402 23.3595L44.892 22.0376L43.7824 22.797C43.2281 23.1764 42.5586 23.35 41.8898 23.288C41.221 23.2259 40.5949 22.9319 40.1199 22.457L38.8723 21.2087C38.3976 20.7337 38.1038 20.1078 38.0416 19.4392C37.9795 18.7706 38.1529 18.1013 38.5319 17.5469L39.2912 16.4367L37.9688 16.1887C37.3091 16.0645 36.7134 15.7137 36.2847 15.1971C35.856 14.6805 35.6212 14.0304 35.6207 13.359V11.5942C35.6211 10.9227 35.8559 10.2724 36.2847 9.75569C36.7136 9.23896 37.3094 8.88822 37.9693 8.76405L39.2911 8.51609L38.5318 7.40637C38.2164 6.9417 38.0449 6.39441 38.0387 5.83287C33.641 2.678 28.2229 1.28074 22.848 1.91534C18.3924 2.42463 14.201 4.29063 10.841 7.26075C7.48097 10.2309 5.1147 14.1616 4.06249 18.521C3.01028 22.8804 3.32293 27.4578 4.95813 31.6336C6.59332 35.8094 9.47209 39.3819 13.2047 41.8676C14.137 42.4709 14.9057 43.2953 15.4425 44.2674C15.9794 45.2394 16.2677 46.3291 16.2818 47.4395V49.2307C16.2818 49.5663 16.4151 49.8883 16.6525 50.1256C16.8898 50.363 17.2118 50.4963 17.5474 50.4963H24.1763V33.6776H21.6363C20.2763 33.6776 18.9636 33.1777 17.9481 32.273C16.9327 31.3682 16.2852 30.1217 16.1289 28.7707C15.9726 27.4196 16.3184 26.0583 17.1006 24.9456C17.8827 23.8329 19.0465 23.0465 20.3707 22.7361V20.5301C20.3669 20.3616 20.3968 20.1939 20.4586 20.037C20.5205 19.8802 20.6131 19.7372 20.7309 19.6166C20.8488 19.4961 20.9896 19.4002 21.145 19.3348C21.3004 19.2694 21.4674 19.2357 21.636 19.2357C21.8046 19.2357 21.9716 19.2694 22.127 19.3348C22.2824 19.4002 22.4232 19.4961 22.5411 19.6166C22.6589 19.7372 22.7515 19.8802 22.8134 20.037C22.8752 20.1939 22.9051 20.3616 22.9013 20.5301V23.8557C22.9013 24.0219 22.8686 24.1865 22.805 24.3401C22.7414 24.4936 22.6481 24.6331 22.5306 24.7507C22.4131 24.8682 22.2736 24.9614 22.12 25.025C21.9665 25.0886 21.8019 25.1214 21.6357 25.1214C21.2387 25.1192 20.8451 25.1954 20.4777 25.3458C20.1103 25.4962 19.7763 25.7177 19.4947 25.9977C19.2132 26.2776 18.9898 26.6105 18.8374 26.977C18.685 27.3436 18.6065 27.7367 18.6065 28.1337C18.6065 28.5307 18.685 28.9238 18.8374 29.2904C18.9898 29.6569 19.2132 29.9898 19.4947 30.2697C19.7763 30.5496 20.1103 30.7712 20.4777 30.9216C20.8451 31.072 21.2387 31.1482 21.6357 31.146H29.0468C29.4438 31.1482 29.8373 31.072 30.2047 30.9216C30.5721 30.7712 30.9062 30.5496 31.1877 30.2697C31.4692 29.9898 31.6926 29.6569 31.8451 29.2904C31.9975 28.9238 32.076 28.5307 32.076 28.1337C32.076 27.7367 31.9975 27.3436 31.8451 26.977C31.6926 26.6105 31.4692 26.2776 31.1877 25.9977C30.9062 25.7177 30.5721 25.4962 30.2047 25.3458C29.8373 25.1954 29.4438 25.1192 29.0468 25.1214C28.8806 25.1214 28.716 25.0886 28.5625 25.025C28.4089 24.9614 28.2694 24.8682 28.1519 24.7507C28.0343 24.6331 27.9411 24.4936 27.8775 24.3401C27.8139 24.1865 27.7812 24.0219 27.7812 23.8557V20.5299C27.7771 20.3611 27.8068 20.1933 27.8685 20.0362C27.9302 19.8791 28.0228 19.7359 28.1407 19.6151C28.2586 19.4943 28.3994 19.3983 28.555 19.3327C28.7105 19.2672 28.8776 19.2334 29.0464 19.2334C29.2152 19.2334 29.3823 19.2672 29.5379 19.3327C29.6934 19.3983 29.8343 19.4943 29.9522 19.6151C30.0701 19.7359 30.1626 19.8791 30.2244 20.0362C30.2861 20.1933 30.3158 20.3611 30.3117 20.5299V22.7358C31.6358 23.0462 32.7997 23.8326 33.5818 24.9453C34.3639 26.058 34.7097 27.4193 34.5535 28.7704C34.3972 30.1215 33.7497 31.3679 32.7342 32.2727C31.7187 33.1774 30.4061 33.6773 29.046 33.6773H26.7063V50.496H33.0303C33.1965 50.496 33.3611 50.4633 33.5147 50.3997C33.6682 50.3361 33.8077 50.2429 33.9253 50.1253C34.0428 50.0078 34.136 49.8683 34.1996 49.7147C34.2632 49.5612 34.296 49.3966 34.296 49.2304L34.2968 47.3609C34.3111 46.2827 34.5945 45.2251 35.1211 44.2842C35.6477 43.3432 36.401 42.5486 37.3125 41.9726C40.0873 40.1644 42.4138 37.7481 44.1156 34.9069C45.8174 32.0657 46.8498 28.8743 47.1345 25.5746C46.6312 25.4231 46.1792 25.1365 45.8276 24.7459C45.476 24.3554 45.2382 23.8758 45.1402 23.3595Z" fill="#191C1E"/>
<path d="M59.3378 10.8847L57.2932 10.501C57.1017 10.4665 56.9226 10.3824 56.7738 10.257C56.625 10.1316 56.5118 9.96931 56.4454 9.78641C56.352 9.52187 56.2449 9.26241 56.1243 9.00913C56.0423 8.833 56.0078 8.63845 56.0244 8.44486C56.0409 8.25128 56.1079 8.06541 56.2187 7.90578L57.3926 6.19016C57.4879 6.05092 57.5314 5.88278 57.5158 5.71482C57.5002 5.54686 57.4263 5.38965 57.307 5.27037L56.06 4.02284C55.9407 3.90353 55.7835 3.82967 55.6156 3.81406C55.4476 3.79845 55.2795 3.84206 55.1403 3.93734L53.4242 5.11091C53.2645 5.22174 53.0786 5.28881 52.885 5.30544C52.6913 5.32207 52.4967 5.28768 52.3205 5.20569C52.0672 5.08501 51.8078 4.97783 51.5432 4.88459C51.3604 4.81811 51.1981 4.70484 51.0728 4.55608C50.9474 4.40732 50.8632 4.22827 50.8286 4.03681L50.4453 1.99222C50.4142 1.82643 50.3261 1.67672 50.1963 1.56901C50.0665 1.46129 49.9031 1.40234 49.7344 1.40234H47.9701C47.8014 1.40232 47.638 1.46126 47.5082 1.56898C47.3784 1.6767 47.2903 1.82642 47.2592 1.99222L46.8757 4.03681C46.8412 4.2283 46.757 4.40739 46.6316 4.55616C46.5063 4.70494 46.344 4.81819 46.1611 4.88459C45.8966 4.97791 45.6371 5.08506 45.3838 5.20559C45.2077 5.28761 45.0131 5.32202 44.8195 5.30541C44.6259 5.2888 44.44 5.22173 44.2804 5.11091L42.5642 3.93697C42.425 3.84168 42.2569 3.79807 42.0889 3.81368C41.921 3.8293 41.7638 3.90316 41.6445 4.02247L40.3969 5.26972C40.2776 5.38901 40.2038 5.54624 40.1882 5.71421C40.1726 5.88218 40.2163 6.05031 40.3116 6.1895L41.4855 7.90512C41.5963 8.06475 41.6634 8.25063 41.6799 8.44424C41.6965 8.63785 41.6621 8.83242 41.58 9.00856C41.4596 9.26191 41.3525 9.52135 41.2591 9.78584C41.1927 9.96874 41.0795 10.131 40.9307 10.2564C40.7819 10.3818 40.6028 10.4659 40.4113 10.5004L38.3667 10.884C38.201 10.9151 38.0513 11.0032 37.9435 11.133C37.8358 11.2628 37.7769 11.4262 37.7769 11.5948V13.3603C37.7769 13.529 37.8358 13.6924 37.9435 13.8222C38.0513 13.952 38.2009 14.0401 38.3667 14.0712L40.4113 14.4547C40.6028 14.4892 40.7819 14.5734 40.9306 14.6988C41.0794 14.8242 41.1927 14.9864 41.2591 15.1693C41.3524 15.4338 41.4596 15.6932 41.58 15.9465C41.6621 16.1227 41.6965 16.3172 41.6799 16.5109C41.6634 16.7045 41.5963 16.8903 41.4855 17.05L40.3116 18.7661C40.2163 18.9052 40.1726 19.0734 40.1882 19.2413C40.2038 19.4093 40.2776 19.5665 40.3969 19.6858L41.6445 20.9335C41.7638 21.0527 41.921 21.1265 42.089 21.1421C42.2569 21.1577 42.425 21.1141 42.5642 21.0189L44.2804 19.8449C44.44 19.7341 44.6259 19.667 44.8196 19.6504C45.0132 19.6337 45.2078 19.6682 45.384 19.7502C45.6373 19.8709 45.8967 19.9781 46.1613 20.0713C46.3441 20.1378 46.5064 20.251 46.6317 20.3998C46.7571 20.5486 46.8412 20.7277 46.8757 20.9191L47.2592 22.9637C47.2903 23.1295 47.3784 23.2792 47.5082 23.3869C47.638 23.4946 47.8014 23.5536 47.9701 23.5536H49.7344C49.9031 23.5536 50.0664 23.4946 50.1963 23.3869C50.3261 23.2792 50.4142 23.1295 50.4453 22.9637L50.8286 20.9191C50.8632 20.7277 50.9474 20.5486 51.0728 20.3999C51.1981 20.2511 51.3604 20.1378 51.5432 20.0713C51.8078 19.9781 52.0672 19.8709 52.3205 19.7502C52.4967 19.6682 52.6913 19.6337 52.885 19.6504C53.0786 19.667 53.2646 19.7341 53.4242 19.8449L55.1406 21.0184C55.2798 21.1137 55.4479 21.1572 55.6159 21.1416C55.7838 21.126 55.941 21.0521 56.0603 20.9328L57.3077 19.6853C57.427 19.566 57.5008 19.4088 57.5165 19.2409C57.5321 19.0729 57.4885 18.9048 57.3933 18.7656L56.2187 17.0495C56.1078 16.8899 56.0408 16.704 56.0241 16.5104C56.0075 16.3168 56.0419 16.1222 56.1239 15.9461C56.2445 15.6928 56.3517 15.4334 56.445 15.1689C56.5114 14.986 56.6246 14.8237 56.7734 14.6983C56.9222 14.5728 57.1013 14.4887 57.2928 14.4542L59.3374 14.0708C59.5032 14.0397 59.6529 13.9516 59.7606 13.8218C59.8683 13.6919 59.9273 13.5286 59.9273 13.3599V11.5955C59.9273 11.4269 59.8684 11.2635 59.7607 11.1338C59.6531 11.004 59.5035 10.9159 59.3378 10.8847ZM48.8523 16.2039C48.1153 16.2039 47.3949 15.9853 46.7821 15.5759C46.1694 15.1665 45.6918 14.5845 45.4097 13.9036C45.1277 13.2228 45.0539 12.4736 45.1977 11.7507C45.3415 11.0279 45.6964 10.364 46.2175 9.84288C46.7386 9.32176 47.4025 8.96687 48.1254 8.8231C48.8482 8.67932 49.5974 8.75311 50.2782 9.03514C50.9591 9.31717 51.5411 9.79476 51.9505 10.4075C52.3599 11.0203 52.5785 11.7407 52.5785 12.4777C52.5785 13.4659 52.1859 14.4137 51.4871 15.1125C50.7883 15.8113 49.8405 16.2039 48.8523 16.2039Z" fill="#005AA3"/>
</svg>
