<svg width="60" height="60" viewBox="0 0 60 60" fill="none" xmlns="http://www.w3.org/2000/svg">
<path d="M18.1844 43.1948C16.0613 43.1948 14.0305 42.4564 12.4613 41.1641L6.92285 52.9795L15.6921 49.841L18.9229 58.6102L24.5536 46.6102C23.6305 46.1487 22.8921 45.5948 22.1536 44.8564C21.0459 43.7487 19.6613 43.1948 18.1844 43.1948Z" fill="#191C1E"/>
<path d="M43.754 41.9062C42.3693 42.737 40.8001 43.1986 39.0463 43.1986C37.5693 43.1986 36.1847 43.7524 35.1693 44.8601C34.1539 45.8755 32.954 46.6139 31.5693 47.0755L36.9232 58.6139L40.154 49.8447L48.9232 53.0755L43.754 41.9062Z" fill="#191C1E"/>
<path d="M28.6149 8.76562C20.4919 8.76562 13.8457 15.4118 13.8457 23.5349C13.8457 31.6579 20.4919 38.3041 28.6149 38.3041C36.738 38.3041 43.3842 31.6579 43.3842 23.5349C43.3842 15.4118 36.738 8.76562 28.6149 8.76562ZM35.0765 32.4887L28.6149 29.0733L22.1534 32.4887L23.3534 25.2887L18.0919 20.2118L25.2919 19.1964L28.5226 12.6425L31.7534 19.1964L38.9534 20.2118L33.6919 25.2887L35.0765 32.4887Z" fill="#005AA3"/>
<path d="M39.0462 41.3517C43.1077 41.3517 46.4308 38.0286 46.4308 33.9671C46.4308 32.0286 47.1692 30.0901 48.5539 28.7055C51.4154 25.844 51.4154 21.1363 48.5539 18.2748C47.1692 16.8901 46.4308 15.044 46.4308 13.0132C46.4308 8.95168 43.1077 5.62861 39.0462 5.62861C37.1077 5.62861 35.1692 4.89014 33.7846 3.50553C30.9231 0.64399 26.2154 0.64399 23.3539 3.50553C21.9692 4.89014 20.1231 5.62861 18.0923 5.62861C14.0308 5.62861 10.7077 8.95168 10.7077 13.0132C10.7077 14.9517 9.96925 16.8901 8.58463 18.2748C5.72309 21.2286 5.72309 25.844 8.58463 28.7978C9.96925 30.1825 10.7077 32.0286 10.7077 34.0594C10.7077 38.1209 14.0308 41.444 18.0923 41.444C20.0308 41.444 21.9692 42.1825 23.3539 43.5671C26.2154 46.4286 30.9231 46.4286 33.7846 43.5671C35.2616 42.1825 37.1077 41.3517 39.0462 41.3517ZM28.6154 40.1517C19.4769 40.1517 12 32.6748 12 23.5363C12 14.3978 19.4769 6.92091 28.6154 6.92091C37.7539 6.92091 45.2308 14.3978 45.2308 23.5363C45.2308 32.6748 37.7539 40.1517 28.6154 40.1517Z" fill="#191C1E"/>
</svg>
