<svg width="60" height="60" viewBox="0 0 60 60" fill="none" xmlns="http://www.w3.org/2000/svg">
<g clip-path="url(#clip0_3_34856)">
<path d="M56.9996 23.375L51.2496 18.625V9.375C51.2456 9.13531 51.1728 8.90181 51.0398 8.70234C50.9068 8.50288 50.7193 8.34586 50.4996 8.25L38.1246 2.625H37.6246L36.8746 2.875L29.9996 7.375L23.1246 2.75L22.3746 2.5H21.8746L9.49959 8.25C9.27986 8.34586 9.09233 8.50288 8.95936 8.70234C8.82638 8.90181 8.75356 9.13531 8.74959 9.375V18.625L2.99959 23.375C2.82613 23.4729 2.68587 23.6204 2.59678 23.7986C2.5077 23.9768 2.47386 24.1775 2.49959 24.375V35.625C2.48854 35.8208 2.52887 36.0161 2.61657 36.1915C2.70428 36.3669 2.83632 36.5164 2.99959 36.625L8.74959 41.375V50.625C8.75356 50.8647 8.82638 51.0982 8.95936 51.2977C9.09233 51.4971 9.27986 51.6541 9.49959 51.75L21.8746 57.375H22.3746L23.1246 57.125L29.9996 52.625L36.8746 57.25L37.6246 57.5H38.1246L50.4996 51.875C50.7193 51.7791 50.9068 51.6221 51.0398 51.4227C51.1728 51.2232 51.2456 50.9897 51.2496 50.75V41.375L56.9996 36.625C57.1629 36.5164 57.2949 36.3669 57.3826 36.1915C57.4703 36.0161 57.5106 35.8208 57.4996 35.625V24.375C57.5253 24.1775 57.4915 23.9768 57.4024 23.7986C57.3133 23.6204 57.173 23.4729 56.9996 23.375ZM38.1246 8.75C38.4954 8.75 38.8579 8.85997 39.1663 9.06599C39.4746 9.27202 39.7149 9.56486 39.8569 9.90747C39.9988 10.2501 40.0359 10.6271 39.9636 10.9908C39.8912 11.3545 39.7126 11.6886 39.4504 11.9508C39.1882 12.213 38.8541 12.3916 38.4904 12.464C38.1267 12.5363 37.7497 12.4992 37.4071 12.3573C37.0644 12.2154 36.7716 11.975 36.5656 11.6667C36.3596 11.3584 36.2496 10.9958 36.2496 10.625C36.2496 10.1277 36.4471 9.6508 36.7988 9.29917C37.1504 8.94754 37.6273 8.75 38.1246 8.75ZM21.8746 8.75C22.2454 8.75 22.6079 8.85997 22.9163 9.06599C23.2246 9.27202 23.4649 9.56486 23.6069 9.90747C23.7488 10.2501 23.7859 10.6271 23.7136 10.9908C23.6412 11.3545 23.4626 11.6886 23.2004 11.9508C22.9382 12.213 22.6041 12.3916 22.2404 12.464C21.8767 12.5363 21.4997 12.4992 21.1571 12.3573C20.8144 12.2154 20.5216 11.975 20.3156 11.6667C20.1096 11.3584 19.9996 10.9958 19.9996 10.625C19.9996 10.1277 20.1971 9.6508 20.5488 9.29917C20.9004 8.94754 21.3773 8.75 21.8746 8.75ZM21.8746 51.25C21.5037 51.25 21.1412 51.14 20.8329 50.934C20.5246 50.728 20.2842 50.4351 20.1423 50.0925C20.0004 49.7499 19.9633 49.3729 20.0356 49.0092C20.108 48.6455 20.2865 48.3114 20.5488 48.0492C20.811 47.7869 21.1451 47.6084 21.5088 47.536C21.8725 47.4637 22.2495 47.5008 22.5921 47.6427C22.9347 47.7846 23.2276 48.025 23.4336 48.3333C23.6396 48.6416 23.7496 49.0042 23.7496 49.375C23.7496 49.8723 23.552 50.3492 23.2004 50.7008C22.8488 51.0525 22.3719 51.25 21.8746 51.25ZM38.1246 51.25C37.7537 51.25 37.3912 51.14 37.0829 50.934C36.7746 50.728 36.5342 50.4351 36.3923 50.0925C36.2504 49.7499 36.2133 49.3729 36.2856 49.0092C36.358 48.6455 36.5365 48.3114 36.7988 48.0492C37.061 47.7869 37.3951 47.6084 37.7588 47.536C38.1225 47.4637 38.4995 47.5008 38.8421 47.6427C39.1847 47.7846 39.4776 48.025 39.6836 48.3333C39.8896 48.6416 39.9996 49.0042 39.9996 49.375C39.9996 49.8723 39.802 50.3492 39.4504 50.7008C39.0988 51.0525 38.6219 51.25 38.1246 51.25ZM45.1246 31.25C45.6219 31.25 46.0988 31.4475 46.4504 31.7992C46.802 32.1508 46.9996 32.6277 46.9996 33.125C46.9996 33.6223 46.802 34.0992 46.4504 34.4508C46.0988 34.8025 45.6219 35 45.1246 35H42.2496V39.75C42.2496 40.413 41.9862 41.0489 41.5174 41.5178C41.0485 41.9866 40.4126 42.25 39.7496 42.25H34.9996V45.125C34.9996 45.6223 34.802 46.0992 34.4504 46.4508C34.0988 46.8025 33.6219 47 33.1246 47C32.6273 47 32.1504 46.8025 31.7988 46.4508C31.4471 46.0992 31.2496 45.6223 31.2496 45.125V42.25H28.7496V45.125C28.7496 45.6223 28.552 46.0992 28.2004 46.4508C27.8488 46.8025 27.3719 47 26.8746 47C26.3773 47 25.9004 46.8025 25.5488 46.4508C25.1971 46.0992 24.9996 45.6223 24.9996 45.125V42.25H20.2496C19.5865 42.25 18.9507 41.9866 18.4818 41.5178C18.013 41.0489 17.7496 40.413 17.7496 39.75V35H14.8746C14.3773 35 13.9004 34.8025 13.5488 34.4508C13.1971 34.0992 12.9996 33.6223 12.9996 33.125C12.9996 32.6277 13.1971 32.1508 13.5488 31.7992C13.9004 31.4475 14.3773 31.25 14.8746 31.25H17.7496V28.75H14.8746C14.3773 28.75 13.9004 28.5525 13.5488 28.2008C13.1971 27.8492 12.9996 27.3723 12.9996 26.875C12.9996 26.3777 13.1971 25.9008 13.5488 25.5492C13.9004 25.1975 14.3773 25 14.8746 25H17.7496V20.25C17.7496 19.587 18.013 18.9511 18.4818 18.4822C18.9507 18.0134 19.5865 17.75 20.2496 17.75H24.9996V14.875C24.9996 14.3777 25.1971 13.9008 25.5488 13.5492C25.9004 13.1975 26.3773 13 26.8746 13C27.3719 13 27.8488 13.1975 28.2004 13.5492C28.552 13.9008 28.7496 14.3777 28.7496 14.875V17.75H31.2496V14.875C31.2496 14.3777 31.4471 13.9008 31.7988 13.5492C32.1504 13.1975 32.6273 13 33.1246 13C33.6219 13 34.0988 13.1975 34.4504 13.5492C34.802 13.9008 34.9996 14.3777 34.9996 14.875V17.75H39.7496C40.4126 17.75 41.0485 18.0134 41.5174 18.4822C41.9862 18.9511 42.2496 19.587 42.2496 20.25V25H45.1246C45.6219 25 46.0988 25.1975 46.4504 25.5492C46.802 25.9008 46.9996 26.3777 46.9996 26.875C46.9996 27.3723 46.802 27.8492 46.4504 28.2008C46.0988 28.5525 45.6219 28.75 45.1246 28.75H42.2496V31.25H45.1246Z" fill="#191C1E"/>
<rect x="25" y="25" width="10" height="10" rx="0.2" fill="#005AA3"/>
</g>
<defs>
<clipPath id="clip0_3_34856">
<rect width="60" height="60" fill="white"/>
</clipPath>
</defs>
</svg>
