<svg width="24" height="24" viewBox="0 0 24 24" fill="none" xmlns="http://www.w3.org/2000/svg">
<path fill-rule="evenodd" clip-rule="evenodd" d="M3.99844 5.8499C3.91559 5.8499 3.84844 5.91706 3.84844 5.9999V9.9999C3.84844 10.0827 3.91559 10.1499 3.99844 10.1499H7.99844C8.08128 10.1499 8.14844 10.0827 8.14844 9.9999V5.9999C8.14844 5.91706 8.08128 5.8499 7.99844 5.8499H3.99844ZM2.14844 5.9999C2.14844 4.97818 2.97671 4.1499 3.99844 4.1499H7.99844C9.02016 4.1499 9.84844 4.97818 9.84844 5.9999V9.9999C9.84844 11.0216 9.02016 11.8499 7.99844 11.8499H3.99844C2.97671 11.8499 2.14844 11.0216 2.14844 9.9999V5.9999ZM12.1484 5.9999C12.1484 5.53046 12.529 5.1499 12.9984 5.1499H20.9984C21.4679 5.1499 21.8484 5.53046 21.8484 5.9999C21.8484 6.46934 21.4679 6.8499 20.9984 6.8499H12.9984C12.529 6.8499 12.1484 6.46934 12.1484 5.9999ZM12.1484 11.9999C12.1484 11.5305 12.529 11.1499 12.9984 11.1499H20.9984C21.4679 11.1499 21.8484 11.5305 21.8484 11.9999C21.8484 12.4693 21.4679 12.8499 20.9984 12.8499H12.9984C12.529 12.8499 12.1484 12.4693 12.1484 11.9999ZM9.59948 14.3989C9.93142 14.7308 9.93142 15.269 9.59948 15.6009L5.59948 19.6009C5.26753 19.9329 4.72934 19.9329 4.3974 19.6009L2.3974 17.6009C2.06545 17.269 2.06545 16.7308 2.3974 16.3989C2.72934 16.0669 3.26753 16.0669 3.59948 16.3989L4.99844 17.7978L8.3974 14.3989C8.72934 14.0669 9.26753 14.0669 9.59948 14.3989ZM12.1484 17.9999C12.1484 17.5305 12.529 17.1499 12.9984 17.1499H20.9984C21.4679 17.1499 21.8484 17.5305 21.8484 17.9999C21.8484 18.4693 21.4679 18.8499 20.9984 18.8499H12.9984C12.529 18.8499 12.1484 18.4693 12.1484 17.9999Z" fill="#0083CA"/>
</svg>
