<svg width="24" height="24" viewBox="0 0 24 24" fill="none" xmlns="http://www.w3.org/2000/svg">
<path fill-rule="evenodd" clip-rule="evenodd" d="M4.99844 3.8499C4.36331 3.8499 3.84844 4.36477 3.84844 4.9999V8.1499H14.1484V3.8499H4.99844ZM4.99844 2.1499C3.42443 2.1499 2.14844 3.42589 2.14844 4.9999V18.9999C2.14844 20.5739 3.42443 21.8499 4.99844 21.8499H18.9984C20.5725 21.8499 21.8484 20.5739 21.8484 18.9999V4.9999C21.8484 3.42589 20.5725 2.1499 18.9984 2.1499H4.99844ZM15.8484 3.8499V8.1499H20.1484V4.9999C20.1484 4.36477 19.6336 3.8499 18.9984 3.8499H15.8484ZM20.1484 9.8499H15.8484V14.1499H20.1484V9.8499ZM20.1484 15.8499H15.8484V20.1499H18.9984C19.6336 20.1499 20.1484 19.635 20.1484 18.9999V15.8499ZM14.1484 20.1499V15.8499H3.84844V18.9999C3.84844 19.635 4.36331 20.1499 4.99844 20.1499H14.1484ZM3.84844 14.1499H14.1484V9.8499H3.84844V14.1499Z" fill="#0083CA"/>
</svg>
