<svg width="60" height="60" viewBox="0 0 60 60" fill="none" xmlns="http://www.w3.org/2000/svg">
<g clip-path="url(#clip0_3_34845)">
<path d="M8.77921 48.4357L23.4329 33.782C24.8309 32.384 25.2322 30.3882 24.6843 28.6226L29.2211 24.0858C30.577 25.1898 31.9831 26.0725 33.3655 26.7167C33.471 26.4023 33.6339 26.1135 33.8715 25.8758L41.4692 18.2781C41.7048 18.0425 41.9956 17.8828 42.3141 17.7815C41.3842 15.7825 39.9586 13.7281 38.0866 11.8561C36.1777 9.94717 34.0794 8.49807 32.0424 7.57031C31.936 7.86525 31.7823 8.13864 31.557 8.36503L23.9593 15.9628C23.735 16.187 23.4677 16.3509 23.1697 16.4604C23.8179 17.8798 24.7233 19.3268 25.858 20.7216L21.3213 25.2584C19.5557 24.7105 17.5598 25.112 16.1619 26.5098L1.50616 41.1636C-0.502055 43.1718 -0.502055 46.4275 1.50616 48.4357C3.51438 50.4439 6.771 50.4439 8.77921 48.4357Z" fill="#191C1E"/>
<path d="M34.5945 26.6022C34.4531 26.7435 34.363 26.9227 34.3077 27.1214C34.1192 27.8035 34.4224 28.7466 35.1362 29.4604C35.6953 30.0186 36.4122 30.3524 37.0553 30.3524C37.3247 30.3524 37.7057 30.2919 37.9944 30.0032L40.3437 27.6539L43.2429 24.7547L45.5922 22.4055C45.8799 22.1177 45.9967 21.6774 45.9188 21.1663C45.8328 20.5969 45.5235 20.0223 45.0494 19.5482C44.4903 18.9901 43.7734 18.6562 43.1313 18.6562C43.0073 18.6562 42.8589 18.6726 42.7073 18.7146C42.5292 18.7637 42.3469 18.8498 42.1912 19.0065L34.5945 26.6022Z" fill="#191C1E"/>
<path d="M22.2931 15.5878C22.4323 15.5878 22.6024 15.5694 22.7744 15.5131C22.9331 15.4608 23.0939 15.3769 23.2332 15.2376L30.8309 7.63985C30.9579 7.51285 31.0398 7.35209 31.0971 7.17798C31.3204 6.49287 31.0234 5.51685 30.2881 4.78261C29.7289 4.22449 29.0121 3.89062 28.3699 3.89062C28.1006 3.89062 27.7196 3.9511 27.4308 4.23986L24.8419 6.82875L22.421 9.24869L19.8321 11.8376C19.2053 12.4654 19.4531 13.7741 20.3748 14.6958C20.9341 15.2539 21.651 15.5878 22.2931 15.5878Z" fill="#191C1E"/>
<path d="M37.8506 48.7922C39.0968 48.6694 40.4333 48.6345 41.8291 48.6345C42.4241 48.6345 43.0334 48.6386 43.654 48.6437C44.9402 48.6539 46.3002 48.6539 47.5865 48.6437C48.2071 48.6385 48.8164 48.6345 49.4114 48.6345C50.8072 48.6345 52.1437 48.6692 53.39 48.7922V45.8203H37.8506V48.7922Z" fill="#005AA3"/>
<path d="M49.4116 49.6641C48.8197 49.6641 48.2134 49.6682 47.5948 49.6733C46.3025 49.6825 44.9383 49.6825 43.6469 49.6733C43.0283 49.6681 42.4221 49.6641 41.8302 49.6641C40.3811 49.6641 39.0518 49.6928 37.8517 49.8064C33.8936 50.1802 31.4102 51.5157 31.2412 56.1108H59.9997C59.8307 51.5157 57.3473 50.1814 53.3892 49.8066C52.1899 49.6928 50.8595 49.6641 49.4116 49.6641Z" fill="#005AA3"/>
</g>
<defs>
<clipPath id="clip0_3_34845">
<rect width="60" height="60" fill="white"/>
</clipPath>
</defs>
</svg>
