<svg width="60" height="60" viewBox="0 0 60 60" fill="none" xmlns="http://www.w3.org/2000/svg">
<path d="M29.835 1.24072C29.9145 1.1248 30.0855 1.1248 30.165 1.24072L32.0758 4.02887C32.1018 4.06682 32.1401 4.09464 32.1842 4.10765L35.4264 5.06338C35.5612 5.10312 35.6141 5.26581 35.5284 5.37718L33.4672 8.05609C33.4391 8.09255 33.4245 8.13757 33.4258 8.18355L33.5187 11.5624C33.5226 11.7029 33.3842 11.8034 33.2518 11.7563L30.067 10.6238C30.0237 10.6084 29.9763 10.6084 29.933 10.6238L26.7482 11.7563C26.6158 11.8034 26.4774 11.7029 26.4813 11.5624L26.5742 8.18355C26.5755 8.13757 26.5609 8.09255 26.5328 8.05609L24.4716 5.37718C24.3859 5.26581 24.4388 5.10312 24.5736 5.06338L27.8158 4.10765C27.8599 4.09464 27.8982 4.06682 27.9242 4.02887L29.835 1.24072Z" fill="#005AA3"/>
<path fill-rule="evenodd" clip-rule="evenodd" d="M40 31.4748H37.5789L30.1838 14.2091C30.1146 14.0475 29.8854 14.0475 29.8162 14.2091L22.4211 31.4748H20C19.4477 31.4748 19 31.9225 19 32.4748V58.0002C19 58.5525 19.4477 59.0002 20 59.0002H40C40.5523 59.0002 41 58.5525 41 58.0002V32.4748C41 31.9225 40.5523 31.4748 40 31.4748ZM30 45.2375C27.7909 45.2375 26 47.0283 26 49.2375V59.0002H34V49.2375C34 47.0283 32.2091 45.2375 30 45.2375ZM30 39.3393C32.2091 39.3393 34 37.5788 34 35.4071C34 33.2354 32.2091 31.4749 30 31.4749C27.7909 31.4749 26 33.2354 26 35.4071C26 37.5788 27.7909 39.3393 30 39.3393Z" fill="#191C1E"/>
<path d="M2 41.7C2 41.4362 2.3159 41.3009 2.5069 41.4828L3.90642 42.8156C4.01675 42.9207 4.18832 42.9264 4.30537 42.8289L6.31182 41.1568C6.42134 41.0656 6.57996 41.064 6.69128 41.153L8.81259 42.8501C8.92216 42.9377 9.07784 42.9377 9.18741 42.8501L11.3087 41.153C11.42 41.064 11.5787 41.0656 11.6882 41.1568L13.6946 42.8289C13.8117 42.9264 13.9833 42.9207 14.0936 42.8156L15.4931 41.4828C15.6841 41.3009 16 41.4362 16 41.7C16 47.3667 16 53.0333 16 58.7C16 58.8657 15.8657 59 15.7 59H2.3C2.13431 59 2 58.8657 2 58.7V41.7Z" fill="#191C1E"/>
<path d="M44 41.7C44 41.4362 44.3159 41.3009 44.5069 41.4828L45.9064 42.8156C46.0167 42.9207 46.1883 42.9264 46.3054 42.8289L48.3118 41.1568C48.4213 41.0656 48.58 41.064 48.6913 41.153L50.8126 42.8501C50.9222 42.9377 51.0778 42.9377 51.1874 42.8501L53.3087 41.153C53.42 41.064 53.5787 41.0656 53.6882 41.1568L55.6946 42.8289C55.8117 42.9264 55.9833 42.9207 56.0936 42.8156L57.4931 41.4828C57.6841 41.3009 58 41.4362 58 41.7C58 47.3667 58 53.0333 58 58.7C58 58.8657 57.8657 59 57.7 59H44.3C44.1343 59 44 58.8657 44 58.7V41.7Z" fill="#191C1E"/>
</svg>
