<svg width="105" height="56" viewBox="0 0 105 56" fill="none" xmlns="http://www.w3.org/2000/svg">
<path d="M34.3081 37.1953H29.749V55.3273H34.3081V37.1953Z" fill="#00A0DF"/>
<path d="M71.0759 42.3905C70.8924 42.2984 69.4194 41.4166 67.2448 41.4166C64.2926 41.4166 62.2456 43.4861 62.2456 46.2547C62.2456 48.9469 64.2055 51.0928 67.2448 51.0928C69.3836 51.0928 70.8784 50.2391 71.0759 50.1346V55.0008C70.502 55.1647 68.945 55.6469 66.9213 55.6469C61.7914 55.6469 57.293 52.0995 57.293 46.2547C57.293 40.8391 61.3667 36.875 66.9213 36.875C69.0616 36.875 70.6466 37.3947 71.0759 37.5211V42.3905Z" fill="#00A0DF"/>
<path d="M23.482 42.3905C23.2938 42.2984 21.8301 41.4166 19.654 41.4166C16.6955 41.4166 14.6532 43.4861 14.6532 46.2547C14.6532 48.9469 16.61 51.0928 19.654 51.0928C21.7912 51.0928 23.2798 50.2391 23.482 50.1346V55.0008C22.908 55.1647 21.3572 55.6469 19.318 55.6469C14.199 55.6469 9.70215 52.0995 9.70215 46.2547C9.70215 40.8391 13.7728 36.875 19.318 36.875C21.4661 36.875 23.0511 37.3947 23.482 37.5211V42.3905Z" fill="#00A0DF"/>
<path d="M94.9676 46.2547C94.9676 51.4409 90.9794 55.6469 85.4232 55.6469C79.864 55.6469 75.8789 51.4409 75.8789 46.2547C75.8789 41.0748 79.864 36.875 85.4232 36.875C90.9794 36.875 94.9676 41.0748 94.9676 46.2547ZM85.4232 41.4884C82.7152 41.4884 80.704 43.6265 80.704 46.2563C80.704 48.897 82.7152 51.032 85.4232 51.032C88.1282 51.032 90.1425 48.897 90.1425 46.2563C90.1425 43.6265 88.1282 41.4884 85.4232 41.4884Z" fill="#00A0DF"/>
<path d="M51.6031 41.3198C51.5378 41.298 49.6105 40.7627 48.0395 40.7627C46.2072 40.7627 45.2195 41.3791 45.2195 42.2531C45.2195 43.3518 46.5603 43.7373 47.3069 43.9761L48.5653 44.3788C51.5238 45.3183 52.8723 47.3565 52.8723 49.5618C52.8723 54.1205 48.8779 55.65 45.389 55.65C42.9672 55.65 40.6962 55.2021 40.4691 55.1568V50.982C40.8704 51.0835 42.7821 51.6547 44.7746 51.6547C47.0472 51.6547 48.0878 50.9914 48.0878 49.9566C48.0878 49.0421 47.184 48.5146 46.0579 48.1603C45.7763 48.0651 45.3626 47.934 45.0779 47.8404C42.5457 47.0382 40.4209 45.5399 40.4209 42.5387C40.4209 39.1489 42.9532 36.8672 47.1591 36.8672C49.3788 36.8672 51.4647 37.4087 51.6015 37.4462V41.3198H51.6031Z" fill="#00A0DF"/>
<path d="M4.86096 17.7099C4.86096 16.4629 3.84835 15.4453 2.60087 15.4453C1.35495 15.4453 0.333008 16.4629 0.333008 17.7099V22.4684C0.333008 23.7294 1.3565 24.7345 2.60087 24.7345C3.84835 24.7345 4.86096 23.731 4.86096 22.4684V17.7099Z" fill="#00A0DF"/>
<path d="M17.2994 11.463C17.2994 10.2191 16.2822 9.19531 15.0347 9.19531C13.7841 9.19531 12.7715 10.2176 12.7715 11.463V22.4705C12.7715 23.7315 13.7841 24.7382 15.0347 24.7382C16.2822 24.7382 17.2994 23.7331 17.2994 22.4705V11.463Z" fill="#00A0DF"/>
<path d="M29.7325 2.91299C29.7325 1.66288 28.7152 0.648438 27.4724 0.648438C26.2233 0.648438 25.2061 1.66288 25.2061 2.91299V26.9912C25.2061 28.2476 26.2233 29.2651 27.4724 29.2651C28.7167 29.2651 29.7325 28.2476 29.7325 26.9912V2.91299Z" fill="#00A0DF"/>
<path d="M42.1688 11.463C42.1688 10.2191 41.1562 9.19531 39.9071 9.19531C38.6628 9.19531 37.6455 10.2176 37.6455 11.463V22.4705C37.6455 23.7315 38.6628 24.7382 39.9071 24.7382C41.1562 24.7382 42.1688 23.7331 42.1688 22.4705V11.463Z" fill="#00A0DF"/>
<path d="M54.5902 17.7099C54.5902 16.4629 53.5775 15.4453 52.3409 15.4453C51.0935 15.4453 50.0762 16.4629 50.0762 17.7099V22.4684C50.0762 23.7294 51.0935 24.7345 52.3409 24.7345C53.5775 24.7345 54.5902 23.731 54.5902 22.4684V17.7099Z" fill="#00A0DF"/>
<path d="M67.0376 11.463C67.0376 10.2191 66.0234 9.19531 64.7775 9.19531C63.5285 9.19531 62.5205 10.2176 62.5205 11.463V22.4705C62.5205 23.7315 63.5285 24.7382 64.7775 24.7382C66.0234 24.7382 67.0376 23.7331 67.0376 22.4705V11.463Z" fill="#00A0DF"/>
<path d="M79.4749 2.91299C79.4749 1.66288 78.4685 0.648438 77.2179 0.648438C75.972 0.648438 74.9609 1.66288 74.9609 2.91299V26.9912C74.9609 28.2476 75.972 29.2651 77.2179 29.2651C78.4685 29.2651 79.4749 28.2476 79.4749 26.9912V2.91299Z" fill="#00A0DF"/>
<path d="M91.915 11.463C91.915 10.2191 90.9039 9.19531 89.63 9.19531C88.3825 9.19531 87.373 10.2176 87.373 11.463V22.4705C87.373 23.7315 88.3825 24.7382 89.63 24.7382C90.9024 24.7382 91.915 23.7331 91.915 22.4705V11.463Z" fill="#00A0DF"/>
<path d="M104.333 17.7099C104.333 16.4629 103.316 15.4453 102.076 15.4453C100.827 15.4453 99.8193 16.4629 99.8193 17.7099V22.4684C99.8193 23.7294 100.827 24.7345 102.076 24.7345C103.316 24.7345 104.333 23.731 104.333 22.4684V17.7099Z" fill="#00A0DF"/>
<path d="M101.721 52.9375V53.2184H100.922V55.3253H100.584V53.2184H99.7754V52.9375H101.721Z" fill="#00A0DF"/>
<path d="M101.893 52.9375H102.411L103.121 54.8899H103.139L103.828 52.9375H104.333V55.3253H103.992V53.3698H103.982L103.257 55.3253H102.941L102.236 53.3698H102.227V55.3253H101.893V52.9375Z" fill="#00A0DF"/>
</svg>
