<svg width="20" height="20" viewBox="0 0 20 20" fill="none" xmlns="http://www.w3.org/2000/svg">
<path fill-rule="evenodd" clip-rule="evenodd" d="M10 2.94118C6.10152 2.94118 2.94118 6.10152 2.94118 10C2.94118 13.8985 6.10152 17.0588 10 17.0588C13.8985 17.0588 17.0588 13.8985 17.0588 10C17.0588 6.10152 13.8985 2.94118 10 2.94118ZM2 10C2 5.58172 5.58172 2 10 2C14.4183 2 18 5.58172 18 10C18 14.4183 14.4183 18 10 18C5.58172 18 2 14.4183 2 10Z" fill="#0083CA"/>
<path fill-rule="evenodd" clip-rule="evenodd" d="M10.375 5C10.5821 5 10.75 5.19587 10.75 5.4375V9.77991L12.8139 11.1845C12.9928 11.3063 13.0532 11.5742 12.9489 11.7829C12.8445 11.9916 12.6149 12.0621 12.436 11.9403L10.186 10.4091C10.0708 10.3307 10 10.1868 10 10.0312V5.4375C10 5.19587 10.1679 5 10.375 5Z" fill="#0083CA"/>
</svg>
