<svg xmlns="http://www.w3.org/2000/svg" fill="none" viewBox="0 0 20 20">
  <path fill="#0083CA" fill-rule="evenodd" d="M3.748 16.25v1.875a.624.624 0 0 0 .962.526l3.75-2.401h8.415a1.875 1.875 0 0 0 1.875-1.875v-8.75a1.875 1.875 0 0 0-1.875-1.875H3.125A1.875 1.875 0 0 0 1.25 5.625v8.75a1.873 1.873 0 0 0 1.875 1.875h.623Zm1.25-.625A.625.625 0 0 0 4.373 15H3.125a.624.624 0 0 1-.625-.625v-8.75A.626.626 0 0 1 3.125 5h13.75a.625.625 0 0 1 .625.625v8.75a.625.625 0 0 1-.625.625H8.277a.623.623 0 0 0-.336.099l-2.943 1.884v-1.358Z" clip-rule="evenodd"/>
  <path fill="#0083CA" fill-rule="evenodd" d="M5 8.125h10.014a.625.625 0 0 0 0-1.25H5a.625.625 0 0 0 0 1.25ZM5 10.625h10.014a.625.625 0 0 0 0-1.25H5a.625.625 0 0 0 0 1.25ZM5 13.125h10.014a.625.625 0 0 0 0-1.25H5a.625.625 0 0 0 0 1.25Z" clip-rule="evenodd"/>
</svg>
