<svg width="152" height="25" viewBox="0 0 152 25" fill="none" xmlns="http://www.w3.org/2000/svg">
<path d="M10.6083 12.2276L16.174 20.0002H13.0581L8.26593 13.3706H5.96659V20.0002H3.23744V7.71775H1.17445L2.54977 5.24463H5.96659V11.0845H8.26593L12.8217 5.24463H15.9162L10.6083 12.2276ZM15.3359 14.6799C15.3359 13.53 15.6081 12.5254 16.1526 11.6664C16.6826 10.8628 17.4061 10.2463 18.323 9.81678C19.2399 9.38725 20.2284 9.17253 21.2885 9.17253C22.3773 9.17253 23.3587 9.38035 24.2326 9.796C25.1495 10.2255 25.873 10.8628 26.403 11.708C26.9331 12.5393 27.1981 13.53 27.1981 14.6799C27.1981 15.8437 26.9331 16.8482 26.403 17.6934C25.873 18.5247 25.1495 19.1689 24.2326 19.6261C23.33 20.0695 22.3487 20.2911 21.2885 20.2911C20.2427 20.2911 19.2613 20.0695 18.3445 19.6261C17.4133 19.1828 16.6755 18.5385 16.1311 17.6934C15.601 16.8343 15.3359 15.8298 15.3359 14.6799ZM61.6886 9.50508H64.1169V10.939C64.4893 10.3848 64.9836 9.96228 65.5996 9.67128C66.23 9.36648 67.0395 9.21408 68.0279 9.21408C69.0451 9.21408 69.9477 9.43578 70.7356 9.8791C71.4949 10.3363 72.0823 10.9875 72.4977 11.8327C72.9275 12.664 73.1424 13.62 73.1424 14.7006C73.1424 15.7952 72.9275 16.7651 72.4977 17.6103C72.0823 18.4415 71.4949 19.0858 70.7356 19.543C70.3775 19.7785 69.9548 19.9517 69.4677 20.0625C68.995 20.1873 68.515 20.2496 68.0279 20.2496C67.1827 20.2496 66.5524 20.1873 66.1369 20.0625C65.2773 19.8132 64.6684 19.3975 64.3103 18.8156V23.7203H61.6886V9.50508ZM28.5949 9.50508H31.1951V13.4953H35.6435V9.50508H38.2222V20.0002H35.6435V15.5736H31.1951V20.0002H28.5949V9.50508ZM39.3611 9.50508H49.3537V11.5002H45.6575V20.0002H43.0143V11.5002H39.3611V9.50508ZM52.9424 9.50508C53.9166 12.0821 54.8048 14.6314 55.6071 17.153C56.3663 14.6591 57.2259 12.1098 58.1858 9.50508H60.8075L56.8105 20.208C56.481 21.0809 56.1658 21.7529 55.865 22.224C55.5355 22.695 55.1271 23.0483 54.64 23.2839C54.1673 23.5332 53.537 23.658 52.749 23.658C52.3049 23.658 52.0613 23.651 52.0184 23.6372L51.1373 21.642C51.4095 21.6975 51.7462 21.7251 52.1472 21.7251C52.6343 21.7251 53.0284 21.6559 53.3292 21.5173C53.6014 21.4065 53.8092 21.2541 53.9524 21.0601C54.0956 20.88 54.2174 20.6514 54.3177 20.3743L50.1917 9.50508H52.9424ZM17.9791 14.6591C17.9791 15.8091 18.2657 16.6889 18.8387 17.2985C19.4118 17.8943 20.2069 18.1921 21.2241 18.1921C22.2555 18.1921 23.0578 17.8943 23.6309 17.2985C24.2183 16.6889 24.5119 15.8091 24.5119 14.6591C24.5119 13.5369 24.2254 12.6917 23.6524 12.1236C23.0793 11.5417 22.2699 11.2508 21.2241 11.2508C20.1926 11.2508 19.3903 11.5417 18.8172 12.1236C18.2585 12.6917 17.9791 13.5369 17.9791 14.6591ZM64.2458 14.6799C64.2744 15.719 64.561 16.5503 65.1054 17.1738C65.6498 17.7972 66.4163 18.109 67.4047 18.109C68.3933 18.109 69.1526 17.7972 69.6826 17.1738C70.227 16.5503 70.5064 15.719 70.5207 14.6799C70.5064 13.6546 70.227 12.8372 69.6826 12.2276C69.1526 11.6041 68.3933 11.2923 67.4047 11.2923C66.4163 11.2923 65.6498 11.5971 65.1054 12.2067C64.561 12.8164 64.2744 13.6407 64.2458 14.6799Z" fill="#222222"/>
<path d="M89.8824 5.24463V18.3999H91.7087V23.076H89.7963V20.0002H78.3211V23.076H76.3868V18.3999H77.655C78.5429 17.25 79.0943 15.6498 79.3091 13.5992C79.3952 12.6432 79.4456 11.6872 79.4596 10.7312L79.503 5.24463H89.8824ZM87.9049 6.84488H81.3293L81.2867 10.8975C81.2719 12.7679 81.1285 14.3058 80.8563 15.5112C80.5841 16.7027 80.1979 17.6656 79.6961 18.3999H87.9049V6.84488ZM103.242 9.50508V20.0002H101.48V15.8229C101.48 13.8417 101.509 12.3592 101.565 11.3754C101.293 11.8604 100.792 12.6224 100.062 13.6616L98.8799 15.345L95.7205 20.0002H93.7437V9.50508H95.4847V14.3058C95.4847 15.1787 95.477 15.7467 95.463 16.01L95.4196 18.0882C95.9927 17.1322 96.8023 15.8991 97.8485 14.3889L101.244 9.50508H103.242ZM113.049 20.0002V18.587C112.662 19.1412 112.147 19.5707 111.501 19.8755C110.857 20.1665 110.112 20.312 109.267 20.312C108.063 20.312 107.118 20.0487 106.43 19.5222C105.757 18.9957 105.421 18.2545 105.421 17.2985V17.1945C105.421 16.1416 105.8 15.345 106.559 14.8046C107.333 14.2504 108.522 13.9317 110.126 13.8486L112.963 13.6616V12.9549C112.963 12.2068 112.741 11.6457 112.297 11.2716C111.853 10.8836 111.208 10.6896 110.363 10.6896C109.661 10.6896 109.024 10.8282 108.45 11.1053C107.891 11.3685 107.318 11.8119 106.731 12.4354L105.549 11.3963C106.796 9.9415 108.385 9.21408 110.319 9.21408C111.709 9.21408 112.791 9.53275 113.565 10.1701C114.338 10.8074 114.725 11.6941 114.725 12.8302V20.0002H113.049ZM110.255 15.1163C109.138 15.1717 108.35 15.3519 107.891 15.6567C107.433 15.9615 107.203 16.4464 107.203 17.1114V17.2154C107.203 17.7557 107.411 18.1713 107.827 18.4623C108.257 18.7533 108.858 18.8988 109.632 18.8988C110.248 18.8988 110.814 18.7809 111.33 18.5454C111.846 18.3099 112.247 17.9843 112.534 17.5686C112.82 17.1392 112.963 16.6542 112.963 16.1139V14.9916L110.255 15.1163ZM116.135 18.5454H117.145C117.546 18.1298 117.847 17.5202 118.047 16.7166C118.262 15.8991 118.384 14.7907 118.413 13.3914L118.455 9.50508H126.621V18.5454H128.212V22.598H126.428V20.0002H117.897V22.598H116.135V18.5454ZM124.773 10.9598H120.11L120.068 13.4953C120.053 14.8115 119.96 15.8784 119.788 16.6958C119.616 17.5132 119.358 18.1298 119.014 18.5454H124.773V10.9598ZM140.224 14.763C140.224 15.8437 139.987 16.7997 139.515 17.631C139.028 18.4761 138.354 19.1343 137.495 19.6053C136.636 20.0625 135.654 20.2911 134.551 20.2911C133.434 20.2911 132.452 20.0556 131.607 19.5846C130.733 19.1274 130.052 18.4831 129.565 17.6518C129.092 16.8205 128.856 15.8576 128.856 14.763V14.6799C128.856 13.6131 129.1 12.6709 129.587 11.8535C130.059 11.0222 130.725 10.3779 131.585 9.92073C132.445 9.44965 133.434 9.21408 134.551 9.21408C135.654 9.21408 136.636 9.44268 137.495 9.89988C138.354 10.3572 139.02 11.0014 139.493 11.8327C139.98 12.664 140.224 13.6131 140.224 14.6799V14.763ZM130.747 14.763C130.747 15.5666 130.905 16.2663 131.22 16.8621C131.535 17.4855 131.979 17.9635 132.553 18.2961C133.126 18.6285 133.792 18.7948 134.551 18.7948C135.31 18.7948 135.976 18.6216 136.55 18.2753C137.123 17.9427 137.559 17.4717 137.86 16.8621C138.176 16.2525 138.333 15.5528 138.333 14.763V14.6799C138.333 13.8902 138.176 13.1974 137.86 12.6016C137.545 12.0059 137.094 11.5417 136.506 11.2092C135.933 10.8767 135.282 10.7104 134.551 10.7104C133.821 10.7104 133.168 10.8698 132.595 11.1885C132.022 11.5209 131.571 11.992 131.241 12.6016C130.912 13.2113 130.747 13.904 130.747 14.6799V14.763ZM145.897 15.3657H144.027V20.0002H142.179V9.50508H144.027V13.911H145.918L149.485 9.50508H151.462L147.4 14.5552L151.806 20.0002H149.7L145.897 15.3657Z" fill="#00BEA2"/>
</svg>
