<svg width="170" height="22" viewBox="0 0 170 22" fill="none" xmlns="http://www.w3.org/2000/svg">
<g clip-path="url(#clip0_2636_77798)">
<path d="M169.666 14.1457C169.666 12.1074 168.529 11.2024 166.257 10.7491C163.987 10.2974 162.625 10.0691 162.625 8.48573C162.625 7.35406 163.533 6.67406 165.124 6.67406C167.168 6.67406 167.849 7.57906 167.849 8.7124L168.076 8.93906H168.984L169.211 8.7124C169.211 6.44906 167.394 5.5424 165.122 5.5424C162.623 5.5424 161.263 6.90073 161.263 8.4874C161.263 10.2991 162.625 11.2041 164.895 11.6574C167.167 12.1107 168.302 12.3374 168.302 14.1491C168.302 15.2807 167.621 16.1874 165.35 16.1874C163.305 16.1874 162.398 15.0541 162.398 13.6957L162.17 13.4691H161.263L161.035 13.6957C161.035 15.7341 162.625 17.3191 165.35 17.3191C168.302 17.3157 169.666 15.9574 169.666 14.1457ZM159.9 11.8824L160.126 11.6557V10.9774C160.126 7.8074 158.309 5.5424 155.13 5.5424C151.95 5.5424 150.133 7.8074 150.133 10.9774V11.4291C150.133 14.5991 151.723 17.3157 155.357 17.3157C158.536 17.3157 159.671 15.2774 159.899 13.9191L159.671 13.6924H158.764L158.536 13.9191C158.082 15.2774 157.174 16.1841 155.357 16.1841C152.403 16.1841 151.496 13.4674 151.496 12.1091L151.723 11.8824H159.9ZM158.538 10.7491H151.725L151.497 10.5224C151.497 8.9374 152.405 6.67406 155.131 6.67406C157.856 6.67406 158.765 8.9374 158.765 10.5224L158.538 10.7491ZM148.545 16.8624V5.9924L148.318 5.76573H147.41L147.183 5.9924V16.8624L147.41 17.0891H148.318L148.545 16.8624ZM148.545 3.72906V2.37073L148.318 2.14406H147.41L147.183 2.37073V3.72906L147.41 3.95573H148.318L148.545 3.72906ZM139.917 16.1841C137.645 16.1841 136.282 14.5991 136.282 11.4291C136.282 8.25906 137.645 6.67406 139.917 6.67406C142.187 6.67406 143.549 8.25906 143.549 11.4291C143.549 14.5974 142.187 16.1841 139.917 16.1841ZM143.549 15.5041C143.549 18.4474 142.867 20.7124 140.142 20.7124C138.098 20.7124 137.417 19.8074 137.19 18.6741L136.963 18.4474H136.055L135.828 18.6741C136.055 20.4857 137.417 21.8441 140.142 21.8441C143.096 21.8441 144.911 20.0324 144.911 15.5041V5.9924L144.684 5.76573H144.002L143.775 5.9924L143.547 7.3524H143.32C142.867 6.4474 141.73 5.54073 139.686 5.54073C136.506 5.54073 134.917 8.0324 134.917 11.4291C134.917 14.8241 136.506 17.3157 139.686 17.3157C141.73 17.3157 142.865 16.4107 143.32 15.5041H143.549ZM128.789 6.67406C131.059 6.67406 132.648 8.48573 132.648 11.4291C132.648 14.3724 131.059 16.1841 128.789 16.1841C126.517 16.1841 124.927 14.3724 124.927 11.4291C124.927 8.48573 126.517 6.67406 128.789 6.67406ZM128.789 17.3157C131.741 17.3157 134.011 15.2774 134.011 11.4291C134.011 7.58073 131.741 5.54073 128.789 5.54073C125.835 5.54073 123.565 7.57906 123.565 11.4291C123.565 15.2774 125.837 17.3157 128.789 17.3157ZM121.975 16.8624V1.46573L121.748 1.23906H120.84L120.613 1.46573V16.8641L120.84 17.0907H121.748L121.975 16.8624ZM113.801 6.67406C116.071 6.67406 117.661 8.48573 117.661 11.4291C117.661 14.3724 116.071 16.1841 113.801 16.1841C111.53 16.1841 109.94 14.3724 109.94 11.4291C109.94 8.48573 111.53 6.67406 113.801 6.67406ZM113.801 17.3157C116.753 17.3157 119.025 15.2774 119.025 11.4291C119.025 7.58073 116.753 5.54073 113.801 5.54073C110.849 5.54073 108.578 7.57906 108.578 11.4291C108.578 15.2774 110.849 17.3157 113.801 17.3157ZM107.215 16.8624V10.0691C107.215 7.12573 105.626 5.54073 103.128 5.54073C101.539 5.54073 100.175 6.22073 99.4943 7.3524H99.267L99.0413 5.9924L98.814 5.76573H98.132L97.9046 5.9924V16.8624L98.132 17.0891H99.0413L99.267 16.8624V10.7491C99.267 8.2574 100.404 6.67406 102.901 6.67406C104.718 6.67406 105.853 7.80573 105.853 10.0691V16.8624L106.08 17.0891H106.988L107.215 16.8624ZM95.6329 16.8624V10.0691C95.6329 7.12573 94.0433 5.54073 91.5459 5.54073C89.9562 5.54073 88.5939 6.22073 87.9119 7.3524H87.6846V1.46573L87.4572 1.23906H86.5496L86.3222 1.46573V16.8641L86.5496 17.0907H87.4572L87.6846 16.8641V10.7491C87.6846 8.2574 88.8212 6.67406 91.3186 6.67406C93.1356 6.67406 94.2706 7.80573 94.2706 10.0691V16.8624L94.4979 17.0891H95.4073L95.6329 16.8624ZM76.1038 11.4291C76.1038 8.25906 77.6935 6.67406 79.9635 6.67406C82.2335 6.67406 83.1429 8.0324 83.3685 9.39073L83.5959 9.6174H84.5052L84.7325 9.39073C84.5052 7.1274 82.6882 5.5424 79.9635 5.5424C77.0115 5.5424 74.7415 7.35406 74.7415 11.4307C74.7415 15.5057 77.0115 17.3174 79.9635 17.3174C82.6882 17.3174 84.5052 15.7324 84.7325 13.4691L84.5052 13.2424H83.5959L83.3685 13.4691C83.1412 14.8274 82.2335 16.1857 79.9635 16.1857C77.6918 16.1841 76.1038 14.5974 76.1038 11.4291ZM73.6048 11.8824L73.8322 11.6557V10.9774C73.8322 7.8074 72.0151 5.5424 68.8341 5.5424C65.6564 5.5424 63.8378 7.8074 63.8378 10.9774V11.4291C63.8378 14.5991 65.4274 17.3157 69.0615 17.3157C72.2408 17.3157 73.3758 15.2774 73.6031 13.9191L73.3758 13.6924H72.4681L72.2408 13.9191C71.7878 15.2774 70.8785 16.1841 69.0615 16.1841C66.1094 16.1841 65.2018 13.4674 65.2018 12.1091L65.4291 11.8824H73.6048ZM72.2425 10.7491H65.4291L65.2018 10.5224C65.2018 8.9374 66.1094 6.67406 68.8341 6.67406C71.5605 6.67406 72.4681 8.9374 72.4681 10.5224L72.2425 10.7491ZM66.1228 2.14406V1.46573L65.8955 1.23906H54.0857L53.8584 1.46573V2.14573L54.0857 2.3724H59.0821L59.3094 2.59906V16.8641L59.5368 17.0907H60.4444L60.6718 16.8641V2.5974L60.8991 2.37073H65.8955L66.1228 2.14406ZM53.8584 13.9391V17.0891H43.6032V1.23906H47.2139V13.9391H53.8584ZM6.44395 17.0891C10.1432 17.0891 13.2523 14.5691 14.1382 11.1591L23.1314 18.1641L32.1195 11.1624V17.0891H42.3746V13.9391H35.7301V1.23906H32.1195V7.16573L23.4991 13.8807L21.5718 12.3791L25.6972 9.16406L30.1905 5.66406L27.6263 3.66406L19.0042 10.3807L17.0769 8.87906L25.6972 2.16406L23.1314 0.164062L14.1382 7.16906C13.2523 3.75906 10.1432 1.23906 6.44395 1.23906H0V17.0891H6.44395ZM3.61062 13.9391V4.38906H6.44395C8.83933 4.38906 10.7817 6.5274 10.7817 9.16406C10.7817 11.8007 8.83933 13.9391 6.44395 13.9391H3.61062Z" fill="#0076CE"/>
</g>
<defs>
<clipPath id="clip0_2636_77798">
<rect width="170" height="22" fill="white"/>
</clipPath>
</defs>
</svg>
