<svg xmlns="http://www.w3.org/2000/svg" width="24" height="24" viewBox="0 0 24 24" fill="none">
<path d="M8.14424 6.30699C8.57828 6.07511 9.04535 6.00052 9.5001 6.00049C10.0265 6.00046 10.6379 6.17339 11.1317 6.57805C11.6487 7.00168 12.0001 7.65162 12.0001 8.49976C12.0001 9.47435 11.3114 10.0035 10.9231 10.3018C10.8929 10.325 10.8646 10.3468 10.8385 10.3673C10.4139 10.701 10.2501 10.8793 10.2501 11.2498C10.2501 11.664 9.91435 11.9998 9.50014 11.9998C9.08593 11.9998 8.75014 11.664 8.75014 11.2498C8.75014 10.1158 9.46139 9.54171 9.91174 9.18782C10.425 8.78445 10.5001 8.6946 10.5001 8.49976C10.5001 8.10272 10.3515 7.87801 10.181 7.73829C9.98738 7.57961 9.72376 7.50048 9.50018 7.50049C9.20493 7.50051 9.002 7.54938 8.85104 7.63003C8.70759 7.70666 8.55581 7.84122 8.40947 8.11113C8.21205 8.47527 7.75681 8.61042 7.39268 8.413C7.02854 8.21558 6.89339 7.76034 7.09081 7.3962C7.35447 6.90988 7.70269 6.54287 8.14424 6.30699Z" fill="#005AA3"/>
<path d="M9.50007 15.0001C10.0524 15.0001 10.5001 14.5524 10.5001 14.0001C10.5001 13.4477 10.0524 13 9.50007 13C8.94775 13 8.5 13.4477 8.5 14.0001C8.5 14.5524 8.94775 15.0001 9.50007 15.0001Z" fill="#005AA3"/>
<path d="M9.50103 3C5.3589 3 2.00103 6.35786 2.00103 10.5C2.00103 11.6329 2.2527 12.7088 2.70369 13.6734C2.44965 14.6714 2.16584 15.7842 1.97945 16.5147C1.74642 17.428 2.56885 18.2588 3.48319 18.039C4.23342 17.8587 5.38644 17.5819 6.41392 17.337C7.35623 17.7631 8.40187 18 9.50103 18C13.6432 18 17.0011 14.6421 17.0011 10.5C17.0011 6.35786 13.6432 3 9.50103 3ZM3.50103 10.5C3.50103 7.18629 6.18731 4.5 9.50103 4.5C12.8148 4.5 15.5011 7.18629 15.5011 10.5C15.5011 13.8137 12.8148 16.5 9.50103 16.5C8.5403 16.5 7.63433 16.2748 6.83107 15.8749L6.58765 15.7537L6.32314 15.8167C5.40041 16.0363 4.33434 16.2919 3.53538 16.4838C3.73413 15.7047 3.9973 14.6724 4.22546 13.7757L4.29565 13.4998L4.16513 13.2468C3.74091 12.4246 3.50103 11.4914 3.50103 10.5Z" fill="#005AA3"/>
<path d="M14.5001 21.0002C12.5307 21.0002 10.7386 20.2411 9.40039 18.9996C9.43359 19 9.46683 19.0002 9.50011 19.0002C10.2181 19.0002 10.9152 18.9111 11.5812 18.7435C12.4451 19.2255 13.4405 19.5002 14.5001 19.5002C15.4608 19.5002 16.3668 19.2749 17.17 18.875L17.4135 18.7538L17.678 18.8168C18.5995 19.0362 19.6431 19.2626 20.4171 19.4263C20.2422 18.6758 20.0035 17.6712 19.7756 16.7758L19.7055 16.5L19.836 16.247C20.2602 15.4248 20.5001 14.4916 20.5001 13.5002C20.5001 11.3854 19.4061 9.52629 17.7531 8.45773C17.5747 7.73447 17.3038 7.04768 16.9535 6.41064C19.8908 7.42696 22.0001 10.2172 22.0001 13.5002C22.0001 14.6333 21.7483 15.7095 21.2971 16.6742C21.5501 17.6822 21.8064 18.7741 21.9689 19.4774C22.1733 20.3624 21.3939 21.1634 20.5014 20.9769C19.7743 20.8249 18.6318 20.5811 17.588 20.3368C16.6455 20.7631 15.5996 21.0002 14.5001 21.0002Z" fill="#005AA3"/>
</svg>