<svg xmlns="http://www.w3.org/2000/svg" width="24" height="24" viewBox="0 0 24 24" fill="none">
<path d="M5.5 18H4.25C3.00736 18 2 16.9926 2 15.75V6.75C2 5.23122 3.23122 4 4.75 4H16.75C17.9926 4 19 5.00736 19 6.25V7.5H19.75C20.9926 7.5 22 8.50736 22 9.75V19.25C22 20.4926 20.9926 21.5 19.75 21.5H7.75C6.50736 21.5 5.5 20.4926 5.5 19.25V18ZM3.5 6.75V15.75C3.5 16.1642 3.83579 16.5 4.25 16.5H5.5V9.75C5.5 8.50736 6.50736 7.5 7.75 7.5H17.5V6.25C17.5 5.83579 17.1642 5.5 16.75 5.5H4.75C4.05964 5.5 3.5 6.05964 3.5 6.75ZM7 9.75V19.25C7 19.6642 7.33579 20 7.75 20H19.75C20.1642 20 20.5 19.6642 20.5 19.25V9.75C20.5 9.33579 20.1642 9 19.75 9H7.75C7.33579 9 7 9.33579 7 9.75Z" fill="#005AA3"/>
<path d="M12.7876 17.499C12.7749 17.4997 12.7622 17.5 12.7495 17.5C12.7369 17.5 12.7243 17.4997 12.7118 17.499C12.5266 17.4897 12.3508 17.4119 12.2191 17.2801L9.71939 14.7783C9.42669 14.4853 9.42689 14.0104 9.71989 13.7176C10.0129 13.4248 10.4878 13.425 10.7806 13.7181L12.7499 15.6891L17.2194 11.2197C17.5122 10.9268 17.9871 10.9268 18.28 11.2197C18.5729 11.5126 18.5729 11.9874 18.28 12.2803L13.28 17.2803C13.1483 17.412 12.9727 17.4897 12.7876 17.499Z" fill="#005AA3"/>
</svg>