<svg xmlns="http://www.w3.org/2000/svg" width="22" height="22" viewBox="0 0 22 22" fill="none">
<path fill-rule="evenodd" clip-rule="evenodd" d="M1.25 0.504395C0.83579 0.504395 0.5 0.840185 0.5 1.25439C0.5 1.6686 0.83579 2.00439 1.25 2.00439H2.14209L5.01611 15.6597C5.08954 16.0064 5.39559 16.2544 5.75 16.2544H19.4741C19.8883 16.2544 20.2241 15.9186 20.2241 15.5044C20.2241 15.0902 19.8883 14.7544 19.4741 14.7544H6.35791L6.0415 13.2544H18.7241C19.0685 13.2545 19.3687 13.0202 19.4521 12.686L21.5 4.43604C21.6181 3.96261 21.2599 3.50423 20.772 3.50439H15.5V1.25439C15.5 0.8402 15.1642 0.50444 14.75 0.504395H11.75C11.3358 0.50444 11 0.8402 11 1.25439V3.50439H10.8799L10.2251 1.06104C10.1411 0.74695 9.86424 0.522779 9.53955 0.505859C9.46108 0.502109 9.38249 0.510362 9.30664 0.530762L6.40918 1.30712C6.00917 1.41439 5.77181 1.82553 5.87891 2.22557L6.22168 3.50438H3.98926L3.48389 1.10057C3.41108 0.753272 3.10486 0.5045 2.75 0.504395H1.25ZM12.5 2.00439H14V3.50439H12.5V2.00439ZM8.96973 2.17432L9.32568 3.50439H7.77295L7.521 2.5625L8.96973 2.17432ZM4.30566 5.00439H19.8125L18.1382 11.7544L5.73828 11.7574C5.27461 9.60853 4.77723 7.23864 4.30566 5.00439Z" fill="#005AA3"/>
<path fill-rule="evenodd" clip-rule="evenodd" d="M8.75 17.0044C7.51624 17.0044 6.5 18.0206 6.5 19.2544C6.5 20.4882 7.51624 21.5044 8.75 21.5044C9.98376 21.5044 11 20.4882 11 19.2544C11 18.0206 9.98376 17.0044 8.75 17.0044ZM8.75 18.5044C9.1731 18.5044 9.5 18.8313 9.5 19.2544C9.5 19.6775 9.1731 20.0044 8.75 20.0044C8.3269 20.0044 8 19.6775 8 19.2544C8 18.8313 8.3269 18.5044 8.75 18.5044Z" fill="#005AA3"/>
<path fill-rule="evenodd" clip-rule="evenodd" d="M16.25 17.0044C15.0162 17.0044 14 18.0206 14 19.2544C14 20.4882 15.0162 21.5044 16.25 21.5044C17.4838 21.5044 18.5 20.4882 18.5 19.2544C18.5 18.0206 17.4838 17.0044 16.25 17.0044ZM16.25 18.5044C16.6731 18.5044 17 18.8313 17 19.2544C17 19.6775 16.6731 20.0044 16.25 20.0044C15.8269 20.0044 15.5 19.6775 15.5 19.2544C15.5 18.8313 15.8269 18.5044 16.25 18.5044Z" fill="#005AA3"/>
</svg>