<svg xmlns="http://www.w3.org/2000/svg" width="24" height="24" viewBox="0 0 24 24" fill="none">
<path fill-rule="evenodd" clip-rule="evenodd" d="M3.21902 4.39712L3.92404 5.11134L3.7756 5.26172C3.48357 5.55757 3.48357 6.01343 3.7756 6.30928L4.35349 6.89471C3.60357 8.23804 3.19359 9.76164 3.19359 11.3258C3.19359 14.2584 4.61178 16.9796 6.95187 18.639L5.51063 20.8675L5.51003 20.8685C5.35809 21.1001 5.36251 21.3945 5.47071 21.6137L5.47773 21.6279L5.48643 21.6411C5.62587 21.853 5.87093 22 6.13175 22H17.8199C18.0744 22 18.337 21.8562 18.4567 21.6137C18.5649 21.3945 18.5693 21.1001 18.4174 20.8684L18.4168 20.8675L17.0259 18.7169C17.797 18.1723 18.4808 17.505 19.0493 16.7538H20.2639C20.6694 16.7538 21 16.4189 21 16.0082V13.6302C21 13.2195 20.6694 12.8846 20.2639 12.8846H13.8996C13.4942 12.8846 13.1636 13.2195 13.1636 13.6302V15.4967C12.7894 15.5998 12.4057 15.6548 12.0121 15.6548C9.65882 15.6548 7.76316 13.7344 7.76316 11.3504C7.76316 11.0444 7.79647 10.743 7.86113 10.4481L8.90578 11.5064C9.04834 11.6508 9.23286 11.7283 9.42281 11.7283C9.50822 11.7283 9.60182 11.7212 9.69494 11.693L10.3577 12.3644C10.5003 12.5089 10.6848 12.5863 10.8747 12.5863C11.0647 12.5863 11.2492 12.5089 11.3918 12.3644L13.2309 10.5013C13.5229 10.2055 13.5229 9.7496 13.2309 9.45376L12.5715 8.78574C12.6822 8.51837 12.6273 8.20494 12.4077 7.98244L7.25355 2.78552C7.11101 2.64123 6.92658 2.56385 6.73672 2.56385C6.54677 2.56385 6.36226 2.64131 6.2197 2.78573L6.07125 2.93611L5.3715 2.22723C5.09448 1.91502 4.615 1.93537 4.33218 2.22189L3.21902 3.34957C2.92699 3.64541 2.92699 4.10128 3.21902 4.39712ZM6.26686 11.3258C6.26686 11.0095 6.29347 10.6935 6.34653 10.3779C6.31535 10.3793 6.28408 10.38 6.25274 10.38C5.69043 10.38 5.18985 10.1786 4.79676 9.81745C4.69674 10.3064 4.6415 10.8166 4.6415 11.3258C4.6415 13.98 6.0456 16.4452 8.33843 17.7724C9.43655 18.4115 10.6998 18.7436 11.9637 18.7436C13.2514 18.7436 14.491 18.4114 15.5895 17.7722C16.0739 17.4917 16.5335 17.1458 16.9488 16.7538H13.9701C13.326 16.9988 12.6573 17.1216 11.9879 17.1216C8.82381 17.1216 6.26686 14.5312 6.26686 11.3258ZM19.5279 15.2625H14.6357V14.3759H19.5279V15.2625ZM9.43491 9.94734L8.37445 8.87304C8.46379 8.63351 8.51297 8.37586 8.51333 8.11726C8.53916 6.86882 7.52726 5.84883 6.30114 5.84883L6.28908 5.84886L6.27694 5.84883C6.02244 5.84883 5.75661 5.88322 5.51206 5.9733L5.35088 5.81001L6.76092 4.38157L10.8449 8.5189L9.43491 9.94734ZM11.5806 9.87704L10.7795 10.6966L10.8747 10.7931L11.6798 9.97753L11.5806 9.87704ZM15.7516 19.4209C15.0713 19.7102 14.3595 19.935 13.6333 20.0743C13.3329 20.133 13.0286 20.1758 12.7211 20.2024C12.4773 20.2238 12.2327 20.2349 11.9879 20.2349L11.9759 20.2349L11.9637 20.2349C10.6697 20.2349 9.37552 19.9424 8.20641 19.3779L7.48883 20.5087H16.4572L15.7516 19.4209ZM4.8492 3.79322L5.0251 3.9714L4.946 4.05153L4.77011 3.87335L4.8492 3.79322ZM6.31591 7.11255C5.75904 7.11255 5.30762 7.56398 5.30762 8.12084V8.14716C5.30762 8.70402 5.75904 9.15545 6.31591 9.15545C6.87277 9.15545 7.3242 8.70402 7.3242 8.14716V8.12084C7.3242 7.56398 6.87277 7.11255 6.31591 7.11255Z" fill="#005AA3"/>
</svg>