<svg width="24" height="24" viewBox="0 0 24 24" fill="none" xmlns="http://www.w3.org/2000/svg">
<path fill-rule="evenodd" clip-rule="evenodd" d="M5.25 5.75H3C2.403 5.75 1.83075 5.987 1.40925 6.40925C0.987 6.83075 0.75 7.403 0.75 8V20C0.75 20.597 0.987 21.1693 1.40925 21.5907C1.83075 22.013 2.403 22.25 3 22.25C6.8655 22.25 17.1345 22.25 21 22.25C21.597 22.25 22.1693 22.013 22.5907 21.5907C23.013 21.1693 23.25 20.597 23.25 20V8C23.25 7.403 23.013 6.83075 22.5907 6.40925C22.1693 5.987 21.597 5.75 21 5.75H18.75V5C18.75 3.75725 17.7428 2.75 16.5 2.75H7.5C6.25725 2.75 5.25 3.75725 5.25 5V5.75ZM2.25 11.3278V20C2.25 20.1987 2.32875 20.39 2.46975 20.5303C2.61 20.6713 2.80125 20.75 3 20.75H21C21.1987 20.75 21.39 20.6713 21.5303 20.5303C21.6713 20.39 21.75 20.1987 21.75 20V11.3285C21.75 11.3285 14.3572 14.5783 14.2537 14.5798H14.25V15.509C14.25 15.9237 13.914 16.259 13.5 16.259H10.5C10.086 16.259 9.75 15.9237 9.75 15.509V14.5767C9.648 14.5767 2.25 11.3278 2.25 11.3278ZM12.75 12.5V14.759H11.25V12.5H12.75ZM21.75 9.6875V8C21.75 7.80125 21.6713 7.61 21.5303 7.46975C21.39 7.32875 21.1987 7.25 21 7.25H3C2.80125 7.25 2.61 7.32875 2.46975 7.46975C2.32875 7.61 2.25 7.80125 2.25 8V9.6875L9.75 13.007V11.75C9.75 11.336 10.086 11 10.5 11H13.5C13.914 11 14.25 11.336 14.25 11.75V13.0092L21.75 9.6875ZM17.25 5.75V5C17.25 4.586 16.914 4.25 16.5 4.25H7.5C7.086 4.25 6.75 4.586 6.75 5V5.75H17.25Z" fill="#005AA3"/>
</svg>
