<svg width="24" height="24" viewBox="0 0 24 24" fill="none" xmlns="http://www.w3.org/2000/svg">
<path d="M9.4297 6.9005V10H10.5698V6.90046L11.1182 7.41027L12 6.85834L9.99975 5L8 6.85872L8.88182 7.4098L9.4297 6.9005Z" fill="#005AA3"/>
<path d="M13.4297 6.9005V10H14.5698V6.90046L15.1182 7.41027L16 6.85834L13.9997 5L12 6.85872L12.8818 7.4098L13.4297 6.9005Z" fill="#005AA3"/>
<path fill-rule="evenodd" clip-rule="evenodd" d="M16 3.5H8C7.72386 3.5 7.5 3.72386 7.5 4V12C7.5 12.2761 7.72386 12.5 8 12.5H16C16.2761 12.5 16.5 12.2761 16.5 12V4C16.5 3.72386 16.2761 3.5 16 3.5ZM8 2C6.89543 2 6 2.89543 6 4V12C6 13.1046 6.89543 14 8 14H16C17.1046 14 18 13.1046 18 12V4C18 2.89543 17.1046 2 16 2H8Z" fill="#005AA3"/>
<path fill-rule="evenodd" clip-rule="evenodd" d="M19 16.5H5C3.61929 16.5 2.5 17.6193 2.5 19C2.5 20.3807 3.61929 21.5 5 21.5H19C20.3807 21.5 21.5 20.3807 21.5 19C21.5 17.6193 20.3807 16.5 19 16.5ZM5 15C2.79086 15 1 16.7909 1 19C1 21.2091 2.79086 23 5 23H19C21.2091 23 23 21.2091 23 19C23 16.7909 21.2091 15 19 15H5Z" fill="#005AA3"/>
<path fill-rule="evenodd" clip-rule="evenodd" d="M4.5 19C4.5 19.2761 4.72386 19.5 5 19.5C5.27614 19.5 5.5 19.2761 5.5 19C5.5 18.7239 5.27614 18.5 5 18.5C4.72386 18.5 4.5 18.7239 4.5 19ZM5 17C3.89543 17 3 17.8954 3 19C3 20.1046 3.89543 21 5 21C6.10457 21 7 20.1046 7 19C7 17.8954 6.10457 17 5 17Z" fill="#005AA3"/>
<path fill-rule="evenodd" clip-rule="evenodd" d="M11.5 19C11.5 19.2761 11.7239 19.5 12 19.5C12.2761 19.5 12.5 19.2761 12.5 19C12.5 18.7239 12.2761 18.5 12 18.5C11.7239 18.5 11.5 18.7239 11.5 19ZM12 17C10.8954 17 10 17.8954 10 19C10 20.1046 10.8954 21 12 21C13.1046 21 14 20.1046 14 19C14 17.8954 13.1046 17 12 17Z" fill="#005AA3"/>
<path fill-rule="evenodd" clip-rule="evenodd" d="M18.5 19C18.5 19.2761 18.7239 19.5 19 19.5C19.2761 19.5 19.5 19.2761 19.5 19C19.5 18.7239 19.2761 18.5 19 18.5C18.7239 18.5 18.5 18.7239 18.5 19ZM19 17C17.8954 17 17 17.8954 17 19C17 20.1046 17.8954 21 19 21C20.1046 21 21 20.1046 21 19C21 17.8954 20.1046 17 19 17Z" fill="#005AA3"/>
</svg>
