<svg xmlns="http://www.w3.org/2000/svg" width="24" height="24" viewBox="0 0 24 24" fill="none">
<g clip-path="url(#clip0_7_59997)">
<path fill-rule="evenodd" clip-rule="evenodd" d="M12.0001 3L6.75006 7.5H17.2501L12.0001 3ZM12.0001 4.97606L13.1954 6H10.8047L12.0001 4.97606ZM21.0001 19.5H20.2501V10.5H21.7501C22.3924 10.5 22.9638 10.0912 23.1702 9.48337C23.3766 8.8755 23.1739 8.20312 22.6649 7.8105L13.4363 0.366187C12.9888 0.1215 12.4945 0 12.0001 0C11.5056 0 11.0114 0.1215 10.5638 0.366187L1.33525 7.8105C0.826188 8.20312 0.623313 8.8755 0.829938 9.48337C1.03656 10.0912 1.60769 10.5 2.25006 10.5H3.75006V19.5H3.00006C1.75713 19.5 0.750063 20.5078 0.750063 21.75C0.750063 22.9922 1.75713 24 3.00006 24H21.0001C22.243 24 23.2501 22.9922 23.2501 21.75C23.2501 20.5078 22.243 19.5 21.0001 19.5ZM2.27706 8.97806L11.3826 1.63331C11.5752 1.54538 11.7869 1.5 12.0001 1.5C12.2133 1.5 12.4249 1.54538 12.6175 1.63331L21.7501 9L2.27706 8.97806ZM18.7501 10.5V19.5H17.2501V10.5H18.7501ZM15.7501 10.5V19.5H14.2501V10.5H15.7501ZM12.7501 10.5V19.5H11.2501V10.5H12.7501ZM9.75006 10.5V19.5H8.25006V10.5H9.75006ZM6.75006 10.5V19.5H5.25006V10.5H6.75006ZM21.0001 22.5H3.00006C2.58625 22.5 2.25006 22.1631 2.25006 21.75C2.25006 21.3369 2.58625 21 3.00006 21H21.0001C21.4139 21 21.7501 21.3369 21.7501 21.75C21.7501 22.1631 21.4139 22.5 21.0001 22.5Z" fill="#005AA3"/>
</g>
<defs>
<clipPath id="clip0_7_59997">
<rect width="24" height="24" fill="white"/>
</clipPath>
</defs>
</svg>