<svg xmlns="http://www.w3.org/2000/svg" width="20" height="22" viewBox="0 0 20 22" fill="none">
<path d="M18.1742 16.5504H14.8367C15.5867 15.8754 16.1117 14.9754 16.2992 13.9629H16.4867C18.1367 13.9629 19.5242 12.6129 19.5242 10.9254C19.5242 9.27539 18.1742 7.88789 16.4867 7.88789H16.3742V6.76289C16.3742 6.08789 15.8117 5.52539 15.1367 5.52539H4.41172C3.73672 5.52539 3.17422 6.08789 3.17422 6.76289V13.0629C3.17422 14.4504 3.77422 15.6879 4.74922 16.5129H1.41172C0.924219 16.5129 0.511719 16.9254 0.511719 17.4129C0.511719 19.5129 2.23672 21.2379 4.33672 21.2379H15.2117C17.3117 21.2379 19.0367 19.5129 19.0367 17.4129C19.0367 16.9254 18.6617 16.5504 18.1742 16.5504ZM16.4492 9.38789C17.2742 9.38789 17.9867 10.0629 17.9867 10.9254C17.9867 11.7879 17.3117 12.4629 16.4492 12.4629H16.3742V9.42539H16.4492V9.38789ZM4.71172 7.06289H14.8742V7.92539V13.1004C14.8742 14.8254 13.4492 16.2504 11.7242 16.2504H7.82422C6.09922 16.2504 4.67422 14.8254 4.67422 13.1004V7.06289H4.71172ZM15.2117 19.7379H4.33672C3.24922 19.7379 2.34922 19.0254 2.08672 18.0129H17.4617C17.1992 19.0254 16.2992 19.7379 15.2117 19.7379Z" fill="#005AA3"/>
<path d="M8.8375 4.92515C9.175 4.70015 9.2875 4.32515 9.1375 3.95015C9.1375 3.91265 9.1 3.87515 9.1 3.87515C9.1 3.87515 9.1 3.87515 9.1 3.83765C9.2125 3.61265 9.325 3.38765 9.4375 3.16265C9.55 2.90015 9.7 2.67515 9.7375 2.37515C9.8125 2.00015 9.775 1.62515 9.625 1.28765C9.55 1.10015 9.475 0.950152 9.2875 0.837652C9.1375 0.725152 8.875 0.687652 8.725 0.762652C8.5375 0.837652 8.35 0.950152 8.275 1.10015C8.2 1.25015 8.125 1.51265 8.2 1.66265C8.2375 1.70015 8.2375 1.77515 8.2375 1.81265C8.2375 1.85015 8.2375 1.85015 8.2375 1.88765C8.2375 1.92515 8.2375 2.00015 8.2375 2.03765C8.2375 2.07515 8.2 2.15015 8.2 2.18765V2.22515C8.125 2.37515 8.05 2.52515 7.975 2.63765C7.8625 2.86265 7.675 3.12515 7.6375 3.38765C7.525 3.80015 7.6375 4.21265 7.7875 4.58765C7.975 5.00015 8.5375 5.15015 8.8375 4.92515ZM8.3125 1.96265C8.275 1.96265 8.3125 2.07515 8.3125 1.96265C8.275 1.92515 8.275 1.92515 8.3125 1.96265Z" fill="#005AA3"/>
<path d="M10.6375 4.73775C10.825 4.77525 11.05 4.77525 11.2 4.66275C11.35 4.55025 11.5 4.40025 11.5375 4.21275C11.575 4.06275 11.575 3.91275 11.5 3.76275V3.72525C11.5375 3.65025 11.575 3.61275 11.6125 3.53775C11.725 3.35025 11.8 3.16275 11.875 2.97525C11.9875 2.63775 11.9875 2.22525 11.875 1.88775C11.8 1.70025 11.725 1.55025 11.5375 1.43775C11.3875 1.32525 11.125 1.28775 10.975 1.36275C10.7875 1.43775 10.6 1.55025 10.525 1.70025C10.45 1.85025 10.375 2.11275 10.45 2.26275C10.4875 2.30025 10.4875 2.37525 10.4875 2.41275C10.4875 2.45025 10.4875 2.45025 10.45 2.48775C10.3375 2.67525 10.2625 2.86275 10.15 3.05025C10.075 3.23775 10 3.38775 10 3.61275C10 3.87525 10.075 4.10025 10.1875 4.32525C10.2625 4.55025 10.45 4.70025 10.6375 4.73775Z" fill="#005AA3"/>
</svg>