<svg xmlns="http://www.w3.org/2000/svg" width="24" height="24" viewBox="0 0 24 24" fill="none">
<path d="M8.14424 6.30723C8.57828 6.07535 9.04535 6.00076 9.5001 6.00073C10.0265 6.0007 10.6379 6.17363 11.1317 6.57829C11.6487 7.00192 12.0001 7.65186 12.0001 8.5C12.0001 9.47459 11.3114 10.0037 10.9231 10.302C10.8929 10.3252 10.8646 10.347 10.8385 10.3675C10.4139 10.7012 10.2501 10.8795 10.2501 11.25C10.2501 11.6642 9.91435 12 9.50014 12C9.08593 12 8.75014 11.6642 8.75014 11.25C8.75014 10.116 9.46139 9.54195 9.91174 9.18806C10.425 8.78469 10.5001 8.69484 10.5001 8.5C10.5001 8.10296 10.3515 7.87825 10.181 7.73853C9.98738 7.57985 9.72376 7.50072 9.50018 7.50073C9.20493 7.50075 9.002 7.54962 8.85104 7.63027C8.70759 7.7069 8.55581 7.84146 8.40947 8.11137C8.21205 8.47551 7.75681 8.61066 7.39268 8.41324C7.02854 8.21582 6.89339 7.76058 7.09081 7.39644C7.35447 6.91012 7.70269 6.54311 8.14424 6.30723Z" fill="#005AA3"/>
<path d="M9.50007 15.0001C10.0524 15.0001 10.5001 14.5524 10.5001 14.0001C10.5001 13.4477 10.0524 13 9.50007 13C8.94775 13 8.5 13.4477 8.5 14.0001C8.5 14.5524 8.94775 15.0001 9.50007 15.0001Z" fill="#005AA3"/>
<path d="M9.50103 3C5.3589 3 2.00103 6.35786 2.00103 10.5C2.00103 11.6329 2.2527 12.7088 2.70369 13.6734C2.44965 14.6714 2.16584 15.7842 1.97945 16.5147C1.74642 17.428 2.56885 18.2588 3.48319 18.039C4.23342 17.8587 5.38644 17.5819 6.41392 17.337C7.35623 17.7631 8.40187 18 9.50103 18C13.6432 18 17.0011 14.6421 17.0011 10.5C17.0011 6.35786 13.6432 3 9.50103 3ZM3.50103 10.5C3.50103 7.18629 6.18731 4.5 9.50103 4.5C12.8148 4.5 15.5011 7.18629 15.5011 10.5C15.5011 13.8137 12.8148 16.5 9.50103 16.5C8.5403 16.5 7.63433 16.2748 6.83107 15.8749L6.58765 15.7537L6.32314 15.8167C5.40041 16.0363 4.33434 16.2919 3.53538 16.4838C3.73413 15.7047 3.9973 14.6724 4.22546 13.7757L4.29565 13.4998L4.16513 13.2468C3.74091 12.4246 3.50103 11.4914 3.50103 10.5Z" fill="#005AA3"/>
<path d="M14.5001 21.0001C12.5307 21.0001 10.7386 20.241 9.40039 18.9995C9.43359 18.9999 9.46683 19.0001 9.50011 19.0001C10.2181 19.0001 10.9152 18.911 11.5812 18.7434C12.4451 19.2254 13.4405 19.5001 14.5001 19.5001C15.4608 19.5001 16.3668 19.2748 17.17 18.8749L17.4135 18.7537L17.678 18.8167C18.5995 19.0361 19.6431 19.2625 20.4171 19.4262C20.2422 18.6757 20.0035 17.6711 19.7756 16.7757L19.7055 16.4999L19.836 16.2469C20.2602 15.4247 20.5001 14.4915 20.5001 13.5001C20.5001 11.3853 19.4061 9.52617 17.7531 8.45761C17.5747 7.73435 17.3038 7.04756 16.9535 6.41052C19.8908 7.42684 22.0001 10.2171 22.0001 13.5001C22.0001 14.6332 21.7483 15.7094 21.2971 16.6741C21.5501 17.6821 21.8064 18.774 21.9689 19.4773C22.1733 20.3623 21.3939 21.1633 20.5014 20.9768C19.7743 20.8248 18.6318 20.581 17.588 20.3367C16.6455 20.763 15.5996 21.0001 14.5001 21.0001Z" fill="#005AA3"/>
</svg>