<svg xmlns="http://www.w3.org/2000/svg" width="24" height="24" viewBox="0 0 24 24" fill="none">
<g clip-path="url(#clip0_7_59317)">
<path d="M22.5 10.5H13.5V12H22.5V10.5Z" fill="#005AA3"/>
<path d="M19.5 14.25H13.5V15.75H19.5V14.25Z" fill="#005AA3"/>
<path d="M22.5 6.75H13.5V8.25H22.5V6.75Z" fill="#005AA3"/>
<path d="M16.5 18.0001V21.0001H4.5V12.0001H10.5V10.5001H7.5V6.00007C7.50009 5.31076 7.73751 4.6425 8.17234 4.10765C8.60716 3.57279 9.21288 3.20395 9.88766 3.06314C10.5624 2.92234 11.2651 3.01815 11.8776 3.33447C12.49 3.65079 12.9749 4.16833 13.2506 4.80007L14.6254 4.20007C14.2116 3.25265 13.4844 2.47654 12.5658 2.0022C11.6472 1.52786 10.5933 1.38421 9.58131 1.59541C8.56929 1.8066 7.66083 2.35976 7.00863 3.1619C6.35644 3.96404 6.00027 4.96625 6 6.00007V10.5001H4.5C4.10232 10.5005 3.72105 10.6587 3.43984 10.9399C3.15864 11.2211 3.00046 11.6024 3 12.0001V21.0001C3.00046 21.3978 3.15864 21.779 3.43984 22.0602C3.72105 22.3414 4.10232 22.4996 4.5 22.5001H16.5C16.8977 22.4996 17.2789 22.3414 17.5602 22.0602C17.8414 21.779 17.9995 21.3978 18 21.0001V18.0001H16.5Z" fill="#005AA3"/>
</g>
<defs>
<clipPath id="clip0_7_59317">
<rect width="24" height="24" fill="white"/>
</clipPath>
</defs>
</svg>