<svg xmlns="http://www.w3.org/2000/svg" width="24" height="24" viewBox="0 0 24 24" fill="none">
<path d="M18.75 21H5.25C3.51697 21 2.10075 19.6435 2.00514 17.9344L2 17.75V7.25C2 6.05914 2.92516 5.08436 4.09595 5.00519L4.25 5H16.75C17.9409 5 18.9156 5.92516 18.9948 7.09595L19 7.25V8H19.75C20.9409 8 21.9156 8.92516 21.9948 10.096L22 10.25V17.75C22 19.483 20.6435 20.8992 18.9344 20.9949L18.75 21ZM5.25 19.5H18.75C19.6682 19.5 20.4212 18.7929 20.4942 17.8935L20.5 17.75V10.25C20.5 9.8703 20.2178 9.55651 19.8518 9.50685L19.75 9.5H19V17.25C19 17.6297 18.7178 17.9435 18.3518 17.9932L18.25 18C17.8703 18 17.5565 17.7178 17.5068 17.3518L17.5 17.25V7.25C17.5 6.8703 17.2178 6.55651 16.8518 6.50685L16.75 6.5H4.25C3.8703 6.5 3.55651 6.78215 3.50685 7.14823L3.5 7.25V17.75C3.5 18.6682 4.20711 19.4212 5.10647 19.4942L5.25 19.5ZM12.246 15.5H15.2522C15.6665 15.5 16.0022 15.8358 16.0022 16.25C16.0022 16.6297 15.7201 16.9435 15.354 16.9932L15.2522 17H12.246C11.8318 17 11.496 16.6642 11.496 16.25C11.496 15.8703 11.7782 15.5565 12.1442 15.5068L12.246 15.5ZM9.24328 12.0045C9.6575 12.0045 9.99328 12.3403 9.99328 12.7545V16.25C9.99328 16.6642 9.6575 17 9.24328 17H5.74776C5.33355 17 4.99776 16.6642 4.99776 16.25V12.7545C4.99776 12.3403 5.33355 12.0045 5.74776 12.0045H9.24328ZM8.49328 13.5045H6.49776V15.5H8.49328V13.5045ZM12.246 12.0045H15.2522C15.6665 12.0045 16.0022 12.3403 16.0022 12.7545C16.0022 13.1342 15.7201 13.448 15.354 13.4976L15.2522 13.5045H12.246C11.8318 13.5045 11.496 13.1687 11.496 12.7545C11.496 12.3748 11.7782 12.061 12.1442 12.0113L12.246 12.0045ZM5.74776 8.50247H15.2522C15.6665 8.50247 16.0022 8.83826 16.0022 9.25247C16.0022 9.63217 15.7201 9.94596 15.354 9.99563L15.2522 10.0025H5.74776C5.33355 10.0025 4.99776 9.66669 4.99776 9.25247C4.99776 8.87278 5.27991 8.55898 5.64599 8.50932L5.74776 8.50247Z" fill="#005AA3"/>
</svg>