<svg xmlns="http://www.w3.org/2000/svg" width="24" height="24" viewBox="0 0 24 24" fill="none">
<path d="M12.2414 2.96387C12.007 2.96387 11.7977 3.07138 11.6602 3.23979L11.6031 3.283C9.45874 2.63294 7.03267 3.15046 5.33671 4.83556C3.82816 6.33446 3.24936 8.40733 3.6003 10.3467L3.58528 10.3614L2.62813 11.3125C1.79583 12.1394 1.79583 13.4802 2.62813 14.3072C3.11709 14.793 3.78454 14.9935 4.42075 14.9085C4.5145 15.2547 4.69813 15.582 4.97163 15.8537C5.34338 16.2231 5.81828 16.4275 6.3042 16.4669C6.3438 16.9498 6.54951 17.4218 6.92134 17.7912C7.31025 18.1777 7.81207 18.3835 8.32127 18.4088C8.3468 18.9147 8.55398 19.4131 8.94281 19.7995C9.70309 20.5549 10.8949 20.6203 11.7298 19.9956L12.1163 20.3796C12.9527 21.2106 14.3086 21.2106 15.145 20.3796C15.5154 20.0115 15.7217 19.5424 15.764 19.0616C16.2469 19.0205 16.7184 18.8164 17.0881 18.449C17.4588 18.0808 17.6643 17.6109 17.705 17.1299C18.1816 17.0853 18.646 16.8817 19.0111 16.5189C19.2973 16.2346 19.4851 15.8895 19.5745 15.5255C20.2012 15.5999 20.8547 15.3981 21.3356 14.9203C22.1679 14.0933 22.1679 12.7526 21.3356 11.9256L20.5021 11.0974L20.6734 10.4309C21.0457 8.98162 20.8585 7.44648 20.1489 6.12803C19.1014 4.18154 17.0622 2.96888 14.8455 2.96888H13.2388C13.1703 2.96555 13.1015 2.96387 13.0323 2.96387H12.2414ZM15.1656 7.909L18.6293 11.3505L18.6332 11.3546L18.6465 11.3682L20.2715 12.9828C20.5162 13.2259 20.5162 13.62 20.2715 13.8631C20.0269 14.1061 19.6303 14.1061 19.3856 13.8631L17.7606 12.2484C17.4668 11.9565 16.9904 11.9565 16.6966 12.2484L16.6803 12.2646C16.3864 12.5566 16.3864 13.0299 16.6803 13.3219L17.9471 14.5806C18.1919 14.8239 18.1919 15.2183 17.9471 15.4616C17.7239 15.6833 17.3731 15.7033 17.1281 15.5201C16.8274 15.2953 16.4058 15.3258 16.141 15.5916C15.8763 15.8573 15.8498 16.2765 16.0791 16.573C16.2675 16.8167 16.2488 17.1685 16.0241 17.3918C15.7975 17.6169 15.4396 17.6339 15.1941 17.4419C14.8954 17.2082 14.4681 17.2327 14.1984 17.499C13.9286 17.7653 13.9013 18.1897 14.1346 18.488C14.3283 18.7356 14.31 19.0947 14.0809 19.3224C13.8322 19.5694 13.4291 19.5694 13.1804 19.3224L12.8087 18.953L12.9139 18.8484C13.7462 18.0215 13.7462 16.6807 12.9139 15.8537C12.525 15.4673 12.0232 15.2614 11.514 15.2361C11.4885 14.7303 11.2813 14.2318 10.8925 13.8455C10.5207 13.4761 10.0458 13.2717 9.55995 13.2323C9.52035 12.7494 9.31463 12.2774 8.94281 11.9079C8.45384 11.4221 7.7864 11.2217 7.15018 11.3067C7.05643 10.9604 6.87281 10.6332 6.5993 10.3614C6.16796 9.93286 5.59773 9.72639 5.03257 9.74204C4.88577 8.3693 5.34184 6.94497 6.40077 5.89282C7.38499 4.91489 8.6928 4.45443 9.98174 4.51144L8.48429 5.64597C7.46042 6.4217 7.26318 7.87896 8.044 8.89895C8.82305 9.91662 10.2812 10.114 11.3027 9.34002L13.1915 7.909H15.1656ZM9.39013 6.84157L12.5284 4.46387H13.0323C13.0818 4.46387 13.1309 4.46519 13.1796 4.4678C13.1929 4.46852 13.2063 4.46888 13.2197 4.46888H14.8455C16.5137 4.46888 18.0437 5.38147 18.8281 6.83887C19.3228 7.75815 19.478 8.81734 19.2719 9.83406L16.0598 6.63761C15.9185 6.4915 15.7239 6.409 15.5207 6.409H12.9395C12.7759 6.409 12.6169 6.46244 12.4865 6.5612L10.3969 8.14442C10.0333 8.41986 9.51233 8.34934 9.23507 7.98716C8.95959 7.6273 9.0289 7.11526 9.39013 6.84157ZM6.03569 14.7965C5.86779 14.6296 5.81512 14.3917 5.8777 14.1802C5.9063 14.0836 5.95896 13.9925 6.03569 13.9162L6.99285 12.9652C7.23748 12.7221 7.63411 12.7221 7.87875 12.9652C8.12059 13.2055 8.12335 13.5934 7.88703 13.837L7.87849 13.8455L6.92134 14.7965L6.91309 14.8048C6.83813 14.8765 6.74961 14.9261 6.65592 14.9534C6.4431 15.0156 6.2036 14.9633 6.03569 14.7965ZM5.54441 11.428C5.6199 11.5061 5.67087 11.5991 5.69732 11.6971C5.75334 11.9049 5.69933 12.1359 5.53524 12.2989L4.57809 13.25C4.33345 13.493 3.93682 13.493 3.69219 13.25C3.44755 13.0069 3.44755 12.6128 3.69219 12.3697L4.64934 11.4187C4.89398 11.1756 5.29061 11.1756 5.53524 11.4187L5.54441 11.428ZM10.8927 18.7422C10.8159 18.8186 10.724 18.871 10.6265 18.8994C10.4139 18.9613 10.1746 18.9089 10.0068 18.7422C9.8391 18.5755 9.78638 18.3378 9.84872 18.1265C9.87728 18.0297 9.92999 17.9384 10.0068 17.862L10.964 16.911C11.2086 16.6679 11.6053 16.6679 11.8499 16.911C12.0945 17.154 12.0945 17.5481 11.8499 17.7912L10.8927 18.7422ZM8.8713 16.734C8.79463 16.8102 8.70303 16.8625 8.60586 16.8909C8.39298 16.9532 8.15336 16.9009 7.9854 16.734C7.81743 16.5671 7.76479 16.329 7.82748 16.1175C7.85505 16.0245 7.90493 15.9366 7.97712 15.8621L7.98565 15.8537L8.94281 14.9027L8.95105 14.8944C9.19629 14.6597 9.58663 14.6625 9.82845 14.9027C10.0731 15.1458 10.0731 15.5399 9.82845 15.783L8.8713 16.734Z" fill="#005AA3"/>
</svg>