<svg xmlns="http://www.w3.org/2000/svg" width="24" height="24" viewBox="0 0 24 24" fill="none">
<path fill-rule="evenodd" clip-rule="evenodd" d="M6.74923 20.2282V20.9827C6.74923 21.579 6.98623 22.1512 7.40848 22.5735C7.82998 22.9957 8.40223 23.2327 8.99923 23.2327C11.3062 23.2327 15.7012 23.2327 18.0082 23.2327C18.6052 23.2327 19.1775 22.9957 19.5997 22.5735C20.0212 22.1512 20.2582 21.579 20.2582 20.9827V6C20.2582 5.403 20.0212 4.83075 19.5997 4.40925C19.1775 3.987 18.6052 3.75 18.0082 3.75H17.2492V2.99625C17.2492 2.39925 17.0122 1.827 16.59 1.40475C16.1685 0.983246 15.5962 0.746246 14.9992 0.746246C12.6922 0.746246 8.29723 0.746246 5.99023 0.746246C5.39323 0.746246 4.82098 0.983246 4.39873 1.40475C3.97723 1.827 3.74023 2.39925 3.74023 2.99625C3.74023 6.38325 3.74023 14.5912 3.74023 17.9782C3.74023 18.5752 3.97723 19.1475 4.39873 19.5697C4.82098 19.9912 5.39323 20.2282 5.99023 20.2282H6.74923ZM18.7582 6V20.9827C18.7582 21.1815 18.6795 21.372 18.5385 21.513C18.3982 21.6532 18.2077 21.7327 18.0082 21.7327H8.99923C8.80048 21.7327 8.60923 21.6532 8.46898 21.513C8.32798 21.372 8.24923 21.1815 8.24923 20.9827V6C8.24923 5.80125 8.32798 5.61 8.46898 5.46975C8.60923 5.32875 8.80048 5.25 8.99923 5.25H18.0082C18.2077 5.25 18.3982 5.32875 18.5385 5.46975C18.6795 5.61 18.7582 5.80125 18.7582 6ZM15.7492 3.75V2.99625C15.7492 2.79675 15.6705 2.60625 15.5295 2.46525C15.3892 2.325 15.198 2.24625 14.9992 2.24625H5.99023C5.79073 2.24625 5.60023 2.325 5.45998 2.46525C5.31898 2.60625 5.24023 2.79675 5.24023 2.99625V17.9782C5.24023 18.1777 5.31898 18.3682 5.45998 18.5085C5.60023 18.6495 5.79073 18.7282 5.99023 18.7282H6.74923V6C6.74923 5.403 6.98623 4.83075 7.40848 4.40925C7.82998 3.987 8.40223 3.75 8.99923 3.75H15.7492Z" fill="#005AA3"/>
<path fill-rule="evenodd" clip-rule="evenodd" d="M10.5 11.25H16.4963C16.9095 11.25 17.2463 10.914 17.2463 10.5C17.2463 10.086 16.9095 9.75 16.4963 9.75H10.5C10.086 9.75 9.75 10.086 9.75 10.5C9.75 10.914 10.086 11.25 10.5 11.25Z" fill="#005AA3"/>
<path fill-rule="evenodd" clip-rule="evenodd" d="M10.5 14.2523H16.4963C16.9095 14.2523 17.2463 13.9163 17.2463 13.5023C17.2463 13.0883 16.9095 12.7523 16.4963 12.7523H10.5C10.086 12.7523 9.75 13.0883 9.75 13.5023C9.75 13.9163 10.086 14.2523 10.5 14.2523Z" fill="#005AA3"/>
<path fill-rule="evenodd" clip-rule="evenodd" d="M10.5 17.2545H16.4963C16.9095 17.2545 17.2463 16.9185 17.2463 16.5045C17.2463 16.0905 16.9095 15.7545 16.4963 15.7545H10.5C10.086 15.7545 9.75 16.0905 9.75 16.5045C9.75 16.9185 10.086 17.2545 10.5 17.2545Z" fill="#005AA3"/>
</svg>