<svg xmlns="http://www.w3.org/2000/svg" width="24" height="24" viewBox="0 0 24 24" fill="none">
<path fill-rule="evenodd" clip-rule="evenodd" d="M5.52968 7.83775C6.35439 5.04321 8.93495 3 12 3C15.5482 3 18.4574 5.73828 18.7292 9.21677C20.9069 9.85535 22.5 11.8631 22.5 14.25C22.5 17.1497 20.1497 19.5 17.25 19.5H7.5C4.18629 19.5 1.5 16.8137 1.5 13.5C1.5 10.8748 3.18664 8.65297 5.52968 7.83775ZM12 4.5C9.499 4.5 7.40828 6.25149 6.88177 8.59585C6.82054 8.86847 6.61284 9.08445 6.34282 9.15629C4.41744 9.66852 3 11.4178 3 13.5C3 15.9853 5.01471 18 7.5 18H17.25C19.3213 18 21 16.3213 21 14.25C21 12.3934 19.6477 10.8535 17.8725 10.5565C17.5017 10.4944 17.2341 10.1675 17.2467 9.79176C17.2473 9.77384 17.2482 9.75852 17.249 9.74791L17.25 9.73431C17.2414 6.84232 14.894 4.5 12 4.5ZM15.5303 9.96967C15.8232 10.2626 15.8232 10.7374 15.5303 11.0303L11.7803 14.7803C11.4874 15.0732 11.0126 15.0732 10.7197 14.7803L8.46967 12.5303C8.17678 12.2374 8.17678 11.7626 8.46967 11.4697C8.76256 11.1768 9.23744 11.1768 9.53033 11.4697L11.25 13.1893L14.4697 9.96967C14.7626 9.67678 15.2374 9.67678 15.5303 9.96967Z" fill="#005AA3"/>
</svg>