<svg width="24" height="24" viewBox="0 0 24 24" fill="none" xmlns="http://www.w3.org/2000/svg">
<path d="M12.0577 18.8404C11.9267 18.8405 11.7979 18.8069 11.6836 18.743C9.85733 17.7212 8.33627 16.2313 7.27691 14.4266C6.21755 12.6219 5.65815 10.5676 5.65625 8.47489C5.65625 8.38984 5.65727 8.30479 5.65931 8.21974C5.70014 6.30605 6.41509 4.69294 7.72711 3.55544C8.88298 2.55216 10.4211 2 12.0577 2C13.6942 2 15.2318 2.55216 16.3892 3.55493C17.7012 4.69243 18.4162 6.30554 18.457 8.21922C18.4591 8.30428 18.4601 8.38933 18.4601 8.47438C18.4581 10.5673 17.8985 12.6219 16.8389 14.4267C15.7792 16.2315 14.2578 17.7214 12.4312 18.743C12.3171 18.8068 12.1885 18.8404 12.0577 18.8404ZM12.0577 3.53095C10.7895 3.53095 9.60814 3.94992 8.72989 4.71131C7.75365 5.55793 7.22088 6.78217 7.18975 8.25189C7.18975 8.32588 7.18975 8.40039 7.18975 8.47489C7.19137 10.2219 7.63971 11.9395 8.49217 13.4645C9.34463 14.9894 10.5729 16.271 12.0602 17.1875C13.5475 16.271 14.7757 14.9894 15.628 13.4644C16.4804 11.9395 16.9286 10.2219 16.9302 8.47489C16.9302 8.40039 16.9302 8.32588 16.9276 8.25189C16.8965 6.78217 16.3637 5.55793 15.3875 4.71131C14.5072 3.94992 13.3273 3.53095 12.0577 3.53095Z" fill="#005AA3"/>
<path d="M12.0735 12.1757C11.3455 12.1757 10.6338 11.9598 10.0285 11.5553C9.42316 11.1509 8.95137 10.576 8.67277 9.90338C8.39417 9.23078 8.32128 8.49067 8.46331 7.77665C8.60534 7.06262 8.95591 6.40674 9.47069 5.89196C9.98548 5.37717 10.6414 5.0266 11.3554 4.88457C12.0694 4.74254 12.8095 4.81544 13.4821 5.09404C14.1547 5.37264 14.7296 5.84443 15.1341 6.44975C15.5385 7.05507 15.7544 7.76674 15.7544 8.49476C15.7533 9.47066 15.3652 10.4063 14.6751 11.0964C13.985 11.7864 13.0494 12.1746 12.0735 12.1757ZM12.0735 6.3453C11.6482 6.3453 11.2326 6.47141 10.879 6.70767C10.5254 6.94394 10.2498 7.27975 10.0871 7.67263C9.92443 8.06551 9.88188 8.49783 9.96488 8.91489C10.0479 9.33196 10.2527 9.71504 10.5534 10.0157C10.8541 10.3164 11.2373 10.5211 11.6544 10.604C12.0715 10.6869 12.5038 10.6442 12.8966 10.4814C13.2894 10.3186 13.6252 10.043 13.8614 9.68935C14.0975 9.33572 14.2236 8.92 14.2235 8.49476C14.2228 7.92481 13.996 7.3784 13.593 6.97543C13.1899 6.57246 12.6434 6.34584 12.0735 6.3453Z" fill="#005AA3"/>
<path d="M12.0574 22.5147C9.99213 22.5147 8.03864 22.1034 6.55668 21.3568C4.90683 20.5245 4 19.3604 4 18.0749C4 16.37 5.59474 14.8977 8.26624 14.1373C8.4601 14.0866 8.66614 14.1139 8.84011 14.2133C9.01407 14.3128 9.1421 14.4765 9.19668 14.6693C9.25127 14.8622 9.22806 15.0687 9.13205 15.2446C9.03604 15.4205 8.87488 15.5517 8.68317 15.6101C6.76693 16.1556 5.52891 17.1232 5.52891 18.0749C5.52891 19.4528 8.20909 20.9837 12.0553 20.9837C15.9016 20.9837 18.5833 19.4528 18.5833 18.0749C18.5833 17.1232 17.3453 16.1556 15.429 15.6101C15.3323 15.5826 15.242 15.5363 15.1632 15.4739C15.0844 15.4115 15.0186 15.3341 14.9697 15.2463C14.8709 15.0689 14.8466 14.8595 14.9021 14.6642C14.9577 14.4689 15.0886 14.3037 15.266 14.2049C15.4433 14.1061 15.6527 14.0818 15.848 14.1373C18.5195 14.8977 20.1143 16.37 20.1143 18.0749C20.1143 19.3604 19.2064 20.5245 17.5576 21.3568C16.0756 22.1034 14.1221 22.5147 12.0574 22.5147Z" fill="#005AA3"/>
</svg>
