<svg xmlns="http://www.w3.org/2000/svg" width="24" height="24" viewBox="0 0 24 24" fill="none">
<g clip-path="url(#clip0_7_56856)">
<path d="M22.5 16.5H21V22.5H22.5V16.5Z" fill="#005AA3"/>
<path d="M19.5 13.5H18V22.5H19.5V13.5Z" fill="#005AA3"/>
<path d="M16.5 19.5H15V22.5H16.5V19.5Z" fill="#005AA3"/>
<path d="M6.75 12C5.71165 12 4.69662 12.3079 3.83326 12.8848C2.9699 13.4617 2.29699 14.2816 1.89963 15.2409C1.50227 16.2002 1.39831 17.2558 1.60088 18.2742C1.80345 19.2926 2.30347 20.2281 3.03769 20.9623C3.77192 21.6965 4.70738 22.1966 5.72578 22.3991C6.74418 22.6017 7.79978 22.4977 8.75909 22.1004C9.7184 21.703 10.5383 21.0301 11.1152 20.1667C11.6921 19.3034 12 18.2884 12 17.25C11.9985 15.8581 11.4448 14.5236 10.4606 13.5394C9.47637 12.5552 8.14191 12.0015 6.75 12ZM10.4242 16.5H7.5V13.5758C8.21982 13.7242 8.88039 14.0802 9.40008 14.5999C9.91977 15.1196 10.2758 15.7802 10.4242 16.5ZM6.75 21C5.82075 20.9999 4.92461 20.6548 4.23532 20.0316C3.54603 19.4084 3.11268 18.5515 3.01928 17.6269C2.92588 16.7024 3.17909 15.7761 3.72981 15.0276C4.28053 14.2791 5.08954 13.7617 6 13.5758V16.5C6 16.8978 6.15804 17.2794 6.43934 17.5607C6.72065 17.842 7.10218 18 7.5 18H10.4242C10.2503 18.8464 9.78984 19.6069 9.12056 20.1534C8.45128 20.6998 7.61405 20.9988 6.75 21Z" fill="#005AA3"/>
<path d="M16.9014 9L19.9014 4.5H22.5V3H19.0986L16.0986 7.5H13.5V1.5H12V10.5C12 10.8978 12.158 11.2794 12.4393 11.5607C12.7206 11.842 13.1022 12 13.5 12H22.5V10.5H13.5V9H16.9014Z" fill="#005AA3"/>
<path d="M8.25 6C8.66421 6 9 5.66421 9 5.25C9 4.83579 8.66421 4.5 8.25 4.5C7.83579 4.5 7.5 4.83579 7.5 5.25C7.5 5.66421 7.83579 6 8.25 6Z" fill="#005AA3"/>
<path d="M6.75 9C7.16421 9 7.5 8.66421 7.5 8.25C7.5 7.83579 7.16421 7.5 6.75 7.5C6.33579 7.5 6 7.83579 6 8.25C6 8.66421 6.33579 9 6.75 9Z" fill="#005AA3"/>
<path d="M5.25 4.5C5.66421 4.5 6 4.16421 6 3.75C6 3.33579 5.66421 3 5.25 3C4.83579 3 4.5 3.33579 4.5 3.75C4.5 4.16421 4.83579 4.5 5.25 4.5Z" fill="#005AA3"/>
<path d="M3.75 7.5C4.16421 7.5 4.5 7.16421 4.5 6.75C4.5 6.33579 4.16421 6 3.75 6C3.33579 6 3 6.33579 3 6.75C3 7.16421 3.33579 7.5 3.75 7.5Z" fill="#005AA3"/>
<path d="M2.25 10.5C2.66421 10.5 3 10.1642 3 9.75C3 9.33579 2.66421 9 2.25 9C1.83579 9 1.5 9.33579 1.5 9.75C1.5 10.1642 1.83579 10.5 2.25 10.5Z" fill="#005AA3"/>
</g>
<defs>
<clipPath id="clip0_7_56856">
<rect width="24" height="24" fill="white"/>
</clipPath>
</defs>
</svg>