<svg width="20" height="24" viewBox="0 0 20 24" fill="none" xmlns="http://www.w3.org/2000/svg">
<path fill-rule="evenodd" clip-rule="evenodd" d="M13.73 1.5H2C1.72386 1.5 1.5 1.72386 1.5 2V22C1.5 22.2761 1.72386 22.5 2 22.5H18C18.2761 22.5 18.5 22.2761 18.5 22V7.66895C18.5 7.56042 18.4647 7.45483 18.3994 7.36813L14.1294 1.69918C14.0349 1.57376 13.887 1.5 13.73 1.5ZM2 0C0.89543 0 0 0.89543 0 2V22C0 23.1046 0.895431 24 2 24H18C19.1046 24 20 23.1046 20 22V7.66895C20 7.23481 19.8587 6.81245 19.5975 6.46566L15.3275 0.796709C14.9497 0.295033 14.3581 0 13.73 0H2Z" fill="#0083CA"/>
<path d="M4.5 9H15.5V10.5H4.5V9Z" fill="#0083CA"/>
<path d="M4.5 13H15.5V14.5H4.5V13Z" fill="#0083CA"/>
<path d="M4.5 17H15.5V18.5H4.5V17Z" fill="#0083CA"/>
</svg>
