<svg width="129" height="56" viewBox="0 0 129 56" fill="none" xmlns="http://www.w3.org/2000/svg">
<path d="M83.4895 41.1948C81.073 41.8344 77.9251 42.1503 75.1865 42.1503C68.1621 42.1503 63.5105 38.4147 63.5105 31.5775C63.5105 25.1063 67.8432 20.9149 74.1855 20.9149C75.5991 20.9149 77.1028 21.0946 78.0162 21.5523V12.1587H83.4895V41.1948ZM78.0162 26.3824C77.1495 25.9722 76.0095 25.7444 74.639 25.7444C71.3119 25.7444 69.076 27.7964 69.076 31.3962C69.076 35.271 71.4924 37.4599 75.3698 37.4599C76.0544 37.4599 77.1028 37.4125 78.0155 37.2321L78.0162 26.3824ZM128.4 41.1948C125.981 41.8344 122.834 42.1503 120.097 42.1503C113.074 42.1503 108.42 38.4147 108.42 31.5775C108.42 25.1063 112.754 20.9149 119.095 20.9149C120.508 20.9149 122.013 21.0946 122.926 21.5523V12.1587H128.399L128.4 41.1948ZM122.926 26.3824C122.059 25.9722 120.918 25.7444 119.551 25.7444C116.222 25.7444 113.987 27.7964 113.987 31.3962C113.987 35.271 116.404 37.4599 120.281 37.4599C120.964 37.4599 122.014 37.4125 122.926 37.2321V26.3824ZM92.096 26.3378C93.0073 25.9722 94.2824 25.8366 95.3775 25.8366C98.7535 25.8366 101.08 27.7964 101.08 31.3022C101.08 35.4408 98.503 37.3124 95.058 37.3605V42.1492C95.1489 42.1492 95.2406 42.1492 95.3333 42.1492C102.402 42.1492 106.644 38.1855 106.644 31.1211C106.644 24.6947 102.13 20.9142 95.4704 20.9142C92.0967 20.9142 88.765 21.6893 86.5746 22.6V49.9024H92.0946L92.096 26.3378Z" fill="#3C3C3B"/>
<path d="M33.8091 24.994C33.6846 25.0577 33.5459 25.0899 33.4061 25.0871C33.266 25.0845 33.1287 25.0472 33.0066 24.9788L31.7051 24.2058C31.5904 24.1304 31.4954 24.0284 31.4284 23.9087L31.4151 23.887C31.3362 23.7641 31.2897 23.6231 31.2801 23.4773L31.2472 21.9628C31.2488 21.8232 31.285 21.6861 31.3528 21.5638C31.4205 21.4416 31.5171 21.3379 31.6346 21.2622L47.2755 12.1557L25.3259 0.199148C25.051 0.0680423 24.7503 0 24.4458 0C24.1411 0 23.8406 0.0680423 23.5657 0.199148L1.61592 12.1557L26.2054 26.4605C26.3243 26.5326 26.423 26.6331 26.4931 26.7531C26.5631 26.873 26.6021 27.0086 26.6068 27.1472V48.0153C26.5993 48.1551 26.5571 48.2909 26.4844 48.4106C26.4116 48.5301 26.3105 48.6299 26.1898 48.7009L24.8659 49.4359C24.7431 49.4968 24.6076 49.5276 24.4706 49.5255H24.4454C24.2992 49.5318 24.154 49.501 24.023 49.4359L22.6953 48.7016C22.5757 48.6299 22.4758 48.5298 22.4043 48.4101C22.3328 48.2907 22.2919 48.1551 22.2854 48.016V29.4133C22.2763 29.3403 22.252 29.27 22.214 29.2073C22.1759 29.1445 22.125 29.0904 22.0646 29.0484L0.400146 16.4459V41.1301C0.400146 41.6824 0.78959 42.3635 1.26733 42.6447L23.5789 55.7923C23.8474 55.9288 24.1442 56 24.4454 56C24.7466 56 25.0436 55.9288 25.3119 55.7923L47.6274 42.6426C48.1032 42.36 48.492 41.6824 48.4913 41.128V16.4459L33.8091 24.994Z" fill="url(#paint0_linear_7396_16101)"/>
<defs>
<linearGradient id="paint0_linear_7396_16101" x1="1.09808" y1="89.3321" x2="45.6186" y2="29.6606" gradientUnits="userSpaceOnUse">
<stop stop-color="#BE0737"/>
<stop offset="0.04" stop-color="#C00736"/>
<stop offset="0.63" stop-color="#D8062C"/>
<stop offset="1" stop-color="#E10528"/>
</linearGradient>
</defs>
</svg>
