<svg width="20" height="20" viewBox="0 0 20 20" fill="none" xmlns="http://www.w3.org/2000/svg">
<path fill-rule="evenodd" clip-rule="evenodd" d="M2.88327 10C2.88937 10.0111 2.89576 10.0226 2.90241 10.0346C2.98364 10.1807 3.10593 10.3913 3.26787 10.645C3.59226 11.1531 4.07304 11.8296 4.69844 12.5044C5.95679 13.8622 7.75155 15.1628 10 15.1628C12.2485 15.1628 14.0433 13.8622 15.3016 12.5044C15.927 11.8296 16.4078 11.1531 16.7322 10.645C16.8941 10.3913 17.0164 10.1807 17.0977 10.0346C17.1043 10.0226 17.1107 10.0111 17.1168 10C17.1107 9.98891 17.1043 9.97737 17.0977 9.9654C17.0164 9.81931 16.8941 9.60867 16.7322 9.35501C16.4078 8.84689 15.927 8.17045 15.3016 7.4956C14.0433 6.13777 12.2485 4.83721 10 4.83721C7.75155 4.83721 5.95679 6.13777 4.69844 7.4956C4.07304 8.17045 3.59226 8.84689 3.26787 9.35501C3.10593 9.60867 2.98364 9.81931 2.90241 9.9654C2.89576 9.97737 2.88937 9.98891 2.88327 10ZM17.5863 10C17.9564 9.81279 17.9563 9.81264 17.9562 9.81247L17.9554 9.81075L17.9533 9.80668L17.9462 9.79259C17.9401 9.7806 17.9313 9.76347 17.9199 9.74153C17.8969 9.69766 17.8632 9.63455 17.819 9.55495C17.7305 9.3958 17.5995 9.1704 17.4274 8.9008C17.0837 8.36241 16.5731 7.64351 15.9054 6.923C14.5775 5.49014 12.5792 4 10 4C7.42092 4 5.42256 5.49014 4.09468 6.923C3.42697 7.64351 2.91638 8.36241 2.57266 8.9008C2.40054 9.1704 2.2696 9.3958 2.18111 9.55495C2.13684 9.63455 2.10316 9.69766 2.08021 9.74153C2.06873 9.76347 2.05994 9.7806 2.05385 9.79259L2.04673 9.80668L2.0447 9.81075L2.04407 9.81203C2.04398 9.8122 2.04369 9.81279 2.4138 10L2.04369 9.81279C1.98544 9.93064 1.98544 10.0694 2.04369 10.1872L2.4138 10C2.04369 10.1872 2.0436 10.187 2.04369 10.1872L2.04407 10.188L2.0447 10.1893L2.04673 10.1933L2.05385 10.2074C2.05994 10.2194 2.06873 10.2365 2.08021 10.2585C2.10316 10.3023 2.13684 10.3655 2.18111 10.4451C2.2696 10.6042 2.40054 10.8296 2.57266 11.0992C2.91638 11.6376 3.42697 12.3565 4.09468 13.077C5.42256 14.5099 7.42092 16 10 16C12.5792 16 14.5775 14.5099 15.9054 13.077C16.5731 12.3565 17.0837 11.6376 17.4274 11.0992C17.5995 10.8296 17.7305 10.6042 17.819 10.4451C17.8632 10.3655 17.8969 10.3023 17.9199 10.2585C17.9313 10.2365 17.9401 10.2194 17.9462 10.2074L17.9533 10.1933L17.9554 10.1893L17.956 10.188C17.9561 10.1878 17.9564 10.1872 17.5863 10ZM17.5863 10L17.9564 10.1872C18.0146 10.0694 18.0145 9.93032 17.9562 9.81247L17.5863 10Z" fill="#0083CA"/>
<path fill-rule="evenodd" clip-rule="evenodd" d="M10 8C8.89543 8 8 8.89543 8 10C8 11.1046 8.89543 12 10 12C11.1046 12 12 11.1046 12 10C12 8.89543 11.1046 8 10 8ZM7 10C7 8.34315 8.34315 7 10 7C11.6569 7 13 8.34315 13 10C13 11.6569 11.6569 13 10 13C8.34315 13 7 11.6569 7 10Z" fill="#0083CA"/>
</svg>
