<svg width="24" height="24" viewBox="0 0 24 24" fill="none" xmlns="http://www.w3.org/2000/svg">
<path d="M12 20.8C14.3339 20.8 16.5722 19.8729 18.2225 18.2225C19.8729 16.5722 20.8 14.3339 20.8 12C20.8 9.66609 19.8729 7.42778 18.2225 5.77746C16.5722 4.12714 14.3339 3.2 12 3.2M12 20.8C9.66609 20.8 7.42778 19.8729 5.77746 18.2225C4.12714 16.5722 3.2 14.3339 3.2 12M12 20.8V23M12 3.2C9.66609 3.2 7.42778 4.12714 5.77746 5.77746C4.12714 7.42778 3.2 9.66609 3.2 12M12 3.2V1M3.2 12H1M14.2 12C14.2 12.5835 13.9682 13.1431 13.5556 13.5556C13.1431 13.9682 12.5835 14.2 12 14.2C11.4165 14.2 10.8569 13.9682 10.4444 13.5556C10.0318 13.1431 9.8 12.5835 9.8 12C9.8 11.4165 10.0318 10.8569 10.4444 10.4444C10.8569 10.0318 11.4165 9.8 12 9.8C12.5835 9.8 13.1431 10.0318 13.5556 10.4444C13.9682 10.8569 14.2 11.4165 14.2 12ZM14.2 12H23M17.5 21.526L16.4 19.623M10.9 10.097L6.5 2.474M21.526 17.5L19.623 16.4M2.474 6.5L4.377 7.6M21.526 6.5L19.623 7.6M2.474 17.5L4.377 16.4M17.5 2.474L16.4 4.377M10.9 13.903L6.5 21.526" stroke="#0083CA" stroke-width="1.6" stroke-linecap="round" stroke-linejoin="round"/>
</svg>
