<svg width="60" height="60" viewBox="0 0 60 60" fill="none" xmlns="http://www.w3.org/2000/svg">
<path d="M30.0104 60C29.7123 60 29.4142 59.9931 29.1161 59.9861L35.2444 43.1384H43.6811C45.1646 43.1384 46.7868 42.0014 47.2929 40.6078L53.9411 22.3388C55.0294 19.3506 53.3172 16.9032 50.1352 16.9032H38.4333L28.6101 43.8941H28.6031L23.0364 59.1957C9.83016 56.055 0 44.1784 0 30.0069C0 16.2445 9.26863 4.64525 21.8995 1.10932L16.1525 16.9032L6.61352 43.1384H12.9705L21.0953 20.8412H25.8717L17.747 43.1384H24.104L31.6742 22.3388C32.7626 19.3506 31.0503 16.9032 27.8683 16.9032H22.5234L28.6586 0.0346576C29.1092 0.013858 29.5529 0 30.0035 0C46.5719 0 60 13.4296 60 30C60 46.5704 46.5789 60 30.0104 60ZM48.1594 20.8274H43.383L36.6932 39.1865H41.4697L48.1594 20.8274Z" fill="#009CDE"/>
</svg>
