<svg width="120" height="48" viewBox="0 0 120 48" fill="none" xmlns="http://www.w3.org/2000/svg">
<g clip-path="url(#clip0_2636_77800)">
<path d="M0.666992 0.953125V11.5295H37.491V0.953125H0.666992ZM35.1903 9.22886H2.96766V3.25379H35.1903V9.22886Z" fill="#00B388"/>
<path d="M7.36894 33.6222V34.9092H2.14075V38.1436H6.89546V39.3973H2.14075V42.9183H7.36894V44.2053H0.666992V33.629H7.36894V33.6222ZM11.01 44.1987H9.56957V36.4098H10.9233V37.8634C11.4835 36.8832 12.3771 36.2364 13.5307 36.2364C15.3446 36.2364 16.4116 37.4234 16.4116 39.1973V44.192H14.9712V39.2305C14.9712 38.1969 14.431 37.59 13.2306 37.59C12.197 37.59 11.3168 38.2837 11.0167 39.2173V44.192L11.01 44.1987ZM22.2999 44.3653C20.3527 44.3653 19.5725 43.5184 19.5725 41.9781V37.6768H17.932V36.4098H19.5725V34.3959H21.0129V36.4098H23.2269V37.6768H21.0129V41.838C21.0129 42.7716 21.5397 43.0183 22.4333 43.0183C22.6667 43.0183 22.9068 42.985 23.1068 42.9183H23.2269V44.1853C23.0068 44.272 22.7001 44.3521 22.2933 44.3521L22.2999 44.3653ZM28.6284 44.3653C26.041 44.3653 24.3939 42.8449 24.3939 40.3909C24.3939 37.9368 25.921 36.243 28.1483 36.243C30.3756 36.243 31.616 37.7835 31.616 40.0708V40.8311H25.881C26.081 42.3515 27.168 43.0651 28.6418 43.0651C29.5554 43.0651 30.2489 42.9116 30.9291 42.4249H31.0825V43.6586C30.389 44.1854 29.4887 44.3653 28.6284 44.3653ZM25.901 39.6907H30.2156C30.1622 38.2703 29.422 37.5101 28.1683 37.5101C26.9146 37.5101 26.0877 38.4237 25.901 39.6907ZM37.9178 37.8769C37.7178 37.7768 37.411 37.7102 37.0909 37.7102C36.1773 37.7102 35.4504 38.3569 35.1437 39.4039V44.192H33.7033V36.403H35.057V38.0769C35.5171 36.8099 36.344 36.2831 37.271 36.2831C37.6111 36.2831 37.9111 36.3363 38.0312 36.403V37.8769H37.9111H37.9178ZM40.912 42.9183V47.0462H39.4716V36.403H40.8253V37.7435C41.2855 36.9499 42.1791 36.2364 43.3794 36.2364C45.7334 36.2364 46.9671 38.0968 46.9671 40.2108C46.9671 42.3247 45.7334 44.272 43.3794 44.272C42.2657 44.272 41.3855 43.6652 40.9053 42.9183H40.912ZM45.5 40.2108C45.5 38.6371 44.6198 37.59 43.046 37.59C42.1124 37.59 41.3721 38.0835 40.912 38.9305V41.6045C41.3721 42.4314 42.1124 42.945 43.046 42.945C44.6198 42.945 45.5 41.8579 45.5 40.2175V40.2108ZM53.3556 37.8769C53.1556 37.7768 52.8488 37.7102 52.5287 37.7102C51.6151 37.7102 50.8882 38.3569 50.5815 39.4039V44.192H49.1411V36.403H50.4948V38.0769C50.9483 36.8099 51.7818 36.2831 52.7088 36.2831C53.0489 36.2831 53.349 36.3363 53.469 36.403V37.8769H53.349H53.3556ZM55.8097 35.6228C55.2695 35.6228 54.776 35.1627 54.776 34.6092C54.776 34.0557 55.2695 33.609 55.8097 33.609C56.3498 33.609 56.8433 34.049 56.8433 34.6092C56.8433 35.1693 56.3698 35.6228 55.8097 35.6228ZM56.5232 44.1853H55.0828V36.3964H56.5232V44.1853ZM58.8572 42.3382H58.9906C59.6308 42.865 60.5844 43.1316 61.478 43.1316C62.3249 43.1316 63.0718 42.8116 63.0718 42.118C63.0718 41.4245 62.4449 41.2711 61.2112 40.8643C60.1109 40.4909 58.8772 40.1042 58.8772 38.6304C58.8772 37.1567 60.1309 36.2296 61.7381 36.2296C62.6517 36.2296 63.4652 36.4165 64.1388 36.8699V38.1903H63.9854C63.3785 37.7302 62.645 37.4434 61.7514 37.4434C60.8578 37.4434 60.331 37.8501 60.331 38.4236C60.331 39.0638 60.8711 39.2372 62.1448 39.6241C63.2785 39.9974 64.5322 40.4375 64.5322 41.9114C64.5322 43.5184 63.2118 44.3453 61.5047 44.3453C60.471 44.3453 59.4374 44.092 58.8639 43.6319V42.3247L58.8572 42.3382ZM70.3806 44.3521C67.7932 44.3521 66.146 42.8317 66.146 40.3776C66.146 37.9236 67.6664 36.2296 69.9004 36.2296C72.1344 36.2296 73.3681 37.7701 73.3681 40.0574V40.8176H67.6331C67.8332 42.3382 68.9201 43.0517 70.3939 43.0517C71.3075 43.0517 72.001 42.8982 72.6812 42.4114H72.8346V43.6451C72.1411 44.1719 71.2408 44.3521 70.3806 44.3521ZM67.6531 39.6773H71.9677C71.9143 38.2569 71.1741 37.4967 69.9204 37.4967C68.6667 37.4967 67.8398 38.4103 67.6531 39.6773ZM9.55624 18.5312V29.1077H7.25557V24.7264H2.96766V29.1077H0.666992V18.5312H2.96766V22.7125H7.2489V18.5312H9.54957H9.55624ZM15.7981 29.2943C12.8839 29.2943 11.3301 27.7205 11.3301 25.1798C11.3301 22.639 12.9572 20.9653 15.3046 20.9653C17.8453 20.9653 19.1124 22.5591 19.1124 24.9398V25.8333H13.6974C13.8642 27.1403 14.8978 27.4739 15.9114 27.4739C16.825 27.4739 17.5386 27.3537 18.2788 26.9536H18.5322V28.6142C17.852 29.1077 16.7717 29.2943 15.7914 29.2943H15.7981ZM13.6841 24.3862H16.8517C16.785 23.1992 16.2782 22.6791 15.3446 22.6791C14.551 22.6791 13.8375 23.0525 13.6841 24.3862ZM21.8265 29.1077L20.166 21.4254V21.152H22.2999L23.2002 25.9934L23.4203 27.5471L23.727 25.9934L24.8073 21.152H27.228L28.295 25.9934L28.6151 27.5471L28.8685 25.9934L29.7688 21.152H31.8027V21.4254L30.1289 29.1077H27.1814L26.2344 24.8598L25.961 23.2659L25.6876 24.8598L24.754 29.1077H21.8265ZM35.8572 29.2943C34.1634 29.2943 33.3165 28.5141 33.3165 26.7069V18.5312H35.6171V26.5536C35.6171 27.1138 35.8505 27.3004 36.3974 27.3004C36.5641 27.3004 36.8375 27.247 37.0042 27.2003H37.0376V29.1143C36.7841 29.201 36.2907 29.3011 35.8505 29.3011L35.8572 29.2943ZM42.1857 29.2943C39.2715 29.2943 37.7178 27.7205 37.7178 25.1798C37.7178 22.639 39.3449 20.9653 41.6922 20.9653C44.233 20.9653 45.5 22.5591 45.5 24.9398V25.8333H40.0851C40.2518 27.1403 41.2855 27.4739 42.2991 27.4739C43.2127 27.4739 43.9262 27.3537 44.6664 26.9536H44.9198V28.6142C44.2396 29.1077 43.1593 29.2943 42.1791 29.2943H42.1857ZM40.0718 24.3862H43.2394C43.1727 23.1992 42.6659 22.6791 41.7323 22.6791C40.9387 22.6791 40.2251 23.0525 40.0718 24.3862ZM53.3089 26.2134V23.0459H49.9413V26.1068C49.9413 26.9204 50.2147 27.2938 50.9749 27.2938C51.195 27.2938 51.4818 27.2271 51.6351 27.1604H51.8552V29.0543C51.5484 29.1543 51.095 29.2877 50.4148 29.2877C48.4675 29.2877 47.6406 28.3541 47.6406 26.2068V23.0392H46.2669V21.1453H47.6406V19.2181H49.9413V21.1453H53.3089V19.2181H55.6096V21.1453H57.5235V23.0392H55.6096V26.1C55.6096 26.9136 55.883 27.2871 56.6432 27.2871C56.8633 27.2871 57.1501 27.2204 57.3034 27.1537H57.5235V29.0476C57.2167 29.1476 56.7633 29.281 56.0831 29.281C54.1359 29.281 53.3089 28.354 53.3089 26.2001V26.2134ZM64.2921 25.84V29.1077H62.0048V18.5312H66.1193C68.4533 18.5312 69.9938 19.8183 69.9938 22.2057C69.9938 24.593 68.4533 25.8467 66.1193 25.8467H64.2921V25.84ZM65.9326 20.4785H64.2921V23.8995H65.9326C67.0996 23.8995 67.6598 23.206 67.6598 22.2057C67.6598 21.172 67.0996 20.4785 65.9326 20.4785ZM75.8488 27.9272C75.3754 28.8075 74.5084 29.1943 73.4481 29.1943C71.9744 29.1943 70.754 28.3473 70.754 26.7736C70.754 25.1998 71.821 24.2863 73.8349 24.2863C74.4951 24.2863 75.1553 24.353 75.7821 24.4729V24.0128C75.7821 23.1658 75.1886 22.7924 74.0016 22.7924C73.1214 22.7924 72.3945 22.9791 71.7876 23.2859H71.5342V21.5588C72.1411 21.2387 73.2281 20.9653 74.275 20.9653C76.7624 20.9653 78.0495 22.099 78.0495 24.0662V29.1077H75.8488V27.9207V27.9272ZM75.7821 26.6269V25.6133C75.3887 25.4933 74.8819 25.4599 74.4751 25.4599C73.5415 25.4599 73.068 25.8134 73.068 26.5403C73.068 27.2671 73.5415 27.5539 74.235 27.5539C74.9286 27.5539 75.5554 27.2137 75.7755 26.6269H75.7821ZM79.7433 25.1532C79.7433 22.5791 81.5571 20.972 83.9112 20.972C84.8781 20.972 85.6183 21.192 86.1251 21.5321V23.5259H85.8917C85.3983 23.1525 84.8581 22.9858 84.1646 22.9858C83.0309 22.9858 82.1173 23.7795 82.1173 25.1532C82.1173 26.5269 83.0309 27.2871 84.1646 27.2871C84.8581 27.2871 85.3983 27.1203 85.8917 26.747H86.1251V28.7409C85.6183 29.081 84.8714 29.3011 83.9112 29.3011C81.5571 29.3011 79.7433 27.7139 79.7433 25.1532ZM90.1996 25.2532V29.1143H87.899V18.5378H90.1996V24.5662L90.7398 23.7528L92.8538 21.1653H95.2878V21.4387L92.3403 24.7731L95.2878 28.8542V29.1276H92.7004L90.7331 26.2134L90.193 25.2666L90.1996 25.2532ZM100.929 27.9272C100.456 28.8075 99.589 29.1943 98.5287 29.1943C97.055 29.1943 95.8346 28.3473 95.8346 26.7736C95.8346 25.1998 96.9016 24.2863 98.9155 24.2863C99.5757 24.2863 100.236 24.353 100.863 24.4729V24.0128C100.863 23.1658 100.269 22.7924 99.0822 22.7924C98.202 22.7924 97.4751 22.9791 96.8683 23.2859H96.6149V21.5588C97.2217 21.2387 98.3087 20.9653 99.3556 20.9653C101.843 20.9653 103.13 22.099 103.13 24.0662V29.1077H100.929V27.9207V27.9272ZM100.863 26.6269V25.6133C100.476 25.4933 99.9625 25.4599 99.5624 25.4599C98.6288 25.4599 98.1553 25.8134 98.1553 26.5403C98.1553 27.2671 98.6288 27.5539 99.3223 27.5539C100.016 27.5539 100.643 27.2137 100.863 26.6269ZM107.431 22.7658C107.858 21.5788 108.752 21.072 109.665 21.072C109.972 21.072 110.225 21.1587 110.325 21.2054V23.386H110.085C109.852 23.266 109.612 23.1992 109.292 23.1992C108.378 23.1992 107.718 23.6193 107.531 24.5196V29.1077H105.231V21.152H107.431V22.7591V22.7658ZM116.981 27.9939C116.454 28.8209 115.627 29.2943 114.593 29.2943C112.426 29.2943 111.092 27.5471 111.092 25.1465C111.092 22.7457 112.433 20.9653 114.593 20.9653C115.56 20.9653 116.354 21.3853 116.881 22.1189V18.5312H119.181V29.1077H116.981V27.9939ZM116.881 26.5201V23.746C116.454 23.1392 115.88 22.8458 115.22 22.8458C114.173 22.8458 113.46 23.6593 113.46 25.1465C113.46 26.6335 114.173 27.4137 115.22 27.4137C115.88 27.4137 116.454 27.127 116.881 26.5201Z" fill="black"/>
</g>
<defs>
<clipPath id="clip0_2636_77800">
<rect width="119" height="48" fill="white" transform="translate(0.666992)"/>
</clipPath>
</defs>
</svg>
