<svg width="100" height="42" viewBox="0 0 100 42" fill="none" xmlns="http://www.w3.org/2000/svg">
<path d="M100 3.68214H83.3584L84.3825 0.8125H100V3.68214Z" fill="#5082C3"/>
<path d="M55.623 0.8125H71.0807L72.0942 3.69282C72.1048 3.69282 55.6337 3.69282 55.6337 3.69282C55.6337 3.68215 55.623 0.8125 55.623 0.8125Z" fill="#5082C3"/>
<path d="M43.354 0.815333C45.9036 1.06069 48.1118 1.96746 50 3.68498H21.9863V0.804688L43.354 0.815333Z" fill="#5082C3"/>
<path d="M19.4571 0.8125H-0.000976562V3.68214H19.4571V0.8125Z" fill="#5082C3"/>
<path d="M99.9996 9.06994H81.4482C81.4482 9.06994 82.4617 6.21094 82.451 6.21094H99.9996V9.06994Z" fill="#5082C3"/>
<path d="M74.0037 9.06994H55.623V6.21094H73.0009L74.0037 9.06994Z" fill="#5082C3"/>
<path d="M52.187 6.21094C52.5604 7.14971 52.9978 7.96048 52.9978 9.06994H21.9971V6.21094H52.187Z" fill="#5082C3"/>
<path d="M19.4571 6.21094H-0.000976562V9.06994H19.4571V6.21094Z" fill="#5082C3"/>
<path d="M79.5508 14.4712L80.5642 11.6016H94.4964V14.4605L79.5508 14.4712Z" fill="#5082C3"/>
<path d="M74.898 11.6016L75.9114 14.4712H61.1045V11.6016H74.898Z" fill="#5082C3"/>
<path d="M53.2319 11.6016C53.2319 12.583 53.1039 13.6071 52.8266 14.4712H44.335V11.6016H53.2319Z" fill="#5082C3"/>
<path d="M13.7933 11.6094H5.42969V14.4683H13.7933V11.6094Z" fill="#5082C3"/>
<path d="M35.973 11.6016H27.6201V14.4712H35.973V11.6016Z" fill="#5082C3"/>
<path d="M69.3294 17.5656V19.7418H61.1045V16.8828H76.7755L77.7463 19.5498L78.6851 16.8828H94.4841V19.7418H86.3019V17.5656L85.5445 19.7418H70.0868L69.3294 17.5656Z" fill="#5082C3"/>
<path d="M27.6182 16.8984H51.5887C51.066 17.8585 50.1166 19.0213 49.2098 19.7574H27.6182C27.6182 19.7467 27.6182 16.8984 27.6182 16.8984Z" fill="#5082C3"/>
<path d="M13.7933 16.8828H5.42969V19.7418H13.7933V16.8828Z" fill="#5082C3"/>
<path d="M94.485 22.2734H86.3027V25.1324H94.485V22.2734Z" fill="#5082C3"/>
<path d="M69.3294 22.2734H61.1045V25.1324H69.3294C69.3294 25.1324 69.3401 22.2734 69.3294 22.2734Z" fill="#5082C3"/>
<path d="M84.6498 22.2735C84.6071 22.2735 83.6897 25.1324 83.6577 25.1324H71.9978C71.9871 25.1324 70.9736 22.2628 70.9736 22.2735H84.6498Z" fill="#5082C3"/>
<path d="M27.6182 22.2734H49.1671C50.1486 23.0949 51.0447 24.1083 51.7381 25.1324C51.7807 25.1324 27.6182 25.1324 27.6182 25.1324V22.2734Z" fill="#5082C3"/>
<path d="M13.7943 25.1324V22.2734H5.44141V25.1324H13.7943Z" fill="#5082C3"/>
<path d="M94.485 27.6641H86.3027V30.5231H94.485V27.6641Z" fill="#5082C3"/>
<path d="M69.3304 27.6641H61.1055V30.5231H69.3304V27.6641Z" fill="#5082C3"/>
<path d="M81.7362 30.5337C81.7362 30.523 82.7497 27.6641 82.7603 27.6641H72.8499C72.8286 27.6641 73.8634 30.5231 73.8634 30.5231C73.8634 30.5231 81.7362 30.5444 81.7362 30.5337Z" fill="#5082C3"/>
<path d="M27.6182 30.5231C27.6182 30.5337 27.6182 27.6641 27.6182 27.6641H36.0884C36.0884 27.6641 36.0991 30.5231 36.0884 30.5231C36.0884 30.5231 27.6182 30.5124 27.6182 30.5231Z" fill="#5082C3"/>
<path d="M52.9333 27.6641C53.3386 28.5282 53.3813 29.5523 53.4667 30.5337H44.4844V27.6641H52.9333Z" fill="#5082C3"/>
<path d="M13.7933 27.6641H5.44043V30.5231H13.7933V27.6641Z" fill="#5082C3"/>
<path d="M99.9896 32.9297H86.3027V35.7887H99.9896V32.9297Z" fill="#5082C3"/>
<path d="M69.3302 32.9297H55.6221V35.7887H69.3302V32.9297Z" fill="#5082C3"/>
<path d="M79.9023 35.7887H75.7206L74.7178 32.9297H80.8624L79.9023 35.7887Z" fill="#5082C3"/>
<path d="M-0.000959049 32.9297V35.7887H19.4465C19.4571 35.7887 19.4358 32.9297 19.4465 32.9297C19.4571 32.9404 -0.0222947 32.9297 -0.000959049 32.9297Z" fill="#5082C3"/>
<path d="M53.1151 32.9297C52.9124 33.8685 52.7204 35.0206 52.0376 35.7887H51.7816H21.9971V32.9297H53.1151Z" fill="#5082C3"/>
<path d="M78.0032 41.19H77.6192L76.6484 38.3203H79.006L78.0032 41.19Z" fill="#5082C3"/>
<path d="M99.9896 38.3203H86.3027V41.19H99.9896V38.3203Z" fill="#5082C3"/>
<path d="M21.9863 41.1871V38.3281C21.9863 38.3281 50.0854 38.3281 50.16 38.3281C48.2718 40.131 45.6902 41.1551 42.8952 41.1871H21.9863Z" fill="#5082C3"/>
<path d="M69.3302 38.3203H55.6221V41.19H69.3302V38.3203Z" fill="#5082C3"/>
<path d="M19.4464 38.331C19.4464 38.331 19.4358 41.1793 19.4464 41.1793C19.4571 41.1793 0.00969125 41.1899 -0.000976562 41.1793V38.3203C-0.000976562 38.3203 19.4358 38.3416 19.4464 38.331Z" fill="#5082C3"/>
</svg>
