<svg width="159" height="23" viewBox="0 0 159 23" fill="none" xmlns="http://www.w3.org/2000/svg">
<g clip-path="url(#clip0_1_19024)">
<mask id="mask0_1_19024" style="mask-type:luminance" maskUnits="userSpaceOnUse" x="0" y="2" width="28" height="21">
<path d="M12.8939 2.08109C11.8932 1.94133 11.4939 2.13058 11.0867 3.10152C11.0713 3.13693 11.0521 3.18739 11.0377 3.22572C10.643 3.15249 10.2385 3.08533 9.80812 3.02682C6.01532 2.50121 3.14844 2.52415 1.66344 2.68111C0.786506 2.76173 0.254751 2.95195 0.233726 3.56472C-0.279983 21.4935 14.5752 22.5602 14.5752 22.5602C15.5738 22.7011 15.9718 22.5105 16.3802 21.5435C16.3953 21.505 16.4138 21.457 16.4327 21.4174C16.8219 21.4895 17.2298 21.5566 17.6569 21.6148C21.4514 22.1432 24.3183 22.117 25.802 21.9605C26.6804 21.8819 27.212 21.6877 27.234 21.0774C27.7447 3.14775 12.8939 2.08109 12.8939 2.08109ZM20.8693 13.5597C20.4102 16.6076 19.7043 18.8106 19.2183 19.919C18.8759 20.7353 18.5408 20.8893 17.7043 20.7743C17.7043 20.7743 5.23656 19.8797 5.66584 4.83242C5.68322 4.31696 6.13204 4.15589 6.86825 4.09084C8.1132 3.95732 10.5187 3.93698 13.7029 4.38004C19.926 5.24105 21.7643 7.65011 20.8693 13.5597Z" fill="white"/>
</mask>
<g mask="url(#mask0_1_19024)">
<path d="M12.8939 2.08109C11.8932 1.94133 11.4939 2.13058 11.0867 3.10152C11.0713 3.13693 11.0521 3.18739 11.0377 3.22572C10.643 3.15249 10.2385 3.08533 9.80812 3.02682C6.01532 2.50121 3.14844 2.52415 1.66344 2.68111C0.786506 2.76173 0.254751 2.95195 0.233726 3.56472C-0.279983 21.4935 14.5752 22.5602 14.5752 22.5602C15.5738 22.7011 15.9718 22.5105 16.3802 21.5435C16.3953 21.505 16.4138 21.457 16.4327 21.4174C16.8219 21.4895 17.2298 21.5566 17.6569 21.6148C21.4514 22.1432 24.3183 22.117 25.802 21.9605C26.6804 21.8819 27.212 21.6877 27.234 21.0774C27.7447 3.14775 12.8939 2.08109 12.8939 2.08109ZM20.8693 13.5597C20.4102 16.6076 19.7043 18.8106 19.2183 19.919C18.8759 20.7353 18.5408 20.8893 17.7043 20.7743C17.7043 20.7743 5.23656 19.8797 5.66584 4.83242C5.68322 4.31696 6.13204 4.15589 6.86825 4.09084C8.1132 3.95732 10.5187 3.93698 13.7029 4.38004C19.926 5.24105 21.7643 7.65011 20.8693 13.5597Z" fill="url(#paint0_linear_1_19024)"/>
</g>
<path d="M156.179 0.598124C155.065 0.598124 154.13 1.46454 154.13 2.60082C154.13 3.75854 155.065 4.625 156.179 4.625C157.29 4.625 158.221 3.75854 158.221 2.60082C158.221 1.46454 157.29 0.598124 156.179 0.598124ZM156.179 4.32941C155.228 4.32941 154.499 3.58653 154.499 2.60082C154.499 1.63722 155.228 0.894505 156.179 0.894505C157.121 0.894505 157.851 1.63722 157.851 2.60082C157.851 3.58653 157.121 4.32941 156.179 4.32941Z" fill="#1D4E9E"/>
<path d="M157.137 2.10963C157.137 1.65776 156.87 1.43654 156.304 1.43654H155.386V3.78906H155.756V2.77651H156.148L156.794 3.78906H157.191L156.511 2.74963C156.865 2.71209 157.137 2.53466 157.137 2.10963ZM156.141 2.48093H155.756V1.7323H156.245C156.495 1.7323 156.767 1.78112 156.767 2.0931C156.767 2.46469 156.469 2.48093 156.141 2.48093Z" fill="#1D4E9E"/>
<path d="M46.3271 22.0547H49.9037V17.0593C48.6958 16.9459 47.5041 16.8271 46.3271 16.7034V22.0547Z" fill="#1D4E9E"/>
<path d="M30.9883 22.0547H34.7447V15.2195C33.4625 15.023 32.2112 14.8192 30.9883 14.6086V22.0547Z" fill="#1D4E9E"/>
<path d="M36.8594 22.0547H40.4295V16.0161C39.2179 15.8613 38.0277 15.6999 36.8594 15.5328V22.0547Z" fill="#1D4E9E"/>
<path d="M131.833 22.0547H135.409V15.024C134.243 15.2087 133.049 15.3878 131.833 15.5606V22.0547Z" fill="#1D4E9E"/>
<path d="M67.1362 19.2281C65.9147 19.2281 64.9226 18.7829 64.2068 18.086C62.756 18.0123 61.3193 17.9317 59.9004 17.8419C61.0299 20.6617 63.8262 22.4141 67.1362 22.4141C70.1931 22.4141 72.8102 20.9157 74.0825 18.4629C72.639 18.426 71.2069 18.3818 69.7884 18.3305C69.1018 18.8848 68.208 19.2281 67.1362 19.2281Z" fill="#1D4E9E"/>
<path d="M76.3867 22.0547H79.9595V18.5655C78.7618 18.5533 77.5717 18.5344 76.3867 18.5107V22.0547Z" fill="#1D4E9E"/>
<path d="M91.7522 22.4141C92.5863 22.4141 93.8378 22.2926 94.5816 21.9373V18.9634C94.137 19.2887 93.2716 19.4058 92.6473 19.4058C91.7128 19.4058 91.1923 19.0896 90.9194 18.5423C89.662 18.5629 88.3977 18.5759 87.125 18.5839C87.3505 21.1311 88.4507 22.4141 91.7522 22.4141Z" fill="#1D4E9E"/>
<path d="M113.61 22.4141C115.872 22.4141 117.989 21.6169 119.655 19.5828L117.093 17.6658C116.199 18.7557 115.039 19.5828 113.251 19.5828C111.823 19.5828 110.599 18.922 109.929 17.7797C108.774 17.8558 107.609 17.9263 106.432 17.9927C107.598 20.7259 110.359 22.4141 113.61 22.4141Z" fill="#1D4E9E"/>
<path d="M96.502 22.0547H100.072V18.2903C98.8906 18.3354 97.7022 18.3771 96.502 18.4124V22.0547Z" fill="#1D4E9E"/>
<path d="M122.362 22.0547H125.939V16.3266C124.765 16.465 123.573 16.5977 122.362 16.7248V22.0547Z" fill="#1D4E9E"/>
<path d="M52.1787 22.0547H55.7536V17.552C54.5487 17.4607 53.3569 17.3654 52.1787 17.2638V22.0547Z" fill="#1D4E9E"/>
<path d="M149.323 14.9811C149.323 17.1939 147.744 19.2281 145.126 19.2281C142.502 19.2281 140.924 17.1939 140.924 14.9811C140.924 14.6638 140.961 14.3511 141.025 14.0464C139.836 14.2723 138.615 14.4929 137.362 14.704C137.36 14.7973 137.351 14.8877 137.351 14.9811C137.351 19.1669 140.001 22.4141 144.407 22.4141C148.708 22.4141 152.78 20.1907 152.78 14.973V11.2544C151.441 11.6542 150.015 12.0409 148.512 12.4145C149.037 13.146 149.323 14.0472 149.323 14.9811Z" fill="#1D4E9E"/>
<mask id="mask1_1_19024" style="mask-type:luminance" maskUnits="userSpaceOnUse" x="36" y="7" width="14" height="11">
<path d="M43.6423 7.55578C43.5469 7.55578 43.4711 7.55984 43.3825 7.56068C43.2918 7.55984 43.2159 7.55578 43.1206 7.55578C38.9347 7.55578 36.8594 10.2379 36.8594 13.1258V15.536C38.0277 15.7031 39.2179 15.8645 40.4295 16.0193V14.8953C40.4295 13.96 40.5413 12.6583 41.1619 11.7626C41.6227 11.1727 42.337 10.7914 43.3791 10.7557C44.4209 10.7914 45.1337 11.1719 45.5944 11.7609C46.2166 12.6568 46.3272 13.9592 46.3272 14.8953V16.7066C47.5041 16.8303 48.6959 16.9491 49.9037 17.0625V13.1258C49.9037 10.2379 47.8249 7.55578 43.6423 7.55578Z" fill="white"/>
</mask>
<g mask="url(#mask1_1_19024)">
<path d="M43.6423 7.55578C43.5469 7.55578 43.4711 7.55984 43.3825 7.56068C43.2918 7.55984 43.2159 7.55578 43.1206 7.55578C38.9347 7.55578 36.8594 10.2379 36.8594 13.1258V15.536C38.0277 15.7031 39.2179 15.8645 40.4295 16.0193V14.8953C40.4295 13.96 40.5413 12.6583 41.1619 11.7626C41.6227 11.1727 42.337 10.7914 43.3791 10.7557C44.4209 10.7914 45.1337 11.1719 45.5944 11.7609C46.2166 12.6568 46.3272 13.9592 46.3272 14.8953V16.7066C47.5041 16.8303 48.6959 16.9491 49.9037 17.0625V13.1258C49.9037 10.2379 47.8249 7.55578 43.6423 7.55578Z" fill="url(#paint1_linear_1_19024)"/>
</g>
<mask id="mask2_1_19024" style="mask-type:luminance" maskUnits="userSpaceOnUse" x="122" y="7" width="14" height="10">
<path d="M129.143 7.55439C129.05 7.55439 128.973 7.55846 128.884 7.5593C128.793 7.55846 128.717 7.55439 128.622 7.55439C124.438 7.55439 122.36 10.2366 122.36 13.1244V16.7266C123.571 16.5996 124.763 16.4668 125.937 16.3284V14.8939C125.937 13.9587 126.047 12.6569 126.668 11.7612C127.129 11.1705 127.842 10.7896 128.882 10.7535C129.922 10.7896 130.635 11.1689 131.096 11.7562C131.722 12.6533 131.831 13.957 131.831 14.8939V15.5624C133.048 15.3896 134.242 15.2105 135.407 15.0258V13.1244C135.407 10.2366 133.329 7.55439 129.143 7.55439Z" fill="white"/>
</mask>
<g mask="url(#mask2_1_19024)">
<path d="M129.143 7.55439C129.05 7.55439 128.973 7.55846 128.884 7.5593C128.793 7.55846 128.717 7.55439 128.622 7.55439C124.438 7.55439 122.36 10.2366 122.36 13.1244V16.7266C123.571 16.5996 124.763 16.4668 125.937 16.3284V14.8939C125.937 13.9587 126.047 12.6569 126.668 11.7612C127.129 11.1705 127.842 10.7896 128.882 10.7535C129.922 10.7896 130.635 11.1689 131.096 11.7562C131.722 12.6533 131.831 13.957 131.831 14.8939V15.5624C133.048 15.3896 134.242 15.2105 135.407 15.0258V13.1244C135.407 10.2366 133.329 7.55439 129.143 7.55439Z" fill="url(#paint2_linear_1_19024)"/>
</g>
<mask id="mask3_1_19024" style="mask-type:luminance" maskUnits="userSpaceOnUse" x="87" y="3" width="8" height="16">
<path d="M90.6537 3.814H87.0771V17.4023C87.0771 17.8234 87.092 18.2175 87.1246 18.5859C88.3973 18.5779 89.6616 18.5648 90.919 18.5443C90.73 18.1678 90.6537 17.6858 90.6537 17.1091V10.9189H94.5812V7.91231H90.6537V3.814Z" fill="white"/>
</mask>
<g mask="url(#mask3_1_19024)">
<path d="M90.6537 3.814H87.0771V17.4023C87.0771 17.8234 87.092 18.2175 87.1246 18.5859C88.3973 18.5779 89.6616 18.5648 90.919 18.5443C90.73 18.1678 90.6537 17.6858 90.6537 17.1091V10.9189H94.5812V7.91231H90.6537V3.814Z" fill="url(#paint3_linear_1_19024)"/>
</g>
<mask id="mask4_1_19024" style="mask-type:luminance" maskUnits="userSpaceOnUse" x="52" y="0" width="8" height="18">
<path d="M55.7546 6.76357C55.7546 5.2062 56.0525 3.84756 58.0457 3.84756C58.553 3.84756 59.0302 3.9372 59.5354 4.05435L59.7761 1.04904C59.0302 0.897997 58.2864 0.842756 57.5108 0.842756C53.0748 0.842756 52.1797 3.40454 52.1797 7.32538V17.2665C53.3579 17.3681 54.5497 17.4634 55.7546 17.5547V10.9166H59.2099V7.91001H55.7546V6.76357Z" fill="white"/>
</mask>
<g mask="url(#mask4_1_19024)">
<path d="M55.7546 6.76357C55.7546 5.2062 56.0525 3.84756 58.0457 3.84756C58.553 3.84756 59.0302 3.9372 59.5354 4.05435L59.7761 1.04904C59.0302 0.897997 58.2864 0.842756 57.5108 0.842756C53.0748 0.842756 52.1797 3.40454 52.1797 7.32538V17.2665C53.3579 17.3681 54.5497 17.4634 55.7546 17.5547V10.9166H59.2099V7.91001H55.7546V6.76357Z" fill="url(#paint4_linear_1_19024)"/>
</g>
<mask id="mask5_1_19024" style="mask-type:luminance" maskUnits="userSpaceOnUse" x="30" y="2" width="5" height="14">
<path d="M30.9883 14.6157C32.2112 14.8263 33.4625 15.0301 34.7447 15.2266V2.01934H30.9883V14.6157Z" fill="white"/>
</mask>
<g mask="url(#mask5_1_19024)">
<path d="M30.9883 14.6157C32.2112 14.8263 33.4625 15.0301 34.7447 15.2266V2.01934H30.9883V14.6157Z" fill="url(#paint5_linear_1_19024)"/>
</g>
<mask id="mask6_1_19024" style="mask-type:luminance" maskUnits="userSpaceOnUse" x="137" y="0" width="16" height="15">
<path d="M149.205 0.603271V9.70434H149.113C148.37 8.79745 146.94 7.55467 144.26 7.55467C140.271 7.55467 137.486 10.6546 137.362 14.7031C138.615 14.4919 139.836 14.2714 141.025 14.0455C141.405 12.232 142.881 10.7398 145.126 10.7398C146.636 10.7398 147.798 11.4185 148.512 12.4136C150.015 12.04 151.441 11.6533 152.78 11.2535V0.603271H149.205Z" fill="white"/>
</mask>
<g mask="url(#mask6_1_19024)">
<path d="M149.205 0.603271V9.70434H149.113C148.37 8.79745 146.94 7.55467 144.26 7.55467C140.271 7.55467 137.486 10.6546 137.362 14.7031C138.615 14.4919 139.836 14.2714 141.025 14.0455C141.405 12.232 142.881 10.7398 145.126 10.7398C146.636 10.7398 147.798 11.4185 148.512 12.4136C150.015 12.04 151.441 11.6533 152.78 11.2535V0.603271H149.205Z" fill="url(#paint6_linear_1_19024)"/>
</g>
<mask id="mask7_1_19024" style="mask-type:luminance" maskUnits="userSpaceOnUse" x="105" y="7" width="16" height="11">
<path d="M113.612 7.55513C109.292 7.55513 105.836 10.5322 105.836 14.9807C105.836 16.0825 106.05 17.0935 106.433 17.9922C107.61 17.9258 108.776 17.8554 109.931 17.7792C109.666 17.3289 109.478 16.8116 109.411 16.2188H120.312V15.2486C120.312 10.3241 117.601 7.55513 113.612 7.55513ZM109.411 13.5716C109.681 11.5363 110.989 10.207 113.104 10.207C115.338 10.207 116.709 11.5058 116.738 13.5716H109.411Z" fill="white"/>
</mask>
<g mask="url(#mask7_1_19024)">
<path d="M113.612 7.55513C109.292 7.55513 105.836 10.5322 105.836 14.9807C105.836 16.0825 106.05 17.0935 106.433 17.9922C107.61 17.9258 108.776 17.8554 109.931 17.7792C109.666 17.3289 109.478 16.8116 109.411 16.2188H120.312V15.2486C120.312 10.3241 117.601 7.55513 113.612 7.55513ZM109.411 13.5716C109.681 11.5363 110.989 10.207 113.104 10.207C115.338 10.207 116.709 11.5058 116.738 13.5716H109.411Z" fill="url(#paint7_linear_1_19024)"/>
</g>
<mask id="mask8_1_19024" style="mask-type:luminance" maskUnits="userSpaceOnUse" x="76" y="7" width="10" height="12">
<path d="M84.955 7.7651C84.7897 7.7302 84.6282 7.6925 84.4544 7.66464C84.1442 7.61746 83.7759 7.58683 83.3148 7.57127C83.2618 7.57127 83.2211 7.55735 83.1699 7.55735C83.0745 7.55735 82.9969 7.56226 82.9105 7.56226C82.8194 7.56226 82.7422 7.55735 82.6469 7.55735C82.5956 7.55735 82.5562 7.57127 82.5015 7.57127C82.0459 7.58683 81.6708 7.61746 81.3627 7.66464C81.1902 7.6925 81.0288 7.7302 80.8609 7.7651C80.8508 7.76904 80.841 7.76904 80.833 7.77475C77.873 8.44046 76.3867 10.6991 76.3867 13.1273V18.5154C77.5717 18.5392 78.7618 18.558 79.9595 18.5703V14.8969C79.9595 13.9493 80.0773 12.6309 80.7206 11.733C80.8198 11.6085 80.9198 11.4872 81.0419 11.386C81.0449 11.386 81.0466 11.3832 81.0466 11.3832C81.4945 11.0071 82.1069 10.7851 82.9105 10.7556C83.6246 10.781 84.1726 10.9804 84.6049 11.2865L85.9475 8.0718C85.6471 7.95448 85.3279 7.85063 84.991 7.77475C84.9774 7.76904 84.966 7.76904 84.955 7.7651Z" fill="white"/>
</mask>
<g mask="url(#mask8_1_19024)">
<path d="M84.955 7.7651C84.7897 7.7302 84.6282 7.6925 84.4544 7.66464C84.1442 7.61746 83.7759 7.58683 83.3148 7.57127C83.2618 7.57127 83.2211 7.55735 83.1699 7.55735C83.0745 7.55735 82.9969 7.56226 82.9105 7.56226C82.8194 7.56226 82.7422 7.55735 82.6469 7.55735C82.5956 7.55735 82.5562 7.57127 82.5015 7.57127C82.0459 7.58683 81.6708 7.61746 81.3627 7.66464C81.1902 7.6925 81.0288 7.7302 80.8609 7.7651C80.8508 7.76904 80.841 7.76904 80.833 7.77475C77.873 8.44046 76.3867 10.6991 76.3867 13.1273V18.5154C77.5717 18.5392 78.7618 18.558 79.9595 18.5703V14.8969C79.9595 13.9493 80.0773 12.6309 80.7206 11.733C80.8198 11.6085 80.9198 11.4872 81.0419 11.386C81.0449 11.386 81.0466 11.3832 81.0466 11.3832C81.4945 11.0071 82.1069 10.7851 82.9105 10.7556C83.6246 10.781 84.1726 10.9804 84.6049 11.2865L85.9475 8.0718C85.6471 7.95448 85.3279 7.85063 84.991 7.77475C84.9774 7.76904 84.966 7.76904 84.955 7.7651Z" fill="url(#paint8_linear_1_19024)"/>
</g>
<mask id="mask9_1_19024" style="mask-type:luminance" maskUnits="userSpaceOnUse" x="96" y="7" width="11" height="12">
<path d="M105.099 7.77168C105.091 7.76598 105.078 7.76598 105.069 7.76204C104.905 7.72714 104.742 7.68943 104.569 7.66158C104.259 7.61439 103.886 7.58377 103.427 7.56821C103.374 7.56821 103.336 7.55428 103.284 7.55428C103.188 7.55428 103.112 7.55919 103.022 7.55919C102.935 7.55919 102.857 7.55428 102.762 7.55428C102.71 7.55428 102.668 7.56821 102.614 7.56821C102.158 7.58377 101.783 7.61439 101.478 7.66158C101.302 7.68943 101.141 7.72714 100.975 7.76204C100.966 7.76598 100.953 7.76598 100.944 7.77168C97.9853 8.43739 96.502 10.696 96.502 13.1243V18.4141C97.7022 18.3788 98.8906 18.3371 100.072 18.292V14.8938C100.072 13.9463 100.192 12.6278 100.834 11.7299C100.937 11.6054 101.033 11.4841 101.154 11.3829C101.157 11.3829 101.157 11.3801 101.16 11.3801C101.605 11.0041 102.22 10.7821 103.022 10.7526C103.738 10.778 104.284 10.9774 104.716 11.2834L106.062 8.06874C105.757 7.95142 105.441 7.84756 105.099 7.77168Z" fill="white"/>
</mask>
<g mask="url(#mask9_1_19024)">
<path d="M105.099 7.77168C105.091 7.76598 105.078 7.76598 105.069 7.76204C104.905 7.72714 104.742 7.68943 104.569 7.66158C104.259 7.61439 103.886 7.58377 103.427 7.56821C103.374 7.56821 103.336 7.55428 103.284 7.55428C103.188 7.55428 103.112 7.55919 103.022 7.55919C102.935 7.55919 102.857 7.55428 102.762 7.55428C102.71 7.55428 102.668 7.56821 102.614 7.56821C102.158 7.58377 101.783 7.61439 101.478 7.66158C101.302 7.68943 101.141 7.72714 100.975 7.76204C100.966 7.76598 100.953 7.76598 100.944 7.77168C97.9853 8.43739 96.502 10.696 96.502 13.1243V18.4141C97.7022 18.3788 98.8906 18.3371 100.072 18.292V14.8938C100.072 13.9463 100.192 12.6278 100.834 11.7299C100.937 11.6054 101.033 11.4841 101.154 11.3829C101.157 11.3829 101.157 11.3801 101.16 11.3801C101.605 11.0041 102.22 10.7821 103.022 10.7526C103.738 10.778 104.284 10.9774 104.716 11.2834L106.062 8.06874C105.757 7.95142 105.441 7.84756 105.099 7.77168Z" fill="url(#paint9_linear_1_19024)"/>
</g>
<mask id="mask10_1_19024" style="mask-type:luminance" maskUnits="userSpaceOnUse" x="59" y="7" width="16" height="12">
<path d="M67.1368 7.55363C62.8164 7.55363 59.3594 10.5307 59.3594 14.9792C59.3594 16.0213 59.5556 16.9781 59.901 17.8399C61.3199 17.9297 62.7567 18.0104 64.2074 18.0841C63.389 17.2869 62.9351 16.1605 62.9351 14.9792C62.9351 12.7738 64.5151 10.7388 67.1368 10.7388C69.7555 10.7388 71.3342 12.7738 71.3342 14.9792C71.3342 16.2867 70.7795 17.5286 69.789 18.3285C71.2075 18.3798 72.6396 18.4241 74.0831 18.4609C74.6065 17.4492 74.907 16.2793 74.907 14.9792C74.907 10.5307 71.4546 7.55363 67.1368 7.55363Z" fill="white"/>
</mask>
<g mask="url(#mask10_1_19024)">
<path d="M67.1368 7.55363C62.8164 7.55363 59.3594 10.5307 59.3594 14.9792C59.3594 16.0213 59.5556 16.9781 59.901 17.8399C61.3199 17.9297 62.7567 18.0104 64.2074 18.0841C63.389 17.2869 62.9351 16.1605 62.9351 14.9792C62.9351 12.7738 64.5151 10.7388 67.1368 10.7388C69.7555 10.7388 71.3342 12.7738 71.3342 14.9792C71.3342 16.2867 70.7795 17.5286 69.789 18.3285C71.2075 18.3798 72.6396 18.4241 74.0831 18.4609C74.6065 17.4492 74.907 16.2793 74.907 14.9792C74.907 10.5307 71.4546 7.55363 67.1368 7.55363Z" fill="url(#paint10_linear_1_19024)"/>
</g>
</g>
<defs>
<linearGradient id="paint0_linear_1_19024" x1="-0.279972" y1="12.321" x2="27.7477" y2="12.321" gradientUnits="userSpaceOnUse">
<stop stop-color="#00ADEF"/>
<stop offset="0.1875" stop-color="#00ADEF"/>
<stop offset="1" stop-color="#2C3797"/>
</linearGradient>
<linearGradient id="paint1_linear_1_19024" x1="30.9876" y1="12.3089" x2="152.781" y2="12.3089" gradientUnits="userSpaceOnUse">
<stop stop-color="#1082CE"/>
<stop offset="0.351563" stop-color="#1082CE"/>
<stop offset="1" stop-color="#1C63B7"/>
</linearGradient>
<linearGradient id="paint2_linear_1_19024" x1="30.9856" y1="12.1402" x2="152.779" y2="12.1402" gradientUnits="userSpaceOnUse">
<stop stop-color="#1082CE"/>
<stop offset="0.351563" stop-color="#1082CE"/>
<stop offset="1" stop-color="#1C63B7"/>
</linearGradient>
<linearGradient id="paint3_linear_1_19024" x1="30.9875" y1="11.1996" x2="152.781" y2="11.1996" gradientUnits="userSpaceOnUse">
<stop stop-color="#1082CE"/>
<stop offset="0.351563" stop-color="#1082CE"/>
<stop offset="1" stop-color="#1C63B7"/>
</linearGradient>
<linearGradient id="paint4_linear_1_19024" x1="30.9886" y1="9.19864" x2="152.782" y2="9.19864" gradientUnits="userSpaceOnUse">
<stop stop-color="#1082CE"/>
<stop offset="0.351563" stop-color="#1082CE"/>
<stop offset="1" stop-color="#1C63B7"/>
</linearGradient>
<linearGradient id="paint5_linear_1_19024" x1="30.988" y1="8.62293" x2="152.781" y2="8.62293" gradientUnits="userSpaceOnUse">
<stop stop-color="#1082CE"/>
<stop offset="0.351563" stop-color="#1082CE"/>
<stop offset="1" stop-color="#1C63B7"/>
</linearGradient>
<linearGradient id="paint6_linear_1_19024" x1="30.9872" y1="7.6532" x2="152.78" y2="7.6532" gradientUnits="userSpaceOnUse">
<stop stop-color="#1082CE"/>
<stop offset="0.351563" stop-color="#1082CE"/>
<stop offset="1" stop-color="#1C63B7"/>
</linearGradient>
<linearGradient id="paint7_linear_1_19024" x1="30.9882" y1="12.7737" x2="152.781" y2="12.7737" gradientUnits="userSpaceOnUse">
<stop stop-color="#1082CE"/>
<stop offset="0.351563" stop-color="#1082CE"/>
<stop offset="1" stop-color="#1C63B7"/>
</linearGradient>
<linearGradient id="paint8_linear_1_19024" x1="30.9873" y1="13.0636" x2="152.78" y2="13.0636" gradientUnits="userSpaceOnUse">
<stop stop-color="#1082CE"/>
<stop offset="0.351563" stop-color="#1082CE"/>
<stop offset="1" stop-color="#1C63B7"/>
</linearGradient>
<linearGradient id="paint9_linear_1_19024" x1="30.9875" y1="12.984" x2="152.781" y2="12.984" gradientUnits="userSpaceOnUse">
<stop stop-color="#1082CE"/>
<stop offset="0.351563" stop-color="#1082CE"/>
<stop offset="1" stop-color="#1C63B7"/>
</linearGradient>
<linearGradient id="paint10_linear_1_19024" x1="30.9888" y1="13.007" x2="152.782" y2="13.007" gradientUnits="userSpaceOnUse">
<stop stop-color="#1082CE"/>
<stop offset="0.351563" stop-color="#1082CE"/>
<stop offset="1" stop-color="#1C63B7"/>
</linearGradient>
<clipPath id="clip0_1_19024">
<rect width="159" height="23" fill="white"/>
</clipPath>
</defs>
</svg>
