<svg width="112" height="38" viewBox="0 0 112 38" fill="none" xmlns="http://www.w3.org/2000/svg">
<path d="M54.916 27.9219H55.5542L58.8328 32.5485V27.9219H59.3928V33.5352H58.8588L55.4793 28.7685V33.5352H54.916V27.9219Z" fill="#6F8FA6"/>
<path d="M60.792 27.9219H64.4157V28.4919H61.3748V30.3452H64.3441V30.9052H61.3748V32.9885H64.4483V33.5352H60.792V27.9219Z" fill="#6F8FA6"/>
<path d="M67.3532 28.4919H65.2988V27.9219H69.997V28.4919H67.9393V33.5352H67.3532V28.4919Z" fill="#6F8FA6"/>
<path d="M70.7061 27.9219H71.3051L72.7474 32.5652L74.2191 27.9219H74.7237L76.1888 32.5652L77.6377 27.9219H78.2009L76.4395 33.5719H75.9381L74.4567 28.8985L72.9851 33.5719H72.474L70.7061 27.9219Z" fill="#6F8FA6"/>
<path d="M78.7256 30.7215C78.7256 28.7215 79.7251 27.8281 81.48 27.8281C83.2414 27.8281 84.2475 28.7215 84.2475 30.7215C84.2475 32.7281 83.2414 33.6215 81.48 33.6215C79.7251 33.6215 78.7256 32.7281 78.7256 30.7215ZM83.6614 30.7281C83.6614 29.2148 82.9744 28.3948 81.48 28.3948C79.9921 28.3948 79.3116 29.2148 79.3116 30.7281C79.3116 32.2515 79.9921 33.0681 81.48 33.0681C82.9744 33.0681 83.6614 32.2515 83.6614 30.7281Z" fill="#6F8FA6"/>
<path d="M87.6495 31.2485H86.0053V33.5352H85.4355V27.9219H87.8025C89.0755 27.9219 89.6518 28.4452 89.6518 29.5585C89.6518 30.5285 89.1993 31.0952 88.2453 31.2252L89.5704 33.5352H88.9486L87.6495 31.2485ZM87.8123 30.7019C88.5904 30.7019 89.069 30.4585 89.069 29.5719C89.069 28.6985 88.6035 28.4719 87.7895 28.4719H86.0053V30.6985H87.8123V30.7019Z" fill="#6F8FA6"/>
<path d="M92.5631 30.5585L91.4692 31.7852V33.5352H90.8994V27.9219H91.4692V31.0219L94.2431 27.9219H94.9171L92.9473 30.1252L95.1841 33.5352H94.5231L92.5631 30.5585Z" fill="#6F8FA6"/>
<path d="M95.6719 32.9681L95.9649 32.5148C96.6226 32.9381 97.2672 33.0815 97.9249 33.0815C99.0579 33.0815 99.5593 32.7548 99.5593 31.9815C99.5593 31.1848 98.9082 31.0715 97.9249 30.8915C96.743 30.6781 95.9421 30.4748 95.9421 29.3381C95.9421 28.2548 96.6226 27.8281 97.9249 27.8281C98.7844 27.8281 99.3965 28.0248 99.8328 28.3281L99.5235 28.8115C99.1295 28.5481 98.5468 28.3715 97.9249 28.3715C96.9416 28.3715 96.5184 28.6515 96.5184 29.3181C96.5184 30.0315 97.0882 30.1648 98.0649 30.3481C99.263 30.5681 100.129 30.7481 100.129 31.9548C100.129 33.0681 99.4356 33.6048 97.9412 33.6048C97.1142 33.6115 96.3654 33.4381 95.6719 32.9681Z" fill="#6F8FA6"/>
<path d="M105.863 4.71875C98.156 4.71875 97.8271 8.25542 97.8271 13.2421V25.4888H99.6439V13.2421C99.6439 9.48208 99.4974 6.46875 105.863 6.46875C106.543 6.46875 107.149 6.50542 107.692 6.57208V4.79875C107.132 4.74542 106.527 4.71875 105.863 4.71875Z" fill="#1D1D1B"/>
<path d="M15.9668 17.5261V5.13281H17.8194V17.5661C17.8194 21.1395 17.7835 24.1561 24.1812 24.1561C30.5431 24.1561 30.3998 21.1395 30.3998 17.3795V5.13281H32.2166V17.3795C32.2166 22.3695 31.8877 25.9028 24.1812 25.9028C16.4389 25.9028 15.9668 22.3661 15.9668 17.5261Z" fill="#1D1D1B"/>
<path d="M51.5427 13.0921V25.4888H49.6902V13.0554C49.6902 9.48208 49.726 6.46542 43.3283 6.46542C36.9665 6.46542 37.1097 9.47875 37.1097 13.2388V25.4854H35.293V13.2421C35.293 8.25208 35.6186 4.71875 43.3283 4.71875C51.0706 4.71875 51.5427 8.25542 51.5427 13.0921Z" fill="#1D1D1B"/>
<path d="M56.6969 5.17188H54.916V25.4952H56.6969V5.17188Z" fill="#1D1D1B"/>
<path d="M60.0277 5.17188H69.3198C73.9267 5.17188 76.017 7.51521 76.017 11.6852C76.017 15.8819 73.9528 18.4319 69.2937 18.4319H61.8053V25.4919H60.0244V5.17188H60.0277ZM69.3491 16.6052C72.5593 16.6052 74.1547 15.0019 74.1547 11.7652C74.1547 8.53187 72.4323 6.99521 69.2677 6.99521H61.8086V16.6052H69.3491Z" fill="#1D1D1B"/>
<path d="M78.0908 15.2551C78.0908 9.26177 79.7643 4.64844 87.2559 4.64844C94.9983 4.64844 95.2522 9.97177 95.2164 15.5918H79.875C79.9108 20.5418 81.109 24.2284 87.3992 24.2284C90.7462 24.2284 92.2699 23.2984 93.9076 22.0718L94.9266 23.4484C93.1099 24.8251 90.9643 25.9051 87.4025 25.9051C79.5462 25.9018 78.0908 21.2484 78.0908 15.2551ZM79.9108 13.8784H93.4355C93.2532 9.82177 92.9992 6.36177 87.2169 6.36177C81.6527 6.35844 80.129 9.44844 79.9108 13.8784Z" fill="#1D1D1B"/>
<path d="M4.80221 29.9028C12.5087 29.9028 12.8376 26.3661 12.8376 21.3795V5.13281H11.0208V21.3795C11.0208 25.1361 11.1673 28.1528 4.80547 28.1528C4.56454 28.1528 4.33663 28.1461 4.11523 28.1361V29.8895C4.33337 29.8995 4.56454 29.9028 4.80221 29.9028Z" fill="#1D1D1B"/>
<path d="M103.626 25.5823C102.932 25.5823 102.369 25.0056 102.369 24.299C102.369 23.5923 102.932 23.0156 103.626 23.0156C104.319 23.0156 104.879 23.5923 104.879 24.299C104.879 25.0056 104.316 25.5823 103.626 25.5823ZM103.626 23.179C103.024 23.179 102.532 23.679 102.532 24.2956C102.532 24.9123 103.02 25.4156 103.626 25.4156C104.228 25.4156 104.717 24.9123 104.717 24.2956C104.717 23.679 104.228 23.179 103.626 23.179Z" fill="#1D1D1B"/>
<path d="M103.707 24.4647H103.303V25.0314H103.111V23.5547H103.753C104.117 23.5547 104.257 23.708 104.257 23.998C104.257 24.2347 104.16 24.4014 103.909 24.448L104.235 25.028H104.026L103.707 24.4647ZM103.753 24.2814C103.948 24.2814 104.062 24.2214 104.062 24.008C104.062 23.7947 103.951 23.7447 103.746 23.7447H103.307V24.2814H103.753Z" fill="#1D1D1B"/>
</svg>
