<svg width="124" height="40" viewBox="0 0 124 40" fill="none" xmlns="http://www.w3.org/2000/svg">
<g clip-path="url(#clip0_2636_77823)">
<mask id="mask0_2636_77823" style="mask-type:luminance" maskUnits="userSpaceOnUse" x="0" y="0" width="124" height="40">
<path d="M0 40V0H124V40H0Z" fill="white"/>
</mask>
<g mask="url(#mask0_2636_77823)">
<path d="M0.000976562 40V0H124.001V40H0.000976562ZM25.862 25.1H15.931V8.441H11.501V29.105H25.862V25.1ZM40.99 15.542C40.1989 14.6702 39.2249 13.984 38.1377 13.5326C37.0505 13.0812 35.8769 12.8758 34.701 12.931C33.6015 12.8937 32.5059 13.0794 31.4802 13.4769C30.4545 13.8744 29.5199 14.4755 28.7327 15.244C27.9455 16.0125 27.3222 16.9324 26.9001 17.9483C26.4781 18.9642 26.2661 20.055 26.277 21.155C26.277 25.955 29.908 29.379 35.185 29.379C37.9541 29.383 40.6122 28.2904 42.578 26.34L39.815 24.218C38.5623 25.335 36.933 25.936 35.255 25.9C34.6113 25.93 33.968 25.8316 33.3627 25.6106C32.7574 25.3897 32.202 25.0506 31.729 24.613L42.901 19.98C42.7016 18.3489 42.0403 16.8088 40.995 15.541L40.99 15.542ZM60.485 19.252C60.5126 18.4025 60.3633 17.5566 60.0463 16.768C59.7293 15.9793 59.2517 15.2653 58.6438 14.6713C58.036 14.0772 57.3112 13.6162 56.5155 13.3174C55.7198 13.0187 54.8706 12.8888 54.022 12.936C53.0213 12.9406 52.0348 13.1722 51.1367 13.6134C50.2385 14.0546 49.4522 14.6938 48.837 15.483V13.192H44.466V29.1H48.837V20.047C48.8427 19.5868 48.9416 19.1324 49.1276 18.7114C49.3136 18.2904 49.5829 17.9114 49.9192 17.5972C50.2556 17.2829 50.652 17.0401 51.0847 16.8831C51.5174 16.7262 51.9774 16.6585 52.437 16.684C52.9 16.6602 53.3631 16.7287 53.7994 16.8853C54.2357 17.042 54.6365 17.2838 54.9786 17.5967C55.3207 17.9096 55.5972 18.2873 55.7921 18.7079C55.987 19.1286 56.0964 19.5837 56.114 20.047V29.1H60.485V19.25V19.252ZM70.792 12.936C69.1776 12.9931 67.6157 13.5241 66.301 14.4627C64.9863 15.4013 63.9769 16.706 63.3985 18.2143C62.8202 19.7226 62.6985 21.3678 63.0486 22.9448C63.3988 24.5217 64.2053 25.9608 65.3676 27.0826C66.5299 28.2044 67.9967 28.9594 69.5851 29.2534C71.1735 29.5474 72.8133 29.3675 74.3002 28.736C75.787 28.1045 77.0551 27.0495 77.9465 25.7023C78.8379 24.3551 79.3131 22.7754 79.313 21.16C79.3018 20.0578 79.0716 18.9688 78.6358 17.9564C78.1999 16.944 77.5672 16.0283 76.7743 15.2626C75.9814 14.4969 75.0443 13.8964 74.0172 13.4961C72.9902 13.0959 71.8939 12.9038 70.792 12.931V12.936ZM91.531 13.2L87.582 24.034L83.63 13.2H78.643L85.188 29.1H89.974L96.519 13.2H91.531ZM104.423 12.931C102.809 12.9881 101.247 13.5191 99.932 14.4577C98.6173 15.3963 97.6079 16.701 97.0295 18.2093C96.4512 19.7176 96.3295 21.3628 96.6796 22.9398C97.0298 24.5167 97.8363 25.9558 98.9986 27.0776C100.161 28.1994 101.628 28.9544 103.216 29.2484C104.804 29.5424 106.444 29.3625 107.931 28.731C109.418 28.0995 110.686 27.0445 111.578 25.6973C112.469 24.3501 112.944 22.7704 112.944 21.155C112.932 20.0532 112.701 18.9648 112.265 17.9529C111.829 16.9411 111.196 16.026 110.404 15.2608C109.611 14.4956 108.674 13.8956 107.647 13.4957C106.62 13.0957 105.524 12.9038 104.423 12.931ZM104.423 25.631C103.847 25.6229 103.278 25.5001 102.75 25.2696C102.222 25.0391 101.745 24.7056 101.348 24.2886C100.95 23.8716 100.64 23.3796 100.434 22.8412C100.229 22.3027 100.134 21.7288 100.153 21.153C100.113 20.5773 100.192 19.9994 100.385 19.4558C100.579 18.9121 100.883 18.4143 101.278 17.9937C101.673 17.573 102.151 17.2387 102.682 17.0116C103.212 16.7845 103.784 16.6695 104.361 16.674C104.937 16.682 105.506 16.8049 106.034 17.0355C106.562 17.2661 107.039 17.5996 107.437 18.0167C107.834 18.4338 108.145 18.926 108.35 19.4645C108.555 20.0031 108.65 20.5771 108.631 21.153C108.666 21.7275 108.584 22.3032 108.388 22.8445C108.193 23.3859 107.888 23.8815 107.494 24.3008C107.1 24.7202 106.624 25.0543 106.095 25.2827C105.567 25.5112 104.998 25.629 104.422 25.629L104.423 25.631ZM70.793 25.631C70.2169 25.6229 69.6482 25.5001 69.1201 25.2696C68.5921 25.0391 68.1153 24.7056 67.7177 24.2886C67.3201 23.8716 67.0096 23.3796 66.8045 22.8412C66.5993 22.3027 66.5036 21.7288 66.523 21.153C66.4827 20.577 66.562 19.9989 66.7559 19.455C66.9497 18.9111 67.254 18.4131 67.6496 17.9925C68.0452 17.5719 68.5235 17.2376 69.0544 17.0107C69.5854 16.7838 70.1576 16.6691 70.735 16.674C71.3107 16.6826 71.8788 16.8058 72.4064 17.0365C72.9339 17.2671 73.4101 17.6006 73.8073 18.0174C74.2045 18.4343 74.5146 18.926 74.7196 19.4641C74.9245 20.0021 75.0202 20.5756 75.001 21.151C75.0366 21.7257 74.9542 22.3016 74.7588 22.8432C74.5634 23.3848 74.2591 23.8806 73.8648 24.3001C73.4705 24.7197 72.9944 25.054 72.4659 25.2826C71.9374 25.5111 71.3678 25.629 70.792 25.629L70.793 25.631ZM31.427 17.991C31.8208 17.4789 32.3311 17.0681 32.9154 16.7926C33.4997 16.5172 34.1413 16.385 34.787 16.407C35.5079 16.4027 36.2139 16.6115 36.8165 17.0072C37.4191 17.4029 37.8914 17.9678 38.174 18.631L30.539 21.8C30.3181 20.4638 30.6356 19.0946 31.422 17.992L31.427 17.991Z" fill="#E1251B"/>
</g>
</g>
<defs>
<clipPath id="clip0_2636_77823">
<rect width="124" height="40" fill="white"/>
</clipPath>
</defs>
</svg>
