<svg width="30" height="36" viewBox="0 0 30 36" fill="none" xmlns="http://www.w3.org/2000/svg">
<path fill-rule="evenodd" clip-rule="evenodd" d="M20.595 2.25H3C2.58579 2.25 2.25 2.58579 2.25 3V33C2.25 33.4142 2.58579 33.75 3 33.75H27C27.4142 33.75 27.75 33.4142 27.75 33V11.5034C27.75 11.3406 27.697 11.1822 27.5991 11.0522L21.1941 2.54877C21.0524 2.36064 20.8306 2.25 20.595 2.25ZM3 0C1.34315 0 0 1.34315 0 3V33C0 34.6569 1.34315 36 3 36H27C28.6569 36 30 34.6569 30 33V11.5034C30 10.8522 29.7881 10.2187 29.3963 9.69849L22.9913 1.19506C22.4245 0.44255 21.5371 0 20.595 0H3Z" fill="#0083CA"/>
<path d="M7 14H23V16H7V14Z" fill="#0083CA"/>
<path d="M7 20H23V22H7V20Z" fill="#0083CA"/>
<path d="M7 26H23V28H7V26Z" fill="#0083CA"/>
</svg>
