<svg width="146" height="36" viewBox="0 0 146 36" fill="none" xmlns="http://www.w3.org/2000/svg">
<path d="M75.4138 18.3264V0.555345H67.5274V18.2972V35.4447H87.0234V28.9364H75.4138V18.3264ZM139.902 0.555345V15.2671V22.2138L137.029 15.5594L130.55 0.545602H121.823V16.7968V35.4252H127.921V16.3778V10.23L130.52 16.1635L138.954 35.4544H146V14.5754V0.555345H139.902ZM0 14.4195V35.4447H7.88635V15.3256V0.555345H0V14.4195ZM12.3035 7.0636H19.5546V16.3778V35.4349H27.441V16.9429V7.0636H34.8485V0.555345H12.3035V7.0636ZM111.621 3.40027C109.842 1.62706 107.096 0 102.845 0C100.431 0 96.962 0.506631 94.0694 3.40027C90.1799 7.2682 89.7109 13.1627 89.7109 17.9951C89.7109 18.0438 89.7109 18.1023 89.7109 18.1608C89.7304 22.964 90.2288 28.7708 94.0694 32.59C96.962 35.4934 100.431 36 102.845 36C111.259 36 115.989 29.9984 115.989 17.9951C115.989 17.7418 115.989 17.469 115.979 17.167C115.901 13.7375 115.344 7.2 111.621 3.40027ZM107.575 18.0049C107.575 25.0685 106.734 27.056 106.265 27.816C105.689 28.7318 104.584 29.6963 102.845 29.6963C101.848 29.6963 100.48 29.3943 99.4833 27.816C98.7992 26.7442 98.1151 24.5131 98.1151 18.0049C98.1151 17.9854 98.1151 17.9756 98.1151 17.9562C98.1249 11.5356 98.7992 9.35318 99.4833 8.24249C100.373 6.82003 101.584 6.30365 102.845 6.30365C103.744 6.30365 105.259 6.55697 106.265 8.24249C106.676 8.89526 107.536 10.7756 107.575 17.6054C107.575 17.7418 107.575 17.8587 107.575 18.0049ZM39.8129 17.6054V35.4447H61.7715V29.443H47.6992V20.6452H58.6248V18.19V14.6436H47.6992V6.55697H61.7715V0.555345H39.8129V17.6054Z" fill="url(#paint0_linear_2115_8235)"/>
<defs>
<linearGradient id="paint0_linear_2115_8235" x1="98.8274" y1="62.6004" x2="47.41" y2="-26.7271" gradientUnits="userSpaceOnUse">
<stop stop-color="#004B88"/>
<stop offset="0.00890797" stop-color="#004C89"/>
<stop offset="0.2829" stop-color="#0062A3"/>
<stop offset="0.5459" stop-color="#0073B7"/>
<stop offset="0.7909" stop-color="#007EC4"/>
<stop offset="1" stop-color="#0083CA"/>
</linearGradient>
</defs>
</svg>
