<svg width="24" height="24" viewBox="0 0 24 24" fill="none" xmlns="http://www.w3.org/2000/svg">
<path d="M2.27601 17.4307C2.26185 17.4585 2.22647 17.4725 2.16985 17.4725H2.10616C2.03539 17.4307 2 17.3821 2 17.3263V8.99214C2 8.92251 2.02831 8.87377 2.08493 8.84592C2.14154 8.832 2.19816 8.832 2.25478 8.84592L7.90234 12.0208C7.95895 12.0486 7.98726 12.0905 7.98726 12.1462C7.98726 12.2158 7.96603 12.2576 7.92357 12.2715L2.27601 17.4307ZM21.2569 19.7284C21.2994 19.7841 21.3136 19.8398 21.2994 19.8955C21.2569 19.965 21.2004 20 21.1295 20H2.65817C2.55909 20 2.45294 19.9652 2.3397 19.8955C2.28309 19.8676 2.25478 19.8258 2.25478 19.7701C2.25478 19.7144 2.27601 19.6726 2.31847 19.6448L9.51592 13.0652C9.57254 13.0095 9.63624 13.0025 9.70701 13.0443L11.6178 14.1097C11.8868 14.2627 12.1627 14.2627 12.4458 14.1097L14.6114 12.8563C14.6964 12.8006 14.7601 12.8076 14.8027 12.8772L21.2569 19.7284ZM21.9151 8.7206C21.9717 8.74845 22 8.79718 22 8.86681V17.6813C22 17.751 21.9646 17.7997 21.8937 17.8276C21.8797 17.8415 21.8584 17.8484 21.83 17.8484C21.7876 17.8484 21.7452 17.8276 21.7027 17.7858L16.3312 12.0835C16.2888 12.0416 16.2746 11.9999 16.2888 11.9582C16.2888 11.9025 16.3099 11.8607 16.3525 11.8328L21.7452 8.7206C21.7877 8.67882 21.8443 8.67882 21.9151 8.7206ZM21.3206 4C21.5188 4 21.6815 4.06266 21.8089 4.18799C21.9363 4.31331 22 4.46649 22 4.64752V6.65272C22 6.7502 21.9505 6.79894 21.8514 6.79894C21.7665 6.81286 21.6886 6.84768 21.6179 6.90338L12.1062 12.3968C12.092 12.4107 12.0637 12.4177 12.0212 12.4177C11.9788 12.4177 11.9505 12.4107 11.9364 12.3968L2.12739 6.90338C2.04246 6.84768 2 6.79198 2 6.73627V4.64752C2 4.46649 2.06369 4.31331 2.19108 4.18799C2.31847 4.06266 2.47417 4 2.65817 4H21.3206Z" fill="#0083CA"/>
</svg>
