<svg width="150" height="32" viewBox="0 0 150 32" fill="none" xmlns="http://www.w3.org/2000/svg">
<path d="M0 0H15.2141C15.2132 5.07424 15.2141 10.1485 15.2132 15.2227C10.1427 15.2227 5.07137 15.2227 0 15.2227V0Z" fill="#F25022"/>
<path d="M16.7668 0H31.9809C31.9809 5.07424 31.9818 10.1485 31.98 15.2227C26.9096 15.2218 21.8382 15.2227 16.7677 15.2227C16.7659 10.1485 16.7668 5.07424 16.7668 0Z" fill="#80BA01"/>
<path d="M137.431 5.88739C138.833 4.97403 140.645 4.889 142.226 5.32419C142.24 6.26407 142.228 7.20486 142.232 8.14565C141.481 7.81469 140.598 7.59891 139.807 7.92348C139.18 8.17217 138.808 8.81582 138.71 9.45947C138.592 10.2759 138.669 11.1033 138.649 11.9244C140.253 11.928 141.858 11.9253 143.462 11.9262C143.474 10.8839 143.45 9.84072 143.476 8.79845C144.567 8.48759 145.646 8.13925 146.732 7.81194C146.741 9.18518 146.719 10.5593 146.744 11.9335C147.828 11.918 148.914 11.9298 149.999 11.9262V14.5995C148.91 14.5547 147.82 14.5876 146.731 14.584C146.735 16.1209 146.732 17.6578 146.733 19.1956C146.75 20.0468 146.687 20.9026 146.787 21.751C146.847 22.2511 147.029 22.8052 147.497 23.0639C148.282 23.5037 149.278 23.3117 149.999 22.8289V25.5288C149.059 25.9375 148.008 26.0618 146.991 25.9896C146.026 25.9183 145.027 25.5672 144.397 24.7992C143.67 23.9316 143.482 22.7567 143.468 21.6577C143.46 19.2989 143.469 16.9401 143.464 14.5803C141.859 14.5794 140.253 14.5785 138.649 14.5812C138.647 18.2832 138.648 21.9851 138.648 25.687C137.551 25.687 136.454 25.687 135.357 25.687C135.357 21.986 135.353 18.2859 135.359 14.5849C134.596 14.5703 133.832 14.5886 133.069 14.573C133.072 13.6944 133.076 12.8149 133.067 11.9353C133.827 11.918 134.587 11.9253 135.348 11.9308C135.404 10.7623 135.226 9.56004 135.575 8.42176C135.87 7.39412 136.526 6.46704 137.431 5.88739Z" fill="#777777"/>
<path d="M66.7462 5.99205C67.4096 5.89148 68.1278 6.11822 68.5673 6.63753C69.0826 7.20621 69.1777 8.11135 68.7957 8.77603C68.3736 9.52573 67.4287 9.87407 66.6055 9.69396C65.7511 9.54036 65.0393 8.74586 65.0777 7.85992C65.053 6.92736 65.8324 6.09628 66.7462 5.99205Z" fill="#777777"/>
<path d="M41.5304 6.4003C43.1258 6.4003 44.7203 6.4003 46.3157 6.4003C47.8052 10.1845 49.3055 13.965 50.7968 17.7492C51.1778 18.6955 51.5342 19.6528 51.9335 20.5917C53.8497 15.8631 55.7933 11.1463 57.6948 6.41127C59.229 6.38658 60.7641 6.40578 62.2992 6.40213C62.2956 12.8012 62.2974 19.2002 62.2983 25.5992C61.1909 25.5965 60.0843 25.6084 58.9777 25.5928C58.9896 20.8706 58.9768 16.1483 58.9832 11.4252C58.985 11.2131 58.9777 11.0009 58.9631 10.7888C58.8982 10.8876 58.8407 10.99 58.7904 11.096C56.8889 15.9298 54.9508 20.7499 53.0602 25.5883C52.2725 25.6166 51.484 25.5901 50.6954 25.6029C48.7335 20.7691 46.7964 15.9243 44.8446 11.0869C44.7934 10.9863 44.7386 10.8885 44.6792 10.7943C44.639 12.8633 44.6728 14.9342 44.6618 17.0032C44.6627 19.8685 44.66 22.7339 44.6627 25.5992C43.6183 25.602 42.5739 25.5992 41.5304 25.6002C41.5294 19.2002 41.5285 12.8003 41.5304 6.4003Z" fill="#777777"/>
<path d="M75.8033 11.823C77.3915 11.3705 79.1039 11.3888 80.6911 11.8377C81.0182 11.9291 81.3353 12.0562 81.6295 12.229C81.6112 13.2777 81.6295 14.3272 81.6195 15.3768C80.5586 14.5659 79.2126 14.052 77.8639 14.2221C76.7929 14.319 75.7714 14.8749 75.1308 15.7407C74.3075 16.8141 74.1174 18.2394 74.2591 19.5523C74.3651 20.58 74.79 21.6067 75.5886 22.2878C76.4183 23.0257 77.5815 23.2872 78.6671 23.2049C79.7398 23.0814 80.7523 22.627 81.6195 21.9925C81.6286 22.9864 81.6149 23.9802 81.6268 24.974C80.2817 25.7749 78.6689 25.9815 77.1292 25.9056C75.5539 25.8224 73.9831 25.2254 72.8427 24.1173C71.6037 22.9224 70.9311 21.2181 70.8516 19.5112C70.7712 17.7366 71.1322 15.8852 72.1528 14.4031C73.0081 13.1387 74.3459 12.2436 75.8033 11.823Z" fill="#777777"/>
<path d="M111.745 11.6188C113.267 11.3509 114.86 11.5475 116.3 12.0933C116.301 13.1027 116.3 14.1111 116.301 15.1196C115.294 14.4275 114.065 14.0554 112.845 14.0983C112.23 14.1221 111.554 14.3827 111.273 14.9678C111.05 15.5465 111.205 16.3054 111.75 16.6519C112.683 17.2764 113.796 17.5415 114.763 18.101C115.524 18.5289 116.262 19.0885 116.648 19.8948C117.372 21.4052 117.065 23.4011 115.792 24.5275C114.575 25.6649 112.824 25.9794 111.213 25.919C110.069 25.845 108.919 25.6191 107.867 25.151C107.872 24.0896 107.861 23.029 107.873 21.9684C108.757 22.6112 109.778 23.0711 110.858 23.2576C111.61 23.3801 112.428 23.3856 113.129 23.0491C113.8 22.7154 113.92 21.7618 113.522 21.1785C113.149 20.7287 112.602 20.4809 112.085 20.2377C111.116 19.8016 110.097 19.4368 109.245 18.7831C108.647 18.3159 108.194 17.6576 108.016 16.9152C107.753 15.8208 107.835 14.5875 108.471 13.6311C109.198 12.5166 110.46 11.8483 111.745 11.6188Z" fill="#777777"/>
<path d="M88.9872 12.0468C89.8955 11.5009 91.0496 11.4552 92.041 11.7889C92.0364 12.887 92.041 13.985 92.0383 15.0831C91.3895 14.6625 90.5799 14.4824 89.8142 14.5601C88.8803 14.6662 88.1402 15.3839 87.7564 16.2067C87.3397 17.078 87.2611 18.0636 87.2876 19.0163C87.2876 21.2096 87.2885 23.403 87.2876 25.5963C86.2057 25.5963 85.1247 25.5963 84.0438 25.5963C84.041 21.0122 84.0474 16.4271 84.041 11.8429C85.1238 11.8292 86.2066 11.8347 87.2894 11.8401C87.2849 12.6273 87.2894 13.4145 87.2867 14.2026C87.6385 13.346 88.1621 12.514 88.9872 12.0468Z" fill="#777777"/>
<path d="M65.377 11.8429C66.468 11.8383 67.5599 11.8274 68.651 11.8484C68.6382 16.4317 68.65 21.0158 68.6455 25.5991C67.5563 25.5991 66.4671 25.5991 65.3788 25.5991C65.376 21.014 65.3797 16.4289 65.377 11.8429Z" fill="#777777"/>
<path d="M105.68 15.0493C105.109 13.7785 104.078 12.717 102.806 12.1428C101.34 11.4754 99.6747 11.3858 98.0957 11.587C96.4373 11.7963 94.8226 12.5771 93.77 13.9001C92.8087 15.0813 92.3409 16.599 92.2513 18.1049C92.1188 19.8795 92.4149 21.7629 93.4566 23.244C94.3438 24.5222 95.7446 25.4008 97.2578 25.7245C98.5225 25.9905 99.8456 25.9914 101.11 25.7281C102.59 25.4237 103.971 24.6045 104.888 23.3958C105.783 22.2575 106.233 20.8221 106.334 19.3894C106.437 17.922 106.289 16.4025 105.68 15.0493ZM102.502 21.3652C102.188 22.0728 101.612 22.6708 100.885 22.9542C100.036 23.2806 99.0808 23.2998 98.2036 23.0721C97.3108 22.8372 96.5533 22.1917 96.1412 21.3697C95.6112 20.311 95.5317 19.0868 95.6414 17.9257C95.741 16.8697 96.1083 15.7835 96.9124 15.0548C97.4954 14.5099 98.2904 14.2439 99.0771 14.2C100.066 14.1351 101.118 14.4148 101.829 15.1344C102.59 15.8822 102.884 16.9675 102.965 18.0025C103.024 19.1352 102.977 20.3156 102.502 21.3652Z" fill="#777777"/>
<path d="M132.032 15.4468C131.525 14.0809 130.512 12.8997 129.205 12.246C127.707 11.4889 125.963 11.3783 124.321 11.5822C122.997 11.7523 121.696 12.2551 120.685 13.1429C119.452 14.2062 118.728 15.7696 118.515 17.3686C118.312 18.9677 118.381 20.6518 119.032 22.1485C119.657 23.6168 120.891 24.809 122.375 25.3932C123.84 25.9701 125.468 26.0351 127.01 25.7855C128.586 25.5249 130.079 24.6956 131.055 23.4193C132.097 22.1009 132.546 20.3949 132.543 18.7327C132.566 17.6201 132.427 16.4919 132.032 15.4468ZM129.064 20.1115C128.938 20.8356 128.687 21.5579 128.213 22.1311C127.735 22.7071 127.024 23.0582 126.29 23.1661C125.503 23.284 124.673 23.2273 123.937 22.9101C123.142 22.5736 122.526 21.8852 122.201 21.0934C121.811 20.1499 121.734 19.1049 121.811 18.0955C121.886 17.1181 122.163 16.1152 122.808 15.3554C123.397 14.6459 124.299 14.2537 125.209 14.2025C126.139 14.1376 127.131 14.3525 127.846 14.9806C128.505 15.5273 128.869 16.3465 129.036 17.1712C129.225 18.1385 129.223 19.1396 129.064 20.1115Z" fill="#777777"/>
<path d="M0 16.7734C5.07137 16.7753 10.1427 16.7725 15.2141 16.7753C15.215 21.8495 15.2141 26.9228 15.2141 31.9971H0V16.7734Z" fill="#02A4EF"/>
<path d="M16.7675 16.7746C21.838 16.7728 26.9094 16.7737 31.9807 16.7737C31.9807 21.8479 31.9807 26.9221 31.9807 31.9964H16.7666C16.7675 26.9221 16.7657 21.8479 16.7675 16.7746Z" fill="#FFB902"/>
</svg>
