<svg width="128" height="32" viewBox="0 0 128 32" fill="none" xmlns="http://www.w3.org/2000/svg">
<g clip-path="url(#clip0_7396_16094)">
<path fill-rule="evenodd" clip-rule="evenodd" d="M128 1.12679C128 1.12679 125.62 0.845703 122.808 0.845703C120.068 0.845703 117.76 1.12679 117.76 1.12679V9.91075H128V1.12679Z" fill="#E4003E"/>
<path fill-rule="evenodd" clip-rule="evenodd" d="M128 21.8569H117.76V30.7814C117.76 30.7814 120.645 31.0625 122.952 31.0625C125.26 31.0625 128 30.7111 128 30.7111V21.8569Z" fill="#E4003E"/>
<path fill-rule="evenodd" clip-rule="evenodd" d="M111.63 1.12695H99.0101L90.2126 11.8785H86.1022V1.12695H75.2133V30.8518H86.1022V19.6787H90.0683L98.9383 30.8518H112.424L99.2267 15.0407L111.63 1.12695Z" fill="#242265"/>
<path fill-rule="evenodd" clip-rule="evenodd" d="M34.3977 1.12695H0.000183105V30.8518H11.0334V9.55954H23.3645V30.8518H34.3977V1.12695Z" fill="#242265"/>
<path fill-rule="evenodd" clip-rule="evenodd" d="M39.7341 8.9974L38.1476 1.12699C38.1476 1.12699 48.4596 0.354004 54.8776 0.354004C61.2957 0.354004 69.0117 1.12699 69.0117 1.12699C69.0117 1.12699 71.3914 7.17035 71.3914 15.6732C71.3914 24.176 68.9395 30.8519 68.9395 30.8519C68.9395 30.8519 61.5842 31.6249 54.8056 31.6249C48.027 31.6249 38.1476 30.8519 38.1476 30.8519L39.7341 22.9815C39.7341 22.9815 46.6569 23.4734 52.5701 23.4734C58.4833 23.4734 60.7908 22.9815 60.7908 22.9815C60.7908 22.9815 61.0793 21.5058 61.2236 19.8192H47.0895V12.2299H61.2957C61.1514 10.2623 60.863 9.06768 60.863 9.06768C60.863 9.06768 56.0314 8.57578 51.921 8.57578C47.7386 8.5055 39.7341 8.9974 39.7341 8.9974Z" fill="#242265"/>
</g>
<defs>
<clipPath id="clip0_7396_16094">
<rect width="128" height="32" fill="white"/>
</clipPath>
</defs>
</svg>
