<svg width="28" height="28" viewBox="0 0 28 28" fill="none" xmlns="http://www.w3.org/2000/svg">
<g clip-path="url(#clip0_7420_89113)">
<path d="M21.2579 6V22H17.8751V9.21094H17.7813L14.1173 11.5078V8.50781L18.0782 6H21.2579Z" fill="#191C1E"/>
<path d="M0.306391 21.8969V18.8339L6.15671 13.9944C6.54469 13.6728 6.87651 13.3716 7.15218 13.0908C7.43295 12.8049 7.64736 12.5114 7.79541 12.2102C7.94856 11.909 8.02513 11.5746 8.02513 11.2071C8.02513 10.8038 7.93835 10.4592 7.76478 10.1733C7.59631 9.88745 7.36149 9.66793 7.06029 9.51479C6.7591 9.35653 6.41196 9.2774 6.01887 9.2774C5.62579 9.2774 5.27865 9.35653 4.97746 9.51479C4.68137 9.67304 4.45164 9.90532 4.28828 10.2116C4.12492 10.5179 4.04324 10.8906 4.04324 11.3296H9.15527e-05C9.15527e-05 10.2269 0.247684 9.2774 0.742868 8.48102C1.23805 7.68465 1.93743 7.07205 2.84102 6.64323C3.7446 6.21441 4.80389 6 6.01887 6C7.2747 6 8.36206 6.20165 9.28096 6.60494C10.205 7.00313 10.9171 7.56468 11.4174 8.28959C11.9228 9.0145 12.1755 9.86448 12.1755 10.8395C12.1755 11.4419 12.0504 12.0418 11.8003 12.639C11.5501 13.2312 11.1009 13.8872 10.4526 14.607C9.80422 15.3268 8.88277 16.1845 7.6882 17.1799L6.21797 18.4051V18.497H12.344V21.8969H0.306391Z" fill="#191C1E"/>
<path d="M24.0001 1.5C26.4854 1.5 28.5001 3.5147 28.5001 6C28.5001 8.4853 26.4854 10.5 24.0001 10.5C21.5148 10.5 19.5001 8.4853 19.5001 6C19.5001 3.5147 21.5148 1.5 24.0001 1.5Z" fill="#005AA3" stroke="#D9E4EC"/>
</g>
<defs>
<clipPath id="clip0_7420_89113">
<rect width="28" height="28" fill="white"/>
</clipPath>
</defs>
</svg>
