<svg width="29" height="28" viewBox="0 0 29 28" fill="none" xmlns="http://www.w3.org/2000/svg">
<path d="M16.9004 8.03125V1H9.77539C8.46371 1 7.40039 2.04933 7.40039 3.34375V12.261C8.15537 12.0503 8.95204 11.9375 9.77539 11.9375C11.6396 11.9375 13.367 12.5156 14.7836 13.5H22.4421C22.8792 13.5 23.2337 13.8498 23.2337 14.2812C23.2337 14.7127 22.8792 15.0625 22.4421 15.0625H16.4932C16.8948 15.5423 17.2446 16.0659 17.5342 16.625H22.4421C22.8792 16.625 23.2337 16.9748 23.2337 17.4062C23.2337 17.8377 22.8792 18.1875 22.4421 18.1875H18.156C18.3002 18.6911 18.3992 19.2134 18.4483 19.75H22.4421C22.8792 19.75 23.2337 20.0998 23.2337 20.5312C23.2337 20.9627 22.8792 21.3125 22.4421 21.3125H18.4483C18.2863 23.0852 17.579 24.7025 16.4932 26H24.0254C25.337 26 26.4004 24.9506 26.4004 23.6562V10.375H19.2754C17.9638 10.375 16.9004 9.32567 16.9004 8.03125ZM18.4837 8.03125V1.39062L26.0046 8.8125H19.2754C18.8382 8.8125 18.4837 8.46272 18.4837 8.03125Z" fill="#191C1E"/>
<path d="M9.40039 14C13.2664 14 16.4004 17.134 16.4004 21C16.4004 24.866 13.2664 28 9.40039 28C5.5344 28 2.40039 24.866 2.40039 21C2.40039 17.134 5.5344 14 9.40039 14ZM11.6542 18.8788L8.52539 22.0075L7.14662 20.6288C6.9416 20.4238 6.60918 20.4238 6.40416 20.6288C6.19914 20.8338 6.19914 21.1662 6.40416 21.3712L8.15418 23.1212C8.35921 23.3262 8.69157 23.3262 8.8966 23.1212L12.3966 19.6212C12.6016 19.4162 12.6016 19.0838 12.3966 18.8788C12.1916 18.6737 11.8592 18.6737 11.6542 18.8788Z" fill="#005AA3"/>
</svg>
