<svg width="28" height="28" viewBox="0 0 28 28" fill="none" xmlns="http://www.w3.org/2000/svg">
<g clip-path="url(#clip0_1_11520)">
<path d="M2.33366 11.2656C2.02424 11.2656 1.72749 11.3885 1.5087 11.6073C1.28991 11.8261 1.16699 12.1229 1.16699 12.4323V26.6271C1.16699 26.9365 1.28991 27.2333 1.5087 27.4521C1.72749 27.6709 2.02424 27.7938 2.33366 27.7938C2.64308 27.7938 2.93982 27.6709 3.15862 27.4521C3.37741 27.2333 3.50033 26.9365 3.50033 26.6271V12.4323C3.50033 12.1229 3.37741 11.8261 3.15862 11.6073C2.93982 11.3885 2.64308 11.2656 2.33366 11.2656Z" fill="#191C1E"/>
<path d="M25.6667 10.875C25.3572 10.875 25.0605 10.9979 24.8417 11.2167C24.6229 11.4355 24.5 11.7322 24.5 12.0417V26.625C24.5 26.9344 24.6229 27.2312 24.8417 27.45C25.0605 27.6688 25.3572 27.7917 25.6667 27.7917C25.9761 27.7917 26.2728 27.6688 26.4916 27.45C26.7104 27.2312 26.8333 26.9344 26.8333 26.625V12.0417C26.8333 11.7322 26.7104 11.4355 26.4916 11.2167C26.2728 10.9979 25.9761 10.875 25.6667 10.875Z" fill="#0A0E18"/>
<path d="M17.5003 12.625H10.5003C10.1782 12.625 9.91699 12.8862 9.91699 13.2083V19.0417C9.91699 19.3638 10.1782 19.625 10.5003 19.625H17.5003C17.8225 19.625 18.0837 19.3638 18.0837 19.0417V13.2083C18.0837 12.8862 17.8225 12.625 17.5003 12.625Z" fill="#005AA3"/>
<path d="M22.1663 20.7891H15.1663C14.8442 20.7891 14.583 21.0502 14.583 21.3724V27.2057C14.583 27.5279 14.8442 27.7891 15.1663 27.7891H22.1663C22.4885 27.7891 22.7497 27.5279 22.7497 27.2057V21.3724C22.7497 21.0502 22.4885 20.7891 22.1663 20.7891Z" fill="#191C1E"/>
<path d="M12.8333 20.7891H5.83333C5.51117 20.7891 5.25 21.0502 5.25 21.3724V27.2057C5.25 27.5279 5.51117 27.7891 5.83333 27.7891H12.8333C13.1555 27.7891 13.4167 27.5279 13.4167 27.2057V21.3724C13.4167 21.0502 13.1555 20.7891 12.8333 20.7891Z" fill="#191C1E"/>
<path d="M27.5652 4.39824L14.8287 -0.144763C14.7041 -0.18924 14.5684 -0.191291 14.4425 -0.150597L0.450681 4.4064C0.316876 4.45405 0.201419 4.54253 0.120614 4.65934C0.0398092 4.77615 -0.00225968 4.91539 0.000347888 5.0574V9.02407C-0.00531906 9.19852 0.0584391 9.36811 0.177637 9.49562C0.296835 9.62312 0.46174 9.69815 0.636181 9.70424H27.3633C27.5374 9.69845 27.702 9.62404 27.8214 9.49726C27.9407 9.37048 28.0051 9.20162 28.0003 9.02757V5.04457C28.0031 4.90516 27.9628 4.76829 27.8849 4.65263C27.807 4.53696 27.6954 4.44813 27.5652 4.39824Z" fill="#191C1E"/>
</g>
<defs>
<clipPath id="clip0_1_11520">
<rect width="28" height="28" fill="white"/>
</clipPath>
</defs>
</svg>
