<svg width="29" height="28" viewBox="0 0 29 28" fill="none" xmlns="http://www.w3.org/2000/svg">
<path d="M26.3615 15.3125C26.1865 15.05 25.924 14.875 25.574 14.875C23.649 14.875 21.8115 15.75 20.674 17.325L19.8865 18.375C18.924 19.5125 17.4365 20.125 15.949 20.125H13.324C12.799 20.125 12.449 19.775 12.449 19.25C12.449 18.725 12.799 18.375 13.324 18.375H14.9865C16.3865 18.375 17.699 17.2375 17.699 15.8375V15.75C17.699 15.3125 17.2615 14.875 16.824 14.875H11.4865C8.33652 14.875 5.79902 16.275 4.39902 18.55L2.03652 22.225C1.86152 22.4875 1.86152 22.8375 2.03652 23.1L4.66152 27.475C4.74902 27.65 5.01152 27.825 5.18652 27.9125C5.27402 27.9125 5.27402 27.9125 5.36152 27.9125C5.53652 27.9125 5.71152 27.825 5.88652 27.7375C9.21152 25.55 13.0615 24.4125 16.999 24.4125C19.8865 24.4125 22.5115 22.8375 23.9115 20.3L26.274 16.1C26.449 15.925 26.449 15.575 26.3615 15.3125Z" fill="#191C1E"/>
<path d="M4.13672 15.7486C4.22422 15.7486 4.39922 15.7486 4.48672 15.7486C5.53672 14.7861 6.84922 14.0861 8.24922 13.6486C8.16172 13.2111 8.07422 12.6861 8.07422 12.2486C8.07422 8.39857 11.2242 5.24857 15.0742 5.24857C18.9242 5.24857 22.0742 8.39857 22.0742 12.2486C22.0742 12.8611 21.9867 13.4736 21.8117 14.0861C22.9492 13.4736 24.2617 13.1236 25.5742 13.1236C26.1867 13.1236 26.7992 13.3861 27.2367 13.7361C27.3242 13.2111 27.3242 12.7736 27.3242 12.2486C27.3242 11.2861 27.2367 10.3236 26.9742 9.36107C26.8867 8.92357 26.4492 8.66107 26.0117 8.66107C24.9617 8.83607 23.9117 8.31106 23.3867 7.34857C22.8617 6.47357 22.9492 5.24857 23.5617 4.46107C23.8242 4.11107 23.8242 3.58607 23.4742 3.32357C22.0742 2.01107 20.4117 1.04857 18.5742 0.523565C18.1367 0.436065 17.6992 0.611065 17.5242 1.04857C17.0867 2.01107 16.1242 2.62357 15.0742 2.62357C14.0242 2.62357 13.0617 2.01107 12.6242 1.04857C12.4492 0.611065 12.0117 0.348565 11.5742 0.523565C9.73672 1.04857 8.07422 2.01107 6.67422 3.41107C6.32422 3.67357 6.32422 4.19857 6.58672 4.54856C7.19922 5.42356 7.28672 6.56107 6.76172 7.43607C6.23672 8.31107 5.18672 8.83607 4.13672 8.74857C3.69922 8.66107 3.26172 9.01107 3.17422 9.44857C2.91172 10.3236 2.82422 11.2861 2.82422 12.2486C2.82422 13.2111 2.91172 14.1736 3.17422 15.1361C3.26172 15.5736 3.69922 15.8361 4.13672 15.7486Z" fill="#005AA3"/>
</svg>
