<svg width="29" height="28" viewBox="0 0 29 28" fill="none" xmlns="http://www.w3.org/2000/svg">
<g clip-path="url(#clip0_1_11532)">
<path d="M21.7461 26.25C20.6232 26.25 19.6023 25.6375 19.194 24.675C19.194 24.5875 19.194 24.5 19.0919 24.5H10.0065C10.0065 24.5875 10.0065 24.675 9.90443 24.675C9.59818 25.6375 8.57734 26.25 7.45443 26.25C6.84193 26.25 6.43359 26.6 6.43359 27.125C6.43359 27.65 6.84193 28 7.45443 28H21.7461C22.3586 28 22.7669 27.65 22.7669 27.125C22.7669 26.6 22.3586 26.25 21.7461 26.25Z" fill="#005AA3"/>
<path d="M25.6006 1.16406H3.60059C1.90059 1.16406 0.600586 2.46406 0.600586 4.16406V19.1641C0.600586 20.8641 1.90059 22.1641 3.60059 22.1641H10.5006H18.6006H25.6006C27.3006 22.1641 28.6006 20.8641 28.6006 19.1641V4.16406C28.6006 2.46406 27.3006 1.16406 25.6006 1.16406ZM23.9006 16.1641H18.5006C18.6006 15.8641 18.6006 15.4641 18.6006 15.1641C18.6006 12.9641 16.8006 11.1641 14.6006 11.1641C12.4006 11.1641 10.6006 12.9641 10.6006 15.1641C10.6006 15.4641 10.7006 15.8641 10.7006 16.1641H5.30059C5.30059 15.8641 5.20059 15.4641 5.20059 15.1641C5.20059 14.4641 5.30059 13.7641 5.50059 12.9641C5.60059 12.4641 6.10059 12.1641 6.60059 12.2641C7.20059 12.3641 7.80059 12.0641 8.20059 11.4641C8.50059 10.9641 8.50059 10.2641 8.10059 9.76406C7.80059 9.36406 7.80059 8.76406 8.20059 8.46406C9.30059 7.46406 10.6006 6.66406 12.0006 6.26406C12.1006 6.26406 12.2006 6.26406 12.3006 6.26406C12.7006 6.26406 13.1006 6.46406 13.2006 6.86406C13.4006 7.46406 14.0006 7.86406 14.6006 7.86406C15.2006 7.86406 15.8006 7.46406 16.0006 6.86406C16.2006 6.36406 16.7006 6.16406 17.2006 6.26406C18.6006 6.66406 19.9006 7.46406 21.0006 8.46406C21.4006 8.86406 21.4006 9.36406 21.1006 9.76406C20.7006 10.2641 20.7006 10.9641 21.0006 11.4641C21.3006 11.9641 21.9006 12.3641 22.6006 12.2641C23.1006 12.1641 23.6006 12.5641 23.7006 13.0641C23.9006 13.7641 24.0006 14.5641 24.0006 15.2641C23.9006 15.4641 23.9006 15.8641 23.9006 16.1641Z" fill="#191C1E"/>
</g>
<defs>
<clipPath id="clip0_1_11532">
<rect width="28" height="28" fill="white" transform="translate(0.600586)"/>
</clipPath>
</defs>
</svg>
