<svg width="28" height="29" viewBox="0 0 28 29" fill="none" xmlns="http://www.w3.org/2000/svg">
<g clip-path="url(#clip0_2_30245)">
<path d="M2.33317 11.7656C2.02375 11.7656 1.72701 11.8885 1.50821 12.1073C1.28942 12.3261 1.1665 12.6229 1.1665 12.9323V27.1271C1.1665 27.4365 1.28942 27.7333 1.50821 27.9521C1.72701 28.1709 2.02375 28.2938 2.33317 28.2938C2.64259 28.2938 2.93934 28.1709 3.15813 27.9521C3.37692 27.7333 3.49984 27.4365 3.49984 27.1271V12.9323C3.49984 12.6229 3.37692 12.3261 3.15813 12.1073C2.93934 11.8885 2.64259 11.7656 2.33317 11.7656Z" fill="#191C1E"/>
<path d="M25.6667 11.375C25.3572 11.375 25.0605 11.4979 24.8417 11.7167C24.6229 11.9355 24.5 12.2322 24.5 12.5417V27.125C24.5 27.4344 24.6229 27.7312 24.8417 27.95C25.0605 28.1688 25.3572 28.2917 25.6667 28.2917C25.9761 28.2917 26.2728 28.1688 26.4916 27.95C26.7104 27.7312 26.8333 27.4344 26.8333 27.125V12.5417C26.8333 12.2322 26.7104 11.9355 26.4916 11.7167C26.2728 11.4979 25.9761 11.375 25.6667 11.375Z" fill="#0A0E18"/>
<path d="M17.4998 13.125H10.4998C10.1777 13.125 9.9165 13.3862 9.9165 13.7083V19.5417C9.9165 19.8638 10.1777 20.125 10.4998 20.125H17.4998C17.822 20.125 18.0832 19.8638 18.0832 19.5417V13.7083C18.0832 13.3862 17.822 13.125 17.4998 13.125Z" fill="#005AA3"/>
<path d="M22.1668 21.2891H15.1668C14.8447 21.2891 14.5835 21.5502 14.5835 21.8724V27.7057C14.5835 28.0279 14.8447 28.2891 15.1668 28.2891H22.1668C22.489 28.2891 22.7502 28.0279 22.7502 27.7057V21.8724C22.7502 21.5502 22.489 21.2891 22.1668 21.2891Z" fill="#191C1E"/>
<path d="M12.8333 21.2891H5.83333C5.51117 21.2891 5.25 21.5502 5.25 21.8724V27.7057C5.25 28.0279 5.51117 28.2891 5.83333 28.2891H12.8333C13.1555 28.2891 13.4167 28.0279 13.4167 27.7057V21.8724C13.4167 21.5502 13.1555 21.2891 12.8333 21.2891Z" fill="#191C1E"/>
<path d="M27.5647 4.89824L14.8282 0.355237C14.7036 0.31076 14.5679 0.308709 14.442 0.349403L0.450193 4.9064C0.316388 4.95405 0.20093 5.04253 0.120126 5.15934C0.039321 5.27615 -0.00274796 5.41539 -0.000140393 5.5574V9.52407C-0.00580734 9.69852 0.0579508 9.86811 0.177149 9.99562C0.296347 10.1231 0.461252 10.1981 0.635693 10.2042H27.3629C27.5369 10.1984 27.7015 10.124 27.8209 9.99726C27.9402 9.87048 28.0046 9.70162 27.9999 9.52757V5.54457C28.0026 5.40516 27.9623 5.26829 27.8844 5.15263C27.8065 5.03696 27.6949 4.94813 27.5647 4.89824Z" fill="#191C1E"/>
</g>
<defs>
<clipPath id="clip0_2_30245">
<rect width="28" height="28" fill="white" transform="translate(0 0.5)"/>
</clipPath>
</defs>
</svg>
