<svg width="29" height="29" viewBox="0 0 29 29" fill="none" xmlns="http://www.w3.org/2000/svg">
<g clip-path="url(#clip0_2_30236)">
<path d="M21.3462 26.75C20.2233 26.75 19.2024 26.1375 18.7941 25.175C18.7941 25.0875 18.7941 25 18.692 25H9.60661C9.60661 25.0875 9.60661 25.175 9.50452 25.175C9.19827 26.1375 8.17744 26.75 7.05452 26.75C6.44202 26.75 6.03369 27.1 6.03369 27.625C6.03369 28.15 6.44202 28.5 7.05452 28.5H21.3462C21.9587 28.5 22.367 28.15 22.367 27.625C22.367 27.1 21.9587 26.75 21.3462 26.75Z" fill="#005AA3"/>
<path d="M25.2002 1.66406H3.2002C1.5002 1.66406 0.200195 2.96406 0.200195 4.66406V19.6641C0.200195 21.3641 1.5002 22.6641 3.2002 22.6641H10.1002H18.2002H25.2002C26.9002 22.6641 28.2002 21.3641 28.2002 19.6641V4.66406C28.2002 2.96406 26.9002 1.66406 25.2002 1.66406ZM23.5002 16.6641H18.1002C18.2002 16.3641 18.2002 15.9641 18.2002 15.6641C18.2002 13.4641 16.4002 11.6641 14.2002 11.6641C12.0002 11.6641 10.2002 13.4641 10.2002 15.6641C10.2002 15.9641 10.3002 16.3641 10.3002 16.6641H4.9002C4.9002 16.3641 4.8002 15.9641 4.8002 15.6641C4.8002 14.9641 4.9002 14.2641 5.1002 13.4641C5.2002 12.9641 5.7002 12.6641 6.2002 12.7641C6.8002 12.8641 7.4002 12.5641 7.8002 11.9641C8.1002 11.4641 8.1002 10.7641 7.7002 10.2641C7.4002 9.86406 7.4002 9.26406 7.8002 8.96406C8.9002 7.96406 10.2002 7.16406 11.6002 6.76406C11.7002 6.76406 11.8002 6.76406 11.9002 6.76406C12.3002 6.76406 12.7002 6.96406 12.8002 7.36406C13.0002 7.96406 13.6002 8.36406 14.2002 8.36406C14.8002 8.36406 15.4002 7.96406 15.6002 7.36406C15.8002 6.86406 16.3002 6.66406 16.8002 6.76406C18.2002 7.16406 19.5002 7.96406 20.6002 8.96406C21.0002 9.36406 21.0002 9.86406 20.7002 10.2641C20.3002 10.7641 20.3002 11.4641 20.6002 11.9641C20.9002 12.4641 21.5002 12.8641 22.2002 12.7641C22.7002 12.6641 23.2002 13.0641 23.3002 13.5641C23.5002 14.2641 23.6002 15.0641 23.6002 15.7641C23.5002 15.9641 23.5002 16.3641 23.5002 16.6641Z" fill="#191C1E"/>
</g>
<defs>
<clipPath id="clip0_2_30236">
<rect width="28" height="28" fill="white" transform="translate(0.200195 0.5)"/>
</clipPath>
</defs>
</svg>
