<svg width="29" height="29" viewBox="0 0 29 29" fill="none" xmlns="http://www.w3.org/2000/svg">
<g clip-path="url(#clip0_2_30258)">
<path d="M17.3003 8.53125V1.5H10.1753C8.86361 1.5 7.80029 2.54933 7.80029 3.84375V12.761C8.55527 12.5503 9.35194 12.4375 10.1753 12.4375C12.0395 12.4375 13.7669 13.0156 15.1835 14H22.842C23.2791 14 23.6336 14.3498 23.6336 14.7812C23.6336 15.2127 23.2791 15.5625 22.842 15.5625H16.8931C17.2947 16.0423 17.6445 16.5659 17.9341 17.125H22.842C23.2791 17.125 23.6336 17.4748 23.6336 17.9062C23.6336 18.3377 23.2791 18.6875 22.842 18.6875H18.5559C18.7001 19.1911 18.7991 19.7134 18.8482 20.25H22.842C23.2791 20.25 23.6336 20.5998 23.6336 21.0312C23.6336 21.4627 23.2791 21.8125 22.842 21.8125H18.8482C18.6862 23.5852 17.9789 25.2025 16.8931 26.5H24.4253C25.7369 26.5 26.8003 25.4506 26.8003 24.1562V10.875H19.6753C18.3637 10.875 17.3003 9.82567 17.3003 8.53125ZM18.8836 8.53125V1.89062L26.4045 9.3125H19.6753C19.2381 9.3125 18.8836 8.96272 18.8836 8.53125Z" fill="#191C1E"/>
<path d="M9.80029 14.5C13.6663 14.5 16.8003 17.634 16.8003 21.5C16.8003 25.366 13.6663 28.5 9.80029 28.5C5.9343 28.5 2.80029 25.366 2.80029 21.5C2.80029 17.634 5.9343 14.5 9.80029 14.5ZM12.0541 19.3788L8.92529 22.5075L7.54652 21.1288C7.3415 20.9238 7.00908 20.9238 6.80406 21.1288C6.59904 21.3338 6.59904 21.6662 6.80406 21.8712L8.55408 23.6212C8.75911 23.8262 9.09147 23.8262 9.2965 23.6212L12.7965 20.1212C13.0015 19.9162 13.0015 19.5838 12.7965 19.3788C12.5915 19.1737 12.2591 19.1737 12.0541 19.3788Z" fill="#005AA3"/>
</g>
<defs>
<clipPath id="clip0_2_30258">
<rect width="28" height="28" fill="white" transform="translate(0.800293 0.5)"/>
</clipPath>
</defs>
</svg>
