<svg width="16" height="16" viewBox="0 0 16 16" fill="none" xmlns="http://www.w3.org/2000/svg">
<rect width="16" height="16" rx="8" fill="#0083CA"/>
<path d="M8.88182 3L8.73182 9.98551H7.26818L7.12273 3H8.88182ZM8 13C7.72424 13 7.48788 12.8969 7.29091 12.6908C7.09697 12.4847 7 12.2335 7 11.9372C7 11.6473 7.09697 11.3994 7.29091 11.1932C7.48788 10.9871 7.72424 10.8841 8 10.8841C8.2697 10.8841 8.50303 10.9871 8.7 11.1932C8.9 11.3994 9 11.6473 9 11.9372C9 12.1337 8.95303 12.3124 8.85909 12.4734C8.76818 12.6345 8.64697 12.7633 8.49545 12.8599C8.34697 12.9533 8.18182 13 8 13Z" fill="white"/>
</svg>
