<svg width="16" height="16" viewBox="0 0 16 16" fill="none" xmlns="http://www.w3.org/2000/svg">
<rect width="16" height="16" rx="8" fill="#DAF0FB"/>
<path fill-rule="evenodd" clip-rule="evenodd" d="M7.19692 6.08392C7.00008 6.24407 6.85714 6.48825 6.85714 6.84934C6.85714 7.07631 6.66526 7.2603 6.42857 7.2603C6.19188 7.2603 6 7.07631 6 6.84934C6 6.25151 6.24992 5.7765 6.64237 5.45719C7.02549 5.14547 7.52106 5 8 5C8.47894 5 8.97451 5.14547 9.35763 5.4572C9.75008 5.7765 10 6.25151 10 6.84934C10 7.269 9.8879 7.58878 9.7048 7.85213C9.55095 8.07343 9.35101 8.24452 9.1937 8.37913C9.17653 8.39382 9.15987 8.40808 9.14384 8.42192C8.96831 8.5734 8.83601 8.69826 8.73904 8.86254C8.64626 9.01971 8.57143 9.23927 8.57143 9.58904C8.57143 9.81601 8.37955 10 8.14286 10C7.90616 10 7.71429 9.81601 7.71429 9.58904C7.71429 9.11688 7.81802 8.75425 7.99311 8.45765C8.16399 8.16817 8.38884 7.96771 8.57045 7.81097C8.58454 7.79881 8.5983 7.78697 8.61172 7.77541C8.78328 7.62766 8.90147 7.52587 8.99162 7.3962C9.07639 7.27428 9.14286 7.11462 9.14286 6.84934C9.14286 6.48825 8.99992 6.24408 8.80308 6.08392C8.59692 5.91618 8.30677 5.82193 8 5.82193C7.69323 5.82192 7.40308 5.91618 7.19692 6.08392Z" fill="black"/>
<path fill-rule="evenodd" clip-rule="evenodd" d="M8.53399 10.7943C8.7378 10.9778 8.75418 11.2916 8.57058 11.4953L8.56396 11.5026C8.38035 11.7063 8.0663 11.7226 7.86249 11.5392C7.65868 11.3557 7.6423 11.0419 7.82591 10.8382L7.83253 10.8309C8.01613 10.6272 8.33019 10.6109 8.53399 10.7943Z" fill="black"/>
</svg>
