<svg width="120" height="20" viewBox="0 0 120 20" fill="none" xmlns="http://www.w3.org/2000/svg">
<path fill-rule="evenodd" clip-rule="evenodd" d="M47.1318 0H52.4116V19.9995H47.1318V0Z" fill="#ED1163"/>
<path fill-rule="evenodd" clip-rule="evenodd" d="M56.4424 19.9995V0H65.658C73.9137 0 77.3696 3.23801 77.3696 9.99973C77.3696 16.8567 73.9137 19.9995 65.658 19.9995H56.4424ZM61.8182 3.99989V16.0948H65.562C70.6498 16.0948 71.9938 14.2853 71.9938 9.99973C71.9938 5.71413 70.6498 3.99989 65.562 3.99989H61.8182Z" fill="#ED1163"/>
<path fill-rule="evenodd" clip-rule="evenodd" d="M85.5298 19.9995H80.25V0H85.5298V19.9995Z" fill="#ED1163"/>
<path fill-rule="evenodd" clip-rule="evenodd" d="M24.958 5.42842C26.206 1.04759 30.2378 0 34.3656 0H43.1013V19.9995H37.8215V15.2377H27.8379L26.494 19.9995H21.1182L24.958 5.42842ZM28.8939 11.2378H37.8215V3.99989H33.7897C31.9657 3.99989 30.5258 5.04748 30.1418 6.76172L28.8939 11.2378Z" fill="#ED1163"/>
<path d="M11.2316 3.99989C12.8635 3.99989 14.8794 4.5713 14.8794 6.38078C14.8794 8.19025 12.8635 8.76166 11.2316 8.76166H5.27979V6.38078V3.99989H11.2316ZM15.1674 12.3806C18.1433 11.714 20.2552 9.52355 20.2552 6.38078C20.2552 2.38089 17.0873 0 12.8635 0H0V19.9995H5.27979V12.6663H9.79162L11.2316 14.952L14.4954 19.9995H16.1274H20.4472L15.1674 12.3806Z" fill="#ED1163"/>
<path fill-rule="evenodd" clip-rule="evenodd" d="M93.5038 0H87.4561L103.679 19.9995H109.631L93.5038 0Z" fill="#ED1163"/>
<path d="M91.585 14.4754H120V11.0469H94.3689L91.585 14.4754Z" fill="#ED1163"/>
<path d="M87.0693 19.9988H119.996V16.5703H89.8532L87.0693 19.9988Z" fill="#ED1163"/>
<path d="M103.193 0L100.505 3.42848H119.992V0H103.193Z" fill="#ED1163"/>
<path d="M95.9932 8.95192H119.992V5.52344H98.7771L95.9932 8.95192Z" fill="#ED1163"/>
</svg>
