<svg width="24" height="24" viewBox="0 0 24 24" fill="none" xmlns="http://www.w3.org/2000/svg">
<path fill-rule="evenodd" clip-rule="evenodd" d="M2.25 1.50439C1.83579 1.50439 1.5 1.84018 1.5 2.25439C1.5 2.6686 1.83579 3.00439 2.25 3.00439H3.14209L6.01611 16.6597C6.08954 17.0064 6.39559 17.2544 6.75 17.2544H20.4741C20.8883 17.2544 21.2241 16.9186 21.2241 16.5044C21.2241 16.0902 20.8883 15.7544 20.4741 15.7544H7.35791L7.0415 14.2544H19.7241C20.0685 14.2545 20.3687 14.0202 20.4521 13.686L22.5 5.43604C22.6181 4.96261 22.2599 4.50423 21.772 4.50439H16.5V2.25439C16.5 1.8402 16.1642 1.50444 15.75 1.50439H12.75C12.3358 1.50444 12 1.8402 12 2.25439V4.50439H11.8799L11.2251 2.06104C11.1411 1.74695 10.8642 1.52278 10.5396 1.50586C10.4611 1.50211 10.3825 1.51036 10.3066 1.53076L7.40918 2.30712C7.00917 2.41439 6.77181 2.82553 6.87891 3.22557L7.22168 4.50438H4.98926L4.48389 2.10057C4.41108 1.75327 4.10486 1.5045 3.75 1.50439H2.25ZM13.5 3.00439H15V4.50439H13.5V3.00439ZM9.96973 3.17432L10.3257 4.50439H8.77295L8.521 3.5625L9.96973 3.17432ZM5.30566 6.00439H20.8125L19.1382 12.7544L6.73828 12.7574C6.27461 10.6085 5.77723 8.23864 5.30566 6.00439Z" fill="#005AA3"/>
<path fill-rule="evenodd" clip-rule="evenodd" d="M9.75 18.0044C8.51624 18.0044 7.5 19.0206 7.5 20.2544C7.5 21.4882 8.51624 22.5044 9.75 22.5044C10.9838 22.5044 12 21.4882 12 20.2544C12 19.0206 10.9838 18.0044 9.75 18.0044ZM9.75 19.5044C10.1731 19.5044 10.5 19.8313 10.5 20.2544C10.5 20.6775 10.1731 21.0044 9.75 21.0044C9.3269 21.0044 9 20.6775 9 20.2544C9 19.8313 9.3269 19.5044 9.75 19.5044Z" fill="#005AA3"/>
<path fill-rule="evenodd" clip-rule="evenodd" d="M17.25 18.0044C16.0162 18.0044 15 19.0206 15 20.2544C15 21.4882 16.0162 22.5044 17.25 22.5044C18.4838 22.5044 19.5 21.4882 19.5 20.2544C19.5 19.0206 18.4838 18.0044 17.25 18.0044ZM17.25 19.5044C17.6731 19.5044 18 19.8313 18 20.2544C18 20.6775 17.6731 21.0044 17.25 21.0044C16.8269 21.0044 16.5 20.6775 16.5 20.2544C16.5 19.8313 16.8269 19.5044 17.25 19.5044Z" fill="#005AA3"/>
</svg>
