<svg width="132" height="53" viewBox="0 0 132 53" fill="none" xmlns="http://www.w3.org/2000/svg">
<path d="M122.063 11.5996L130.332 8.93359L123.835 17.9569L122.063 11.5996Z" fill="#0C94FF"/>
<path d="M124.819 21.4443L122.063 11.6006L102.767 51.3854L124.819 21.4443Z" fill="#0B6FBD"/>
<path d="M124.819 21.4438L95.2851 1.75635L115.368 34.1584L124.819 21.4438Z" fill="#0C94FF"/>
<path d="M0.0884247 32.8004C0.392042 35.0881 1.53061 36.9181 3.50414 38.2527C5.47765 39.5871 7.94455 40.2733 10.9428 40.2733C16.4079 40.2733 20.0892 37.8714 20.0892 34.3255C20.0892 30.9703 17.8502 29.1403 10.791 27.9201C5.3638 27.0051 4.03546 26.3569 4.03546 24.8318C4.03546 23.0018 6.35055 21.5911 9.42469 21.5911C13.182 21.5911 15.8766 23.3067 16.5977 26.052L19.4821 25.48C18.7989 21.7435 14.5482 18.9221 9.42469 18.9221C4.52885 18.9221 0.961327 21.5147 0.961327 24.8318C0.961327 28.0726 3.08666 29.5216 10.1837 30.6654C15.7248 31.5804 16.9773 32.4191 16.9773 34.3636C16.9773 36.3463 14.7001 37.6045 10.9428 37.6045C6.3885 37.6045 3.61798 35.7743 2.97281 32.1523L0.0884247 32.8004ZM23.1874 34.2874C23.1874 37.9857 25.9579 40.2733 30.6262 40.2733C33.8141 40.2733 36.7365 39.0151 38.1027 37.1469H38.1787V39.7015H41.1769V25.5182C41.1769 21.5147 37.913 18.9221 32.7894 18.9221C30.2466 18.9221 28.1213 19.5703 26.4134 20.8285C24.7056 22.0867 23.6809 23.7643 23.3013 25.8613L26.2995 26.5094C26.9068 23.4594 29.2977 21.6674 32.7894 21.6674C35.8635 21.6674 37.8371 22.9254 37.8371 24.8701C37.8371 26.5094 36.4328 27.1576 31.3472 28.0726C25.5785 29.102 23.1874 30.7796 23.1874 34.2874ZM38.0648 32.6479C38.0648 35.2025 34.8389 37.4901 31.2712 37.4901C27.9314 37.4901 26.3375 36.4607 26.3375 34.2874C26.3375 32.343 28.0454 31.3897 32.6377 30.4747C35.9775 29.8265 37.4195 29.2547 37.9888 28.2253H38.0648V32.6479ZM49.036 37.185C50.6679 39.1295 53.4384 40.2733 56.5885 40.2733C62.8506 40.2733 67.3669 35.8506 67.3669 29.5977C67.3669 23.5355 62.8126 18.9221 56.7782 18.9221C53.6282 18.9221 50.8197 20.0659 49.1498 22.0487H49.074V11.8687H45.9619V39.7015H48.9601V37.185H49.036ZM64.2548 29.5977C64.2548 34.4399 61.2186 37.5282 56.3987 37.5282C52.2999 37.5282 49.074 34.6687 49.074 31.1228V28.0726C49.074 24.5269 52.3378 21.6674 56.5885 21.6674C61.1807 21.6674 64.2548 24.7938 64.2548 29.5977ZM75.9255 48.28L90.2334 19.4941H86.666L79.3791 34.6687H79.3033L71.9405 19.4941H68.335L77.6334 38.0239L72.3959 48.28H75.9255Z" fill="#333333"/>
</svg>
