<svg xmlns="http://www.w3.org/2000/svg" width="120" height="60" fill="none"><path fill="#363435" d="m5.024 39.747 3.944-9.8 3.928-9.74h5.663l8.684 19.558c0 .012-1.18.018-2.626.014l-2.628-.007-1.592-3.85h-4.382l-4.395.035-1.446 3.828H5.008l.016-.038Zm13.902-7.3c-.04-.15-3.12-7.523-3.137-7.506-.017.017-2.857 7.528-2.857 7.555 0 .005 1.352.01 3.005.01h3.005l-.016-.06ZM29.523 30v-9.796h4.238l3.14 3.627 3.156 3.627c.01 0 1.428-1.632 3.155-3.627l3.14-3.627H50.6v19.593h-4.863v-6.102l-.024-6.093c-.013.005-1.203 1.382-2.644 3.06l-2.62 3.05h-.76l-2.624-3.056L34.4 27.6c-.01-.001-.02 2.744-.02 6.1v6.1h-4.863l.006-9.8Zm24.796.007.007-9.8 4.2-.008c4.424-.01 5.34.007 6.2.107 2.975.34 5.394 1.56 6.967 3.515 1.134 1.4 1.77 2.986 2.015 4.988.06.495.07 1.833.015 2.362-.147 1.448-.515 2.705-1.112 3.793-1.477 2.695-4.27 4.3-8.176 4.723-.837.1-1.387.098-5.746.098h-4.4l.007-9.8.023.022Zm8.804 6.175c1.472-.114 2.672-.55 3.6-1.307a6.25 6.25 0 0 0 .885-.94c.58-.8.948-1.798 1.106-2.975.047-.355.047-1.6-.001-1.945-.17-1.226-.524-2.18-1.095-2.955a6.38 6.38 0 0 0-.953-.98c-.873-.684-2.007-1.096-3.4-1.234-.165-.016-1.092-.028-2.175-.028h-1.887V36.2h1.773l2.147-.03v.012Z"/><path fill="#00A774" d="M78.297 41.133v-7.208L88.574 23.64v14.415h14.415L92.703 48.34H78.297v-7.207Zm31.684 1.917-4.984-4.974v-16.4h-16.4L78.58 11.66h36.387l.004 18.013.025 18.107a.46.46 0 0 1-.016.17c-.02.054-1.32-1.218-5-4.9Z"/></svg>