<svg xmlns="http://www.w3.org/2000/svg" width="214" height="28" fill="none"><g clip-path="url(#a)"><path fill="gray" d="M83.522 2.608v-.885l-.372-.253H68.348l-.246.253v.885l.246.253h6.301l.247.253v18.443l.247.253h1.111l.247-.253V3.235l.247-.252h6.42l.371-.378-.017.003Zm3.328 4.413c-3.953 0-6.3 2.904-6.3 7.061v.636c0 4.048 1.976 7.579 6.538 7.579 3.953 0 5.44-2.654 5.677-4.413l-.244-.25h-1.114l-.244.25c-.618 1.768-1.733 2.906-3.953 2.906-3.715 0-4.815-3.53-4.815-5.295l.25-.25h10.254l.25-.256v-.885c0-4.17-2.22-7.061-6.302-7.061l.003-.022Zm0 1.516c1.727 0 2.866.728 3.567 1.707.71.98.987 2.21.987 3.227l-.244.255h-8.65l-.249-.255c0-1.01.278-2.243.987-3.226.71-.98 1.855-1.708 3.596-1.708h.006Zm9.125 6.057c0-4.048 1.974-6.179 4.815-6.179 2.839 0 3.953 1.769 4.31 3.53l.246.253h1.234l.247-.252c-.247-2.907-2.592-4.93-6.034-4.93-3.715 0-6.539 2.4-6.539 7.578 0 5.295 2.839 7.578 6.539 7.578 3.448 0 5.677-2.02 6.034-4.93l-.247-.253h-1.112l-.246.252c-.247 1.769-1.481 3.53-4.31 3.53-2.839 0-4.937-2.02-4.937-6.177Zm24.67 7.091v-8.857c0-3.804-1.974-5.813-5.172-5.813-1.974 0-3.715.886-4.577 2.402h-.247V1.838l-.372-.377h-1.111l-.247.253v19.965l.247.253h1.111l.247-.253v-7.974c0-3.287 1.48-5.296 4.577-5.296 2.345 0 3.716 1.516 3.716 4.413v8.857l.246.253h1.112l.493-.253-.023.006Zm14.563 0v-8.857c0-3.804-1.973-5.813-5.171-5.813-1.974 0-3.716.886-4.577 2.402h-.247l-.247-1.769-.247-.252h-.865l-.246.252v14.03l.246.253h1.112l.247-.252v-7.974c0-3.287 1.48-5.296 4.577-5.296 2.345 0 3.715 1.516 3.715 4.413v8.857l.247.253h1.233l.247-.253-.024.006Zm8.263-14.548c-3.715 0-6.539 2.657-6.539 7.578 0 4.93 2.842 7.579 6.539 7.579 3.698 0 6.539-2.651 6.539-7.579 0-4.93-2.841-7.578-6.539-7.578Zm0 1.391c1.421 0 2.622.603 3.478 1.677.847 1.074 1.34 2.623 1.34 4.504 0 1.896-.493 3.44-1.34 4.505-.847 1.074-2.051 1.67-3.478 1.67-1.421 0-2.621-.596-3.477-1.67-.847-1.075-1.341-2.624-1.341-4.505 0-1.96.494-3.5 1.341-4.565.847-1.059 2.051-1.628 3.477-1.628v.012Zm10.373 13.148V1.71l-.371-.253h-1.112l-.247.253v19.965l.247.252h1.112l.371-.252Zm8.531-14.548c-3.716 0-6.539 2.657-6.539 7.578 0 4.93 2.841 7.579 6.539 7.579 3.697 0 6.538-2.651 6.538-7.579 0-4.93-2.835-7.578-6.538-7.578Zm0 1.39c1.42 0 2.618.603 3.477 1.678.847 1.074 1.346 2.623 1.346 4.504 0 1.896-.499 3.44-1.346 4.505-.847 1.074-2.048 1.67-3.477 1.67-1.421 0-2.622-.596-3.478-1.67-.853-1.075-1.352-2.624-1.352-4.505 0-1.96.499-3.5 1.346-4.565.847-1.06 2.051-1.628 3.478-1.628l.006.012Zm14.058-1.515c-3.953 0-6.063 3.287-6.063 7.579 0 4.412 1.976 7.578 6.063 7.578 2.592 0 3.953-1.139 4.577-2.402v.125c0 3.805-.862 6.696-4.309 6.696-2.592 0-3.448-1.135-3.716-2.651l-.249-.256h-1.109l-.25.256c.247 2.401 1.98 4.048 5.44 4.048 3.715 0 6.063-2.401 6.063-8.218V7.615l-.25-.25h-.865l-.243.25-.25 1.771h-.244c-.618-1.138-1.976-2.401-4.577-2.401l-.018.018Zm0 1.391c1.421 0 2.562.502 3.359 1.528.787 1.026 1.218 2.575 1.218 4.656 0 2.085-.431 3.622-1.218 4.657-.788 1.026-1.929 1.534-3.359 1.534-1.421 0-2.562-.508-3.358-1.534-.788-1.026-1.213-2.575-1.213-4.657 0-2.02.428-3.56 1.213-4.626.787-1.044 1.928-1.576 3.358-1.576v.018Zm10.849-3.652V2.974l-.247-.253h-1.112l-.371.253v1.768l.247.253h1.111l.372-.253Zm0 16.922V7.634l-.247-.253h-1.112l-.371.252v14.03l.247.253h1.111l.372-.252Zm8.263-14.67c-3.954 0-6.302 2.904-6.302 7.061v.636c0 4.048 1.977 7.578 6.539 7.578 3.953 0 5.439-2.654 5.677-4.413l-.249-.25h-1.109l-.25.25c-.618 1.768-1.727 2.907-3.953 2.907-3.715 0-4.815-3.53-4.815-5.296l.25-.25h10.254l.25-.255v-.886c0-4.048-2.348-7.06-6.301-7.06l.009-.022Zm0 1.516c1.726 0 2.871.727 3.596 1.707.71.98.987 2.21.987 3.226l-.25.256h-8.649l-.244-.256c0-1.01.277-2.243.987-3.226.71-.98 1.849-1.707 3.567-1.707h.006Zm18.398 9.617c0-2.654-1.481-3.804-4.31-4.413-2.839-.633-4.577-.886-4.577-2.906 0-1.516 1.111-2.402 3.21-2.402 2.591 0 3.447 1.139 3.447 2.654l.247.253h1.112l.247-.253c0-2.906-2.345-4.048-5.172-4.048-3.21 0-4.815 1.769-4.815 3.805 0 2.401 1.727 3.53 4.577 4.047 2.839.634 4.31.886 4.31 3.287 0 1.516-.865 2.654-3.715 2.654-2.592 0-3.716-1.515-3.716-3.287l-.247-.252h-1.111l-.247.252c0 2.654 1.973 4.687 5.439 4.687 3.567.128 5.32-1.643 5.32-4.047l.001-.03Z"/><path fill="#007DB8" d="M68.06 17.622v4.17H55.22V1.156h4.667V17.59h8.174v.03ZM29.126 0 17.74 8.978c-1.168-4.474-4.963-7.76-9.63-7.76H-.063v20.634h8.174c4.666 0 8.768-3.287 9.63-7.76l11.384 8.978 11.383-8.979v7.761h12.84v-4.2h-8.47V1.217H40.21v7.761l-10.79 8.978-2.332-2.093 5.26-4.2 5.559-4.474-3.21-2.688-10.79 8.674-2.333-2.094 10.79-8.37-3.21-2.687h-.006L29.125 0ZM4.307 5.387h3.507c.728 0 1.444.167 2.101.475.657.307 1.26.758 1.772 1.32a6.3 6.3 0 0 1 1.218 1.985c.292.758.452 1.6.452 2.496 0 .821-.143 1.622-.413 2.364a6.502 6.502 0 0 1-1.156 2.003 5.53 5.53 0 0 1-1.754 1.385 4.989 4.989 0 0 1-2.223.517H4.304V5.393l.003-.006Z"/></g><defs><clipPath id="a"><path fill="#fff" d="M0 0h214v28H0z"/></clipPath></defs></svg>