<svg width="24" height="24" viewBox="0 0 24 24" fill="none" xmlns="http://www.w3.org/2000/svg">
<path fill-rule="evenodd" clip-rule="evenodd" d="M11 5.55556C7.99312 5.55556 5.55556 7.99312 5.55556 11C5.55556 14.0069 7.99312 16.4444 11 16.4444C14.0069 16.4444 16.4444 14.0069 16.4444 11C16.4444 7.99312 14.0069 5.55556 11 5.55556ZM4 11C4 7.13401 7.13401 4 11 4C14.866 4 18 7.13401 18 11C18 14.866 14.866 18 11 18C7.13401 18 4 14.866 4 11Z" fill="#0083CA"/>
<path fill-rule="evenodd" clip-rule="evenodd" d="M15.2306 15.2306C15.5381 14.9231 16.0367 14.9231 16.3442 15.2306L19.7694 18.6558C20.0769 18.9633 20.0769 19.4619 19.7694 19.7694C19.4619 20.0769 18.9633 20.0769 18.6558 19.7694L15.2306 16.3442C14.9231 16.0367 14.9231 15.5381 15.2306 15.2306Z" fill="#0083CA"/>
</svg>
