<svg width="92" height="48" viewBox="0 0 92 48" fill="none" xmlns="http://www.w3.org/2000/svg">
<g clip-path="url(#clip0_2636_77803)">
<path d="M48.7686 41.5975C70.5478 39.6904 87.4244 29.3484 86.4636 18.498C85.5028 7.64756 67.0684 0.397573 45.2892 2.30468C23.51 4.21179 6.63337 14.5538 7.59417 25.4042C8.55497 36.2547 26.9894 43.5047 48.7686 41.5975Z" fill="white"/>
<path d="M84.9708 7.77344C85.1672 7.77344 85.3243 7.81249 85.5206 7.92966C85.6777 8.00777 85.8348 8.164 85.9134 8.32022C86.0312 8.5155 86.0705 8.67173 86.0705 8.86701C86.0705 9.06229 86.0312 9.25757 85.9134 9.4138C85.8348 9.57002 85.6777 9.72625 85.5206 9.80436C85.3635 9.88247 85.1672 9.96058 84.9708 9.96058C84.7744 9.96058 84.578 9.92153 84.4209 9.80436C84.2638 9.72625 84.1067 9.57002 84.0282 9.4138C83.9496 9.25757 83.8711 9.06229 83.8711 8.86701C83.8711 8.67173 83.9104 8.47645 84.0282 8.32022C84.146 8.164 84.2638 8.00777 84.4602 7.92966C84.6173 7.81249 84.8137 7.77344 84.9708 7.77344ZM84.9708 7.85155C84.8137 7.85155 84.6566 7.89061 84.4602 7.96872C84.2638 8.04683 84.1853 8.164 84.0675 8.32022C83.9889 8.47645 83.9496 8.63267 83.9496 8.82795C83.9496 8.98418 83.9889 9.17946 84.0675 9.33568C84.146 9.49191 84.2638 9.60908 84.4209 9.68719C84.578 9.7653 84.7351 9.80436 84.9315 9.80436C85.0886 9.80436 85.285 9.7653 85.4421 9.68719C85.5992 9.60908 85.717 9.49191 85.7956 9.33568C85.8741 9.17946 85.9134 9.02323 85.9134 8.82795C85.9134 8.67173 85.8741 8.47645 85.7956 8.32022C85.717 8.164 85.5992 8.04683 85.4028 7.96872C85.2064 7.89061 85.1672 7.85155 84.9708 7.85155ZM84.3817 8.164H84.9708C85.1279 8.164 85.2457 8.20306 85.3243 8.28117C85.4028 8.35928 85.4421 8.43739 85.4421 8.5155C85.4421 8.59362 85.4028 8.67173 85.3635 8.71078C85.3243 8.7889 85.2064 8.82795 85.0886 8.82795L85.4028 9.29663C85.4421 9.33568 85.4814 9.37474 85.5206 9.4138C85.5599 9.4138 85.5599 9.45285 85.5992 9.45285V9.49191H85.3243L84.853 8.86701H84.7351V9.37474C84.7351 9.4138 84.7744 9.45285 84.7744 9.45285C84.8137 9.45285 84.853 9.49191 84.9315 9.49191V9.53096H84.3424V9.49191C84.3817 9.49191 84.4209 9.49191 84.4602 9.49191C84.4995 9.49191 84.4995 9.45285 84.4995 9.45285C84.4995 9.45285 84.4995 9.37474 84.4995 9.29663V8.47645C84.4995 8.39834 84.4995 8.35928 84.4995 8.35928C84.4995 8.32022 84.4602 8.32022 84.4602 8.32022C84.4602 8.32022 84.4209 8.32022 84.3424 8.32022V8.164H84.3817ZM84.7351 8.82795C84.853 8.82795 84.9315 8.82795 85.0101 8.7889C85.0493 8.74984 85.1279 8.74984 85.1279 8.67173C85.1672 8.63267 85.1672 8.59362 85.1672 8.5155C85.1672 8.43739 85.1279 8.35928 85.0886 8.32022C85.0493 8.28117 84.9708 8.24211 84.853 8.24211C84.8137 8.24211 84.7744 8.24211 84.7351 8.28117V8.82795Z" fill="#003A70"/>
<path d="M86.8159 17.9234C88.3477 30.187 70.2027 42.4897 46.2842 45.4189C22.3658 48.3481 1.94284 40.7712 0.411116 28.5076C-1.12061 16.244 16.9066 3.9413 40.825 1.01209C64.7434 -1.91712 85.3235 5.65977 86.8159 17.9234ZM45.3024 2.30094C23.5048 4.21469 6.61655 14.5646 7.59843 25.4222C8.5803 36.2798 27.0002 43.5442 48.7978 41.6305C70.5954 39.7167 87.4836 29.3668 86.5018 18.5092C85.5199 7.61258 67.0999 0.387191 45.3024 2.30094Z" fill="#00953B"/>
<path d="M86.3059 28.5923C88.822 28.5923 90.8618 26.5639 90.8618 24.0618C90.8618 21.5596 88.822 19.5312 86.3059 19.5312C83.7897 19.5312 81.75 21.5596 81.75 24.0618C81.75 26.5639 83.7897 28.5923 86.3059 28.5923Z" fill="#D7282F"/>
<path d="M23.6234 20.2343H23.7805C24.2911 20.2733 24.5268 20.4296 24.6053 20.5077C24.6839 20.5858 24.8017 20.8592 24.8017 21.6794V24.9601C24.8017 25.7412 24.7231 26.327 24.5268 26.6785C24.2126 27.3034 23.5842 27.6159 22.6023 27.6159C21.7383 27.6159 21.1491 27.3034 20.8349 26.7176C20.6778 26.3661 20.5993 25.8974 20.5993 25.2335V21.1716C20.5993 20.6248 20.7171 20.4686 20.7564 20.4296C20.8349 20.3905 21.0313 20.2733 21.5812 20.2343H21.7383V19.6484H17.7715V20.2343H17.9286C18.5177 20.2733 18.6748 20.3905 18.7534 20.4296C18.7926 20.4686 18.9105 20.6248 18.9105 21.1716V25.1163C18.9105 25.9365 19.0676 26.6004 19.3425 27.1082C19.8923 28.0455 20.8742 28.5532 22.3274 28.5532C23.7805 28.5532 24.8017 28.0846 25.3123 27.1082C25.5872 26.6004 25.7443 25.8584 25.7443 24.9601V21.6794C25.7443 20.8592 25.8621 20.6248 25.9407 20.5467C26.0192 20.4296 26.2156 20.3124 26.7654 20.2733H26.9225V19.6875H23.5842V20.2343H23.6234Z" fill="#003A70"/>
<path d="M15.3756 22.343L14.001 21.4837C13.4904 21.1713 13.1369 20.8979 12.9013 20.6245C12.6656 20.3902 12.5871 20.0777 12.5871 19.7262C12.5871 19.3356 12.7049 19.0232 12.9798 18.8279C13.2548 18.5936 13.6082 18.4764 14.001 18.4764C14.5116 18.4764 15.0221 18.6717 15.572 19.0232C16.0826 19.3747 16.4753 20.0777 16.711 21.0151L16.7502 21.1713H17.4965L17.1037 17.5H16.436V17.6172C16.3968 17.7734 16.3575 17.8515 16.2789 17.9296C16.2397 17.9687 16.1611 18.0077 16.0433 18.0077C16.0433 18.0077 15.8862 17.9687 15.2185 17.7734C14.7079 17.5781 14.2366 17.5 13.8832 17.5C12.9798 17.5 12.2336 17.7734 11.6445 18.3202C11.0946 18.867 10.8197 19.57 10.8197 20.4292C10.8197 21.0541 11.0554 21.64 11.5267 22.1867C11.7623 22.4601 12.1158 22.7335 12.5085 23.0069L13.8439 23.8271C14.5901 24.2958 15.1007 24.6473 15.3363 24.8816C15.6898 25.2331 15.8469 25.6237 15.8469 26.0924C15.8469 26.6001 15.6898 26.9906 15.3756 27.264C15.0614 27.5374 14.6687 27.6937 14.1974 27.6937C13.3333 27.6937 12.6264 27.3421 12.0372 26.6782C11.6838 26.2876 11.4088 25.7408 11.1339 25.0769L11.0946 24.9597H10.3877L10.8983 28.6701H11.5659L11.6052 28.5138C11.6052 28.3967 11.6445 28.3186 11.723 28.2014C11.7623 28.1623 11.8409 28.1233 11.9194 28.1233C11.9194 28.1233 12.0765 28.1233 12.7835 28.3967C13.3333 28.5919 13.8832 28.6701 14.3545 28.6701C15.3756 28.6701 16.2004 28.3576 16.8681 27.8108C17.5357 27.225 17.8499 26.4829 17.8499 25.6237C17.8499 24.9597 17.6536 24.4129 17.3001 23.9443C16.8681 23.3584 16.2789 22.8507 15.3756 22.343Z" fill="#003A70"/>
<path d="M30.3396 24.7257C30.536 24.7257 30.7324 24.7257 30.8895 24.7257C31.8713 24.7257 32.6961 24.5304 33.3638 24.1008C34.0707 23.6712 34.3849 23.0073 34.3849 22.0699C34.3849 21.3278 34.0707 20.742 33.4423 20.2733C32.8532 19.8437 31.9891 19.6094 30.8502 19.6094H27.3154V20.1952H27.4725C28.0224 20.2343 28.1795 20.3514 28.2188 20.3905C28.258 20.4296 28.3759 20.6248 28.3759 21.1326V26.6004C28.3759 27.2253 28.2973 27.4206 28.258 27.4987C28.2188 27.5378 28.0617 27.6549 27.4725 27.7331H27.3154V28.3189H31.2429V27.7331H31.0858C30.4574 27.694 30.261 27.5768 30.2218 27.5378C30.1825 27.4987 30.0647 27.3425 30.0647 26.7957V24.6867C30.1432 24.6867 30.2218 24.7257 30.3396 24.7257ZM30.0647 20.7029C30.0647 20.5467 30.104 20.5077 30.104 20.5077C30.104 20.5077 30.1825 20.4686 30.4574 20.4686C30.968 20.4686 31.4 20.5467 31.7535 20.7029C32.3426 20.9763 32.6568 21.445 32.6568 22.109C32.6568 22.851 32.3819 23.3588 31.832 23.6322C31.5178 23.7884 31.0858 23.8665 30.536 23.8665C30.4574 23.8665 30.4182 23.8665 30.3396 23.8665C30.3003 23.8665 30.1825 23.8665 30.0647 23.8274V20.7029Z" fill="#003A70"/>
<path d="M40.865 25.8584L40.8258 25.9755C40.5116 26.6395 40.1974 27.0691 39.8046 27.2253C39.4119 27.3815 38.8228 27.4987 37.9587 27.4987C36.9376 27.4987 36.6626 27.4597 36.5841 27.4206C36.5448 27.4206 36.4663 27.3815 36.4663 27.1472V24.218H38.2336C38.862 24.218 39.0584 24.3352 39.1369 24.4133C39.2155 24.4914 39.3333 24.7257 39.4511 25.3116L39.4904 25.4678H40.1188V22.1871H39.4904L39.4511 22.3433C39.3333 22.8901 39.2155 23.1244 39.1369 23.2025C39.0584 23.2807 38.862 23.3978 38.2336 23.3978H36.4663V20.7029C36.4663 20.5467 36.5055 20.5077 36.4663 20.5077C36.4663 20.5077 36.5448 20.4686 36.6626 20.4686H38.3907C39.294 20.4686 39.6082 20.5858 39.7261 20.6639C39.8439 20.742 40.001 21.0154 40.1581 21.6403L40.1974 21.7965H40.865L40.8258 19.6094H33.717V20.1952H33.8741C34.424 20.2343 34.6203 20.3514 34.6596 20.3905C34.6989 20.4296 34.8167 20.6248 34.8167 21.1326V26.7566C34.8167 27.3425 34.6989 27.4597 34.6596 27.4987C34.5811 27.5378 34.424 27.6549 33.8348 27.694H33.6777V28.2798H40.9043L41.572 25.7802H40.865V25.8584Z" fill="#003A70"/>
<path d="M49.1128 27.6159C48.9557 27.5378 48.8379 27.4206 48.6808 27.2253L46.2457 24.2571C46.8349 24.1399 47.3454 23.9056 47.6989 23.5931C48.1702 23.2025 48.4059 22.6948 48.4059 21.9918C48.4059 20.9763 47.8953 20.2733 46.8741 19.8828C46.3636 19.6875 45.7352 19.6094 44.9889 19.6094H41.2578V20.1952H41.4149C41.9648 20.2343 42.1219 20.3514 42.2004 20.3905C42.2397 20.4296 42.3575 20.6248 42.3575 21.1326V26.6004C42.3575 27.2644 42.279 27.4206 42.2397 27.4987C42.2004 27.5378 42.0433 27.6549 41.4542 27.7331H41.2971V28.3189H45.2246V27.7331H45.0675C44.4784 27.694 44.3213 27.5768 44.2427 27.5378C44.2034 27.4987 44.0856 27.3425 44.0856 26.7957V24.4914H44.3605L47.5418 28.397H49.859V27.8112H49.7019C49.4663 27.7331 49.2699 27.694 49.1128 27.6159ZM44.0463 23.6322V20.7029C44.0463 20.5467 44.0856 20.5077 44.0856 20.5077C44.0856 20.5077 44.2034 20.4686 44.6355 20.4686C45.146 20.4686 45.5388 20.5467 45.853 20.6639C46.4028 20.8982 46.6385 21.3278 46.6385 21.9918C46.6385 22.6558 46.3636 23.1244 45.7352 23.3588C45.421 23.515 44.8318 23.6322 44.0463 23.6322Z" fill="#003A70"/>
<path d="M55.8685 25.6631L53.08 19.6094H50.2522V20.1952H50.4485C51.0769 20.2343 51.2733 20.3514 51.3126 20.3905C51.3911 20.4296 51.4697 20.6248 51.4697 21.1326V26.288C51.4697 27.1082 51.3519 27.3425 51.2733 27.4597C51.1948 27.5378 50.9984 27.694 50.37 27.7331H50.2129V28.3189H53.5905V27.7331H53.4334C52.8836 27.694 52.7265 27.5768 52.6479 27.4987C52.5301 27.3815 52.4123 27.0691 52.4123 26.288V22.148L55.3186 28.397H55.7507L58.6963 21.8746V26.6785C58.6963 27.3425 58.5784 27.5378 58.5392 27.5768C58.4999 27.6159 58.3428 27.7331 57.7144 27.7721H57.5573V28.3579H61.4848V27.7721H61.3277C60.7778 27.7331 60.5815 27.6159 60.5422 27.5768C60.5029 27.5378 60.3851 27.3815 60.3851 26.8348V21.1716C60.3851 20.6639 60.4636 20.4686 60.5422 20.4296C60.5815 20.3905 60.7778 20.2733 61.3277 20.2343H61.4848V19.6484H58.657L55.8685 25.6631Z" fill="#003A70"/>
<path d="M64.9011 27.5768C64.8618 27.5378 64.744 27.4206 64.744 26.8348V21.1716C64.744 20.6248 64.8618 20.4686 64.9011 20.4296C64.9797 20.3514 65.176 20.2733 65.8044 20.2343H66.0008V19.6484H61.877V20.2343H62.0733C62.7017 20.2733 62.8981 20.3514 62.9767 20.4296C63.0159 20.4686 63.1337 20.6248 63.1337 21.1716V26.7957C63.1337 27.3816 63.0159 27.5378 62.9767 27.5378C62.8981 27.5768 62.7017 27.694 62.0733 27.7331H61.9162V28.3189H66.0401V27.7331H65.883C65.176 27.7331 64.9404 27.6159 64.9011 27.5768Z" fill="#003A70"/>
<path d="M72.7166 26.4051C72.3631 26.7566 72.0096 27.03 71.6954 27.1862C71.1848 27.4987 70.5957 27.6159 69.9673 27.6159C69.1033 27.6159 68.3963 27.3034 67.8465 26.6785C67.2966 26.0536 66.9824 25.1944 66.9824 24.1008C66.9824 22.9291 67.2574 21.9918 67.8072 21.3278C68.357 20.6639 69.0247 20.3514 69.8495 20.3514C70.6743 20.3514 71.3027 20.6639 71.8132 21.2497C72.0882 21.5622 72.2845 22.0308 72.4416 22.5386L72.4809 22.6557H73.1093L72.9915 19.4531H72.4024L72.3631 19.5703C72.3238 19.6484 72.2845 19.7265 72.206 19.7656C72.1274 19.8046 72.0489 19.8437 71.9703 19.8437C71.9311 19.8437 71.8132 19.8046 71.1848 19.6484C70.6743 19.4922 70.203 19.4531 69.7317 19.4531C68.357 19.4531 67.2181 19.9218 66.3933 20.8201C65.5685 21.6793 65.1758 22.7729 65.1758 24.0617C65.1758 25.3115 65.5685 26.3661 66.354 27.1862C67.1788 28.0845 68.3178 28.5532 69.7317 28.5532C70.5957 28.5532 71.4205 28.3189 72.1667 27.8502C72.5987 27.5768 72.9522 27.2253 73.2664 26.8738L73.3842 26.7566L72.9129 26.288L72.7166 26.4051Z" fill="#003A70"/>
<path d="M81.7503 27.7721C81.5147 27.7331 81.3576 27.694 81.2005 27.6159C81.0434 27.5378 80.9256 27.4206 80.7685 27.2253L78.3334 24.2571C78.9225 24.1399 79.4331 23.9056 79.7866 23.5931C80.2579 23.2025 80.4935 22.6948 80.4935 21.9918C80.4935 20.9763 79.983 20.2733 78.9618 19.8828C78.4512 19.6875 77.8228 19.6094 77.0766 19.6094H73.3848V20.1952H73.5419C74.0917 20.2343 74.2488 20.3514 74.3274 20.3905C74.3666 20.4296 74.4845 20.6248 74.4845 21.1326V26.6004C74.4845 27.2644 74.4059 27.4206 74.3666 27.4987C74.3274 27.5378 74.1703 27.6549 73.5811 27.7331H73.424V28.3189H77.3515V27.7331H77.1944C76.6053 27.694 76.4482 27.5768 76.3697 27.5378C76.3304 27.4987 76.2126 27.3425 76.2126 26.7957V24.4914H76.4875L79.6688 28.397H81.986V27.8112L81.7503 27.7721ZM76.134 23.6322V20.7029C76.134 20.5467 76.1733 20.5077 76.1733 20.5077C76.1733 20.5077 76.2911 20.4686 76.7231 20.4686C77.2337 20.4686 77.6265 20.5467 77.9407 20.6639C78.4905 20.8982 78.7262 21.3278 78.7262 21.9918C78.7262 22.6558 78.4512 23.1244 77.8228 23.3588C77.5086 23.515 76.9195 23.6322 76.134 23.6322Z" fill="#003A70"/>
</g>
<defs>
<clipPath id="clip0_2636_77803">
<rect width="91" height="48" fill="white" transform="translate(0.333008)"/>
</clipPath>
</defs>
</svg>
