<svg width="141" height="37" viewBox="0 0 141 37" fill="none" xmlns="http://www.w3.org/2000/svg">
<path d="M0 19.5487L4.8653 19.0742C5.16404 20.7405 5.76687 21.9539 6.66845 22.7358C7.57002 23.5124 8.79168 23.906 10.3121 23.906C11.9392 23.906 13.1608 23.5393 13.9771 22.8652C14.8146 22.1696 15.2201 21.3499 15.2201 20.4385C15.2201 20.1581 15.1774 19.8777 15.092 19.6188C15.0067 19.36 14.8786 19.1227 14.7079 18.9016C14.3665 18.4917 13.7637 18.1196 12.9048 17.8176C12.3019 17.6019 10.9736 17.2298 8.87703 16.6906C6.17765 16.0165 4.28914 15.1968 3.21686 14.1991C2.85409 13.8971 2.52867 13.5304 2.22993 13.1583C1.95252 12.7701 1.69645 12.3602 1.49907 11.9018C1.30702 11.4704 1.15764 11.012 1.05095 10.5375C0.965591 10.0629 0.901574 9.58294 0.922913 9.10838C0.922913 8.46126 1.00827 7.83031 1.17898 7.20475C1.37103 6.59537 1.64844 6.03453 1.9952 5.49525C2.3793 4.91284 2.83276 4.41131 3.36623 3.95832C3.90504 3.5269 4.4812 3.18177 5.12137 2.91753C6.47106 2.35668 8.10349 2.05469 10.0293 2.05469C13.1342 2.05469 15.4921 2.74496 17.0819 4.13089C18.6663 5.55996 19.4825 7.39889 19.5679 9.73933L14.5105 9.9119C14.2971 8.63382 13.8437 7.70627 13.1395 7.11846C12.4086 6.55762 11.363 6.27181 9.97066 6.27181C8.51427 6.27181 7.35663 6.5738 6.54041 7.20475C6.41238 7.26946 6.30568 7.37732 6.19899 7.48517C6.09229 7.6146 6.00694 7.72245 5.94292 7.87345C5.8789 8.00287 5.81488 8.1323 5.79355 8.2833C5.75087 8.43429 5.75087 8.58529 5.75087 8.73628C5.75087 8.88728 5.75087 9.03828 5.79355 9.1677C5.81488 9.3187 5.8789 9.4697 5.94292 9.59912C6.00694 9.72855 6.07095 9.85797 6.17765 9.96583C6.263 10.0737 6.3697 10.1815 6.49773 10.2678C7.1219 10.8287 8.66364 11.3733 11.107 11.9557C13.5503 12.5436 15.3534 13.1475 16.5271 13.7731C17.0819 14.0751 17.5994 14.4472 18.0688 14.8786C18.5383 15.3316 18.9491 15.8116 19.2691 16.3724C19.936 17.4348 20.2774 18.7991 20.2774 20.4008C20.2774 21.1396 20.1707 21.8298 19.9787 22.5255C19.7653 23.2158 19.4665 23.8683 19.0771 24.4723C18.6716 25.1248 18.1755 25.6856 17.6207 26.1602C17.0392 26.6348 16.399 27.0284 15.7109 27.3089C14.2545 27.9182 12.4513 28.2418 10.2907 28.2418C7.1379 28.2418 4.71592 27.4814 3.02481 25.9876C1.30702 24.5262 0.320085 22.3583 0 19.5487Z" fill="#616E77"/>
<path d="M19.6318 9.42969H24.6892L29.021 22.4424L33.2408 9.42969H38.1701L31.8484 27.0586L30.6694 30.2618C30.3707 31.1301 29.9599 31.9498 29.4905 32.7101C29.1277 33.271 28.6956 33.7294 28.1835 34.0961C27.6286 34.4628 27.0045 34.7432 26.359 34.9212C25.5641 35.1369 24.7479 35.2232 23.9156 35.2232C22.9927 35.2232 22.0965 35.1153 21.2163 34.9212L20.8108 31.1085C21.4777 31.2595 22.1605 31.3458 22.8487 31.3458C23.9423 31.3458 24.7799 31.0222 25.292 30.3697C25.8682 29.5877 26.2789 28.7465 26.5137 27.8135L19.6318 9.42969Z" fill="#616E77"/>
<path d="M54.7826 27.7717H50.0027V18.4423C50.0027 16.474 49.9173 15.2121 49.7039 14.6297C49.6186 14.3492 49.4692 14.0904 49.2985 13.8693C49.1278 13.632 48.9357 13.4379 48.701 13.2653C48.4449 13.1143 48.1835 12.9849 47.8848 12.8986C47.6074 12.8123 47.3086 12.7907 47.0259 12.7907C46.6205 12.7907 46.2097 12.8339 45.8469 12.9633C45.4628 13.0712 45.0947 13.2437 44.7533 13.481C44.4332 13.6967 44.1505 13.9556 43.9157 14.2576C43.7023 14.5811 43.5103 14.9047 43.4036 15.2983C43.1475 16.0587 43.0195 17.4447 43.0195 19.4993V27.7717H38.2822V9.43107H42.6941V12.1166C44.2785 10.1052 46.2524 9.08594 48.6743 9.08594C49.6826 9.08594 50.6482 9.28007 51.5658 9.64678C51.9712 9.81935 52.3393 10.0135 52.6594 10.2562C53.0008 10.515 53.3049 10.7954 53.561 11.1406C54.0358 11.7499 54.3345 12.4186 54.5052 13.152C54.7186 14.236 54.804 15.3199 54.7826 16.42V27.7717Z" fill="#616E77"/>
<path d="M54.8037 18.4232C54.8037 17.5981 54.9104 16.7999 55.1025 15.9964C55.3158 15.2145 55.5933 14.4595 55.9827 13.7261C56.3455 13.0089 56.8202 12.3402 57.3964 11.7578C57.9512 11.1699 58.5967 10.6738 59.3276 10.2855C60.0584 9.89726 60.8266 9.58988 61.6429 9.37417C62.4804 9.18003 63.2966 9.09375 64.1289 9.09375C66.8709 9.09375 69.1222 10.0051 70.8826 11.8009C72.6164 13.5967 73.4967 15.8724 73.518 18.6227C73.518 21.3945 72.6164 23.6918 70.8613 25.5092C69.0795 27.3481 66.8549 28.2595 64.1715 28.2595C63.334 28.2595 62.5231 28.1516 61.7282 27.9575C60.912 27.7634 60.1438 27.4829 59.4129 27.1108C58.6821 26.7441 58.0206 26.2857 57.4177 25.7033C56.8362 25.1425 56.3455 24.49 55.9614 23.7566C55.1878 22.2951 54.8037 20.5209 54.8037 18.4232ZM59.6903 18.6604C59.6903 20.4994 60.0958 21.8853 60.976 22.8398C61.0614 22.9692 61.1681 23.0771 61.2748 23.1634C61.3815 23.2712 61.5095 23.3791 61.6162 23.4654C61.7442 23.5516 61.8723 23.6379 62.0003 23.7026C62.1283 23.7889 62.2564 23.8536 62.3844 23.9183C62.5338 23.9831 62.6618 24.0478 62.8112 24.0909C62.9392 24.134 63.0886 24.1772 63.2379 24.1988C63.3873 24.2419 63.5367 24.2635 63.6861 24.285C63.8354 24.3066 63.9635 24.3066 64.1182 24.3066C64.2676 24.3066 64.4169 24.3066 64.5663 24.285C64.7157 24.2635 64.865 24.2419 65.0144 24.1988C65.1638 24.1772 65.3132 24.134 65.4412 24.0909C65.5906 24.0478 65.7186 23.9831 65.868 23.9183C65.996 23.8536 66.124 23.7889 66.2521 23.7026C66.3801 23.6379 66.5081 23.5516 66.6362 23.4654C66.7429 23.3791 66.8709 23.2712 66.9776 23.1634C67.0843 23.0771 67.191 22.9692 67.2764 22.8398C68.1352 21.8853 68.5407 20.4778 68.5407 18.6389C68.5407 16.8215 68.1352 15.4572 67.2764 14.5026C67.191 14.3732 67.0843 14.2654 66.9776 14.1791C66.8496 14.0712 66.7429 13.9634 66.6362 13.8771C66.5081 13.7908 66.3801 13.7045 66.2521 13.6398C66.124 13.5535 65.996 13.4888 65.868 13.4241C65.7186 13.3594 65.5906 13.3163 65.4412 13.2515C65.2918 13.2084 65.1638 13.1653 65.0144 13.1437C64.865 13.1005 64.7157 13.079 64.5663 13.079C64.4169 13.0574 64.2676 13.0358 64.1182 13.0358C63.9688 13.0358 63.8408 13.0574 63.6861 13.079C63.5367 13.079 63.3873 13.1005 63.2379 13.1437C63.0886 13.1653 62.9392 13.2084 62.8112 13.2515C62.6618 13.3163 62.5338 13.3594 62.3844 13.4241C62.2564 13.4888 62.1283 13.5535 62.0003 13.6398C61.8723 13.7045 61.7442 13.7908 61.6162 13.8771C61.5095 13.9634 61.3815 14.0712 61.2748 14.1791C61.1681 14.2654 61.0614 14.3732 60.976 14.5026C60.1171 15.4356 59.6903 16.8431 59.6903 18.6604Z" fill="#616E77"/>
<path d="M79.3651 0.0390625V23.7023C79.3651 24.8294 79.4505 25.5844 79.5998 25.9349C79.6852 26.1075 79.7706 26.2801 79.8986 26.4311C80.0266 26.5605 80.176 26.6899 80.352 26.7762C80.6935 26.9703 81.3176 27.0566 82.2192 27.0566V27.7738H73.5609V27.0566C74.3771 27.0566 74.9319 26.9703 75.2307 26.7978C75.5508 26.6036 75.7855 26.3232 75.9189 25.9727C76.0896 25.5844 76.1749 24.824 76.1749 23.7185V7.55113C76.1749 5.53964 76.1323 4.28314 76.0469 3.82476C76.0256 3.45805 75.8762 3.13449 75.6201 2.84867C75.4067 2.67611 75.172 2.58982 74.8893 2.61139C74.4625 2.63296 74.0304 2.74082 73.6463 2.91338L73.3262 2.22312L78.5062 0.0390625H79.3651Z" fill="#616E77"/>
<path d="M90.8142 9.39062C93.4922 9.39062 95.6368 10.4099 97.2639 12.4429C97.6053 12.8743 97.9094 13.3327 98.1601 13.8073C98.4215 14.2818 98.6349 14.7834 98.8056 15.2795C99.003 15.7972 99.131 16.3203 99.2164 16.8596C99.3018 17.4042 99.3444 17.9435 99.3231 18.4828C99.3231 19.3241 99.2164 20.1492 99.0244 20.9742C98.8323 21.7993 98.5496 22.5759 98.1868 23.3363C98.0374 23.703 97.8454 24.0535 97.632 24.3986C97.4399 24.7438 97.2052 25.0727 96.9491 25.3747C96.6931 25.6983 96.389 25.9841 96.0902 26.243C95.7915 26.5234 95.4874 26.7607 95.146 26.9818C94.8046 27.1975 94.4631 27.3916 94.095 27.5642C93.7323 27.7152 93.3428 27.8662 92.9587 27.974C92.5746 28.0819 92.1852 28.1682 91.8011 28.2113C91.3957 28.2545 90.9849 28.2976 90.6008 28.276C87.9227 28.276 85.7995 27.2137 84.2364 25.0727C83.9163 24.6413 83.6176 24.1829 83.3775 23.7084C83.1214 23.2122 82.9081 22.7107 82.732 22.193C82.5613 21.6753 82.4546 21.1522 82.3692 20.6129C82.2839 20.0737 82.2412 19.529 82.2412 18.9897C82.2412 18.1431 82.3479 17.3234 82.5613 16.4983C82.7533 15.6732 83.0574 14.875 83.4415 14.1362C83.783 13.3813 84.2364 12.7072 84.7912 12.1032C85.3247 11.4992 85.9489 10.9761 86.6317 10.5447C87.2772 10.178 87.9387 9.87058 88.6483 9.67644C89.3524 9.47691 90.062 9.39062 90.8142 9.39062ZM90.2113 10.6903C89.8432 10.6903 89.4805 10.755 89.139 10.8628C88.7976 10.9491 88.4722 11.1001 88.1521 11.2943C87.4639 11.7041 86.9091 12.4213 86.4823 13.4352C86.0556 14.4544 85.8368 15.7756 85.8368 17.3773C85.8368 19.9766 86.3703 22.1822 87.3786 24.0643C88.3868 25.9679 89.7579 26.8793 91.4063 26.8793C91.7051 26.8793 92.0038 26.8577 92.3079 26.793C92.6066 26.7283 92.8894 26.6205 93.1455 26.491C93.4229 26.34 93.6576 26.189 93.8976 25.9949C94.1324 25.8008 94.3244 25.585 94.5005 25.3208C95.3167 24.3016 95.7221 22.5058 95.7221 19.9712C95.7221 16.811 95.0553 14.3412 93.7056 12.5238C92.7827 11.2997 91.625 10.6903 90.2113 10.6903Z" fill="#616E77"/>
<path d="M103.2 21.2376C103.093 21.1729 102.987 21.1082 102.88 21.065C102.773 21.0003 102.667 20.9356 102.581 20.8709C102.475 20.7846 102.368 20.7199 102.283 20.6552C102.176 20.5689 102.091 20.5042 102.005 20.4179C101.898 20.3316 101.813 20.2669 101.728 20.1806C101.642 20.0943 101.557 20.008 101.472 19.9218C101.386 19.8139 101.322 19.7276 101.237 19.6413C101.152 19.5335 101.088 19.4472 101.024 19.3393C100.938 19.2531 100.874 19.1452 100.81 19.0374C100.746 18.9295 100.682 18.8216 100.639 18.7354C100.575 18.6275 100.511 18.5197 100.469 18.3902C100.405 18.2824 100.362 18.1745 100.319 18.0667C100.277 17.9588 100.234 17.8294 100.191 17.7215C100.149 17.5921 100.127 17.4842 100.085 17.3764C100.063 17.247 100.042 17.1391 100.021 17.0097C99.9779 16.8803 99.9566 16.7724 99.9566 16.643C99.9353 16.5351 99.9139 16.4057 99.9139 16.2763C99.8926 16.1684 99.8926 16.039 99.8926 15.9096C99.8926 15.8017 99.8926 15.6723 99.8926 15.5429C99.8926 15.435 99.9139 15.3056 99.9139 15.1762C99.9353 15.0683 99.9566 14.9389 99.9779 14.831C99.9993 14.7016 100.021 14.5937 100.042 14.4643C100.063 14.3349 100.106 14.227 100.127 14.1192C100.17 13.9898 100.213 13.8819 100.255 13.7525C100.277 13.6446 100.341 13.5368 100.383 13.4289C100.426 13.2995 100.469 13.1916 100.533 13.0838C100.597 12.9759 100.639 12.8681 100.703 12.7602C100.767 12.6524 100.832 12.5661 100.896 12.4582C100.96 12.3504 101.024 12.2425 101.109 12.1562C101.173 12.0484 101.258 11.9621 101.344 11.8758C101.408 11.768 101.493 11.6817 101.578 11.5954C101.664 11.5091 101.749 11.4228 101.834 11.3365C103.163 10.08 104.833 9.4329 106.892 9.4329C107.665 9.41133 108.434 9.49761 109.186 9.71332C109.917 9.92903 110.621 10.231 111.266 10.6678H114.974C115.294 10.6463 115.635 10.6678 115.961 10.711C116.025 10.7541 116.089 10.8188 116.132 10.8835C116.238 11.0777 116.26 11.2934 116.26 11.5091C116.281 11.7464 116.238 11.9837 116.153 12.2209C116.11 12.2857 116.046 12.3288 115.961 12.3504C115.619 12.4151 115.299 12.4367 114.974 12.4151H112.68C113.411 13.348 113.752 14.556 113.752 16.0066C113.774 16.4165 113.731 16.8102 113.646 17.1984C113.56 17.6083 113.432 17.9804 113.283 18.3471C113.112 18.7138 112.92 19.0643 112.68 19.3879C112.445 19.7114 112.168 20.0188 111.864 20.2777C110.599 21.4695 108.93 22.0735 106.828 22.0735C105.905 22.0735 105.003 21.9225 104.15 21.6636C103.723 22.0303 103.36 22.4402 103.077 22.9417C102.907 23.2221 102.8 23.5457 102.779 23.8746C102.779 24.0041 102.821 24.1335 102.864 24.2413C102.928 24.3708 102.992 24.457 103.099 24.5433C103.312 24.7375 103.723 24.8885 104.342 24.9747C105.243 25.0826 106.118 25.1257 107.02 25.1257C109.677 25.212 111.394 25.3199 112.163 25.4493C112.701 25.514 113.213 25.6434 113.683 25.8807C114.179 26.0964 114.627 26.3984 115.011 26.7921C115.187 26.9647 115.358 27.1588 115.481 27.3529C115.609 27.5687 115.715 27.7844 115.827 28.0055C115.913 28.2427 115.977 28.4585 116.02 28.7173C116.062 28.9546 116.084 29.1919 116.084 29.4561C116.084 30.8852 115.395 32.2711 114.046 33.5492C112.05 35.4097 109.458 36.3642 106.225 36.3642C103.76 36.3642 101.68 35.798 99.9673 34.6763C99.0017 34.0291 98.5322 33.3551 98.5322 32.6648C98.5322 32.3412 98.6176 32.0392 98.7456 31.7318C99.1084 31.02 99.5405 30.3459 100.053 29.7419C100.138 29.6125 100.783 28.9222 101.984 27.6441C101.472 27.3637 100.997 26.997 100.591 26.5602C100.442 26.4092 100.357 26.2366 100.271 26.0425C100.207 25.8699 100.165 25.6758 100.165 25.4601C100.207 24.8993 100.378 24.3546 100.703 23.88C101.056 23.2059 101.893 22.3377 103.2 21.2376ZM103.051 27.7736C102.517 28.3128 102.085 28.9438 101.722 29.6125C101.424 30.0871 101.296 30.5886 101.269 31.1494C101.269 31.775 101.632 32.3196 102.363 32.7726C103.648 33.5762 105.515 33.986 107.937 33.986C110.253 33.986 111.944 33.5762 113.037 32.7511C114.152 31.9314 114.691 31.0631 114.691 30.1518C114.691 29.9792 114.67 29.8282 114.627 29.6988C114.584 29.5478 114.52 29.3968 114.435 29.2674C114.35 29.1379 114.243 29.0301 114.115 28.9438C113.987 28.8575 113.859 28.7712 113.71 28.7281C113.043 28.4477 111.714 28.2751 109.746 28.232C106.822 28.1403 104.593 27.9677 103.051 27.7736ZM106.566 10.3658C106.332 10.3658 106.118 10.3874 105.878 10.4521C105.665 10.4953 105.451 10.5816 105.238 10.6678C105.046 10.7757 104.854 10.9051 104.662 11.0345C104.491 11.1855 104.342 11.3365 104.187 11.5307C103.547 12.291 103.248 13.4343 103.248 15.0144C103.248 17.0474 103.675 18.6329 104.534 19.733C104.683 19.9487 104.854 20.1213 105.046 20.2723C105.217 20.4449 105.43 20.5743 105.643 20.6821C105.857 20.79 106.097 20.8763 106.332 20.941C106.588 20.9841 106.828 21.0273 107.062 21.0273C107.297 21.0273 107.532 21.0057 107.745 20.9626C107.959 20.8978 108.172 20.8331 108.391 20.7468C108.604 20.639 108.796 20.5311 108.967 20.3801C109.159 20.2507 109.308 20.0781 109.458 19.9056C110.082 19.1668 110.402 18.0235 110.402 16.465C110.402 14.432 109.954 12.8034 109.074 11.6601C108.946 11.466 108.775 11.2718 108.583 11.1208C108.412 10.9483 108.193 10.8188 107.98 10.711C107.767 10.6031 107.532 10.5168 107.292 10.4521C107.057 10.3874 106.801 10.3658 106.566 10.3658Z" fill="#616E77"/>
<path d="M116.809 9.91164H125.062V10.6289H124.656C124.438 10.6073 124.208 10.6289 123.968 10.6936C123.755 10.7583 123.542 10.8662 123.344 10.9956C123.216 11.125 123.109 11.2544 123.045 11.427C122.96 11.578 122.917 11.7506 122.917 11.9447C122.917 12.4408 123.131 13.1581 123.563 14.0425L127.873 23.0699L131.816 13.1958C132.029 12.6997 132.136 12.155 132.136 11.5942C132.157 11.4216 132.114 11.249 132.008 11.098C131.88 10.9255 131.73 10.8176 131.533 10.7529C131.144 10.6451 130.759 10.6019 130.375 10.6235V9.90625H136.078V10.6235C135.689 10.6451 135.326 10.7529 134.985 10.9255C134.643 11.1628 134.366 11.4486 134.126 11.7937C133.87 12.2683 133.656 12.7698 133.459 13.2875L126.3 31.0835C125.611 32.8145 124.694 34.1142 123.558 35.004C122.443 35.8884 121.349 36.3252 120.298 36.3252C119.957 36.3252 119.61 36.282 119.29 36.1742C118.97 36.0663 118.671 35.8938 118.409 35.6565C118.175 35.4839 118.004 35.2466 117.876 34.9878C117.748 34.7289 117.684 34.4485 117.684 34.1411C117.663 33.9038 117.705 33.6666 117.812 33.4239C117.897 33.2082 118.025 33.014 118.217 32.8415C118.409 32.6689 118.644 32.5395 118.906 32.4532C119.162 32.3669 119.418 32.3238 119.674 32.3454C120.293 32.3885 120.874 32.5179 121.434 32.7552C121.754 32.8846 122.074 32.9925 122.4 33.0572C122.784 33.0572 123.216 32.8415 123.664 32.4478C124.134 32.038 124.587 31.256 125.057 30.1343L126.3 27.0173L119.935 13.5949C119.674 13.0772 119.354 12.5756 119.012 12.0795C118.799 11.756 118.522 11.4324 118.217 11.1681C117.769 10.9093 117.295 10.7152 116.804 10.6289V9.91164H116.809Z" fill="#616E77"/>
<path d="M136.058 8.72472V5.15394H137.599C137.855 5.13236 138.095 5.17551 138.33 5.26181C138.501 5.32654 138.629 5.43442 138.714 5.58545C138.8 5.73648 138.864 5.93066 138.864 6.12484C138.864 6.23272 138.842 6.36218 138.8 6.47005C138.757 6.57793 138.693 6.66424 138.602 6.75054C138.389 6.9663 138.154 7.07417 137.855 7.09575C137.962 7.1389 138.047 7.20363 138.133 7.26836C138.282 7.39781 138.41 7.57042 138.517 7.74302L139.141 8.71932H138.56L138.09 7.98035C137.962 7.7646 137.834 7.59199 137.77 7.48411C137.685 7.39781 137.621 7.31151 137.535 7.2252C137.45 7.20363 137.386 7.16048 137.322 7.16048C137.237 7.1389 137.151 7.11733 137.066 7.11733H136.527V8.71932H136.058V8.72472ZM136.527 6.73436H137.514C137.685 6.75593 137.855 6.73436 138.026 6.66963C138.133 6.62648 138.218 6.56175 138.261 6.45387C138.346 6.34599 138.368 6.23812 138.368 6.13024C138.368 6.04393 138.346 5.97921 138.325 5.8929C138.282 5.82818 138.24 5.76345 138.176 5.7203C138.026 5.59084 137.834 5.54769 137.615 5.54769H136.5L136.527 6.73436Z" fill="#616E77"/>
<path d="M140 6.79351C140 6.96608 139.979 7.13865 139.936 7.31122C139.915 7.46221 139.851 7.63478 139.787 7.78578C139.723 7.93678 139.659 8.08777 139.552 8.23877C139.467 8.3682 139.36 8.49762 139.253 8.62705C139.125 8.7349 138.997 8.84276 138.848 8.95061C138.72 9.0369 138.571 9.12318 138.421 9.1879C138.272 9.25261 138.101 9.29575 137.925 9.31732C137.776 9.36046 137.605 9.38203 137.434 9.38203C137.264 9.38203 137.088 9.36046 136.944 9.31732C136.773 9.29575 136.623 9.25261 136.447 9.1879C136.298 9.12318 136.149 9.0369 136.021 8.95061C135.871 8.84276 135.743 8.7349 135.637 8.62705C135.508 8.49762 135.402 8.3682 135.316 8.23877C135.21 8.08777 135.146 7.93678 135.082 7.78578C135.018 7.63478 134.954 7.46221 134.932 7.28965C134.89 7.13865 134.89 6.96608 134.89 6.79351C134.89 6.62095 134.89 6.46995 134.932 6.29738C134.954 6.12481 135.018 5.97381 135.082 5.80125C135.146 5.65025 135.21 5.49925 135.316 5.36983C135.402 5.21883 135.508 5.0894 135.637 4.98155C135.743 4.85212 135.871 4.74427 136.021 4.65798C136.149 4.55013 136.298 4.48541 136.447 4.4207C136.618 4.35599 136.767 4.31285 136.944 4.2697C137.114 4.24813 137.264 4.22656 137.434 4.22656C137.605 4.22656 137.776 4.24813 137.925 4.2697C138.096 4.31285 138.267 4.35599 138.421 4.4207C138.571 4.48541 138.72 4.5717 138.848 4.65798C138.997 4.74427 139.125 4.85212 139.232 4.98155C139.36 5.11097 139.467 5.2404 139.552 5.36983C139.659 5.52082 139.723 5.65025 139.787 5.82282C139.851 5.97381 139.915 6.12481 139.936 6.29738C139.979 6.46456 140 6.62095 140 6.79351Z" stroke="#606E76" stroke-width="1.443"/>
</svg>
