<svg width="24" height="24" viewBox="0 0 24 24" fill="none" xmlns="http://www.w3.org/2000/svg">
<path d="M12 22C17.5228 22 22 17.5228 22 12C22 6.47715 17.5228 2 12 2C6.47715 2 2 6.47715 2 12C2 17.5228 6.47715 22 12 22Z" fill="#03A7DF"/>
<path d="M16.9908 7.86343C17.0764 7.28809 16.5499 6.83396 16.0576 7.05857L6.25081 11.532C5.89772 11.6931 5.92355 12.2488 6.28976 12.3699L8.31213 13.0391C8.69816 13.1668 9.11609 13.1007 9.45317 12.8588L14.0128 9.58593C14.1503 9.48721 14.3002 9.69036 14.1827 9.81614L10.9006 13.3319C10.5822 13.6729 10.6454 14.2509 11.0284 14.5004L14.7031 16.8945C15.1152 17.163 15.6454 16.8933 15.7225 16.3758L16.9908 7.86343Z" fill="white"/>
</svg>
