<svg xmlns="http://www.w3.org/2000/svg" fill="none" viewBox="0 0 20 20">
  <path fill="#CD0E10" d="M15.334 5.129c-2.362.673-2.794 2.582-2.642 3.794-1.684-1.98-1.615-4.257-1.615-7.538-5.402 2.037-4.146 7.909-4.308 9.692-1.358-1.112-1.615-3.77-1.615-3.77C3.719 8.047 3 10.018 3 11.617a7 7 0 1 0 14 0c0-2.298-1.687-3.358-1.666-6.487Zm-5.065 12.41c-3.42 0-6.192-2.886-6.192-6.125 0-.753.017-1.363.538-1.952-.057.34.753 3.26 3.395 3.107-.114-2.218-.714-7.651 2.072-9.53-.246 2.953.477 6.92 3.703 7.5-.185-1.184-.163-3.155.666-3.519.09 1.814 1.431 2.934 1.431 4.677 0 3.157-3.054 5.842-5.613 5.842Z"/>
</svg>
