<svg width="24" height="24" viewBox="0 0 24 24" fill="none" xmlns="http://www.w3.org/2000/svg">
<path d="M2 22L3.72 16.8403C2.84724 15.3724 2.34483 13.6593 2.34483 11.8276C2.34483 6.4 6.74483 2 12.1724 2C17.6 2 22 6.4 22 11.8276C22 17.2552 17.6 21.6552 12.1724 21.6552C10.521 21.6552 8.96586 21.2459 7.6 20.5266L2 22Z" fill="#2CB742"/>
<path d="M18.4431 15.0981C17.9893 14.2406 16.3159 13.2599 16.3159 13.2599C15.9372 13.044 15.4803 13.0199 15.2645 13.4047C15.2645 13.4047 14.7207 14.0568 14.5824 14.1506C13.9507 14.5785 13.3655 14.5619 12.7748 13.9712L11.4021 12.5985L10.0293 11.2257C9.43862 10.635 9.42207 10.0499 9.85 9.41815C9.94379 9.27987 10.5959 8.73608 10.5959 8.73608C10.9807 8.51987 10.9566 8.06332 10.7407 7.6847C10.7407 7.6847 9.76 6.01125 8.90241 5.55746C8.53759 5.36435 8.08966 5.43194 7.79793 5.72366L7.19172 6.32987C5.26862 8.25297 6.21552 10.424 8.13862 12.3471L9.89621 14.1047L11.6538 15.8623C13.5769 17.7854 15.7479 18.7323 17.671 16.8092L18.2772 16.203C18.569 15.9106 18.6362 15.4626 18.4431 15.0981Z" fill="white"/>
</svg>
