<svg width="24" height="24" viewBox="0 0 24 24" fill="none" xmlns="http://www.w3.org/2000/svg">
<path d="M12 22C17.5228 22 22 17.5228 22 12C22 6.47715 17.5228 2 12 2C6.47715 2 2 6.47715 2 12C2 17.5228 6.47715 22 12 22Z" fill="#FF0000"/>
<path fill-rule="evenodd" clip-rule="evenodd" d="M17.6503 8.18905C17.8498 8.3886 17.9936 8.63695 18.0673 8.90935C18.4918 10.6179 18.3937 13.3162 18.0756 15.0906C18.0019 15.363 17.8581 15.6114 17.6585 15.811C17.459 16.0105 17.2106 16.1543 16.9382 16.228C15.941 16.5 11.9272 16.5 11.9272 16.5C11.9272 16.5 7.91346 16.5 6.91621 16.228C6.64381 16.1543 6.39545 16.0105 6.1959 15.811C5.99635 15.6114 5.85256 15.363 5.77886 15.0906C5.35191 13.3895 5.46895 10.6895 5.7706 8.9176C5.8443 8.64515 5.98811 8.3968 6.18766 8.19725C6.38721 7.9977 6.63555 7.85395 6.90795 7.7802C7.90521 7.50825 11.919 7.5 11.919 7.5C11.919 7.5 15.9327 7.5 16.93 7.772C17.2024 7.8457 17.4507 7.9895 17.6503 8.18905ZM13.9712 12L10.6415 13.9285V10.0714L13.9712 12Z" fill="white"/>
</svg>
